<?xml version="1.0" standalone="no"?>
 <!DOCTYPE svg PUBLIC "-//W3C//DTD SVG 1.1//EN" 
 "http://www.w3.org/Graphics/SVG/1.1/DTD/svg11.dtd"> 
<svg xmlns="http://www.w3.org/2000/svg" version="1.1" 
    width="29.7002cm" height="21.0007cm" viewBox="0 0 116930 82680 ">
<title>SVG Picture created as RX_Flex.svg date 2020/08/23 16:27:04 </title>
  <desc>Picture generated by PCBNEW </desc>
<g style="fill:#000000; fill-opacity:1;stroke:#000000; stroke-opacity:1;
stroke-linecap:round; stroke-linejoin:round; "
 transform="translate(0 0) scale(1 1)">
</g>
<g style="fill:#000000; fill-opacity:0.0; 
stroke:#000000; stroke-width:-0.000393701; stroke-opacity:1; 
stroke-linecap:round; stroke-linejoin:round;">
</g>
<g style="fill:#000000; fill-opacity:0.0; 
stroke:#000000; stroke-width:19.685; stroke-opacity:1; 
stroke-linecap:round; stroke-linejoin:round;">
<path d="M45669 24409
L42070 24409
" />
<path d="M39708 27559
L36220 27559
" />
<path d="M39708 25590
L36220 25590
" />
<path d="M36023 27559
L36220 27559
" />
<path d="M42070 28740
L39708 27559
" />
<path d="M42070 24409
L39708 25590
" />
<path d="M45669 28740
L42070 28740
" />
<path d="M36023 25590
L36220 25590
" />
<path d="M34645 27440
L34645 25708
" />
<path d="M35511.8 25511.8 A78.7402 78.7402 0.0 0 0 35590.6 25590.6 " />
<path d="M35511.8 25452.8 A78.7402 78.7402 0.0 0 0 35433.1 25374 " />
<path d="M35039.4 25590.6 A78.7402 78.7402 0.0 0 0 35103.4 25557.6 " />
<path d="M35590.6 27559.1 A78.7402 78.7402 0.0 0 0 35512.4 27628 " />
<path d="M35433.1 27775.6 A78.7402 78.7402 0.0 0 0 35511.8 27696.9 " />
<path d="M35108.3 27598.4 A79.3528 79.3528 0.0 0 0 35039.4 27558.4 " />
<path d="M34645.7 27440.3 A118.11 118.11 0.0 0 0 34763.8 27558.4 " />
<path d="M34763.8 25590.6 A118.11 118.11 0.0 0 0 34645.7 25708.7 " />
<path d="M34763 25590
L35039 25590
" />
<path d="M35236 25374
L35103 25557
" />
<path d="M35433 25374
L35236 25374
" />
<path d="M35511 25511
L35511 25452
" />
<path d="M36023 25590
L35590 25590
" />
<path d="M35590 27559
L36023 27559
" />
<path d="M35511 27696
L35512 27628
" />
<path d="M35236 27775
L35433 27775
" />
<path d="M35236 27775
L35108 27598
" />
<path d="M34763 27558
L35039 27558
" />
<path d="M64960.6 28740.2 A393.701 393.701 0.0 0 0 65354.3 28346.5 " />
<path d="M65354.3 24803.1 A393.701 393.701 0.0 0 0 64960.6 24409.4 " />
<path d="M64960 24409
L45669 24409
" />
<path d="M65354 28346
L65354 24803
" />
<path d="M45669 28740
L64960 28740
" />
<g >
</g>
<g >
</g>
<g >
</g>
<g >
</g>
<g >
</g>
<g >
</g>
<g >
</g>
<g >
</g>
<g >
</g>
<g >
</g>
</g> 
</svg>
