<svg height="21.0007cm" viewBox="0 0 116930 82680 " width="29.7002cm">
<title>Picutre generated by pcb2svg</title>
<desc>Picture generated by pcb2svg</desc>
<defs> <mask height="4350" id="boardMask" width="30728" x="34635" y="24399"><rect height="4350" style="fill:#FFFFFF; fill-opacity:1.0;" width="30728" x="34635" y="24399" /></mask><mask height="4350" id="test-a" width="30728" x="34635" y="24399"><g height="4350" style="fill:#000000; fill-opacity:1.0; stroke:#000000; stroke-opacity:1.0;" width="30728" x="34635" y="24399"><g style="fill:#000000; fill-opacity:1;stroke:#000000; stroke-opacity:1; stroke-linecap:round; stroke-linejoin:round; " transform="translate(0 0) scale(1 1)">
</g>
<g style="fill:#000000; fill-opacity:0.0;  stroke:#000000; stroke-width:-0.000393701; stroke-opacity:1;  stroke-linecap:round; stroke-linejoin:round;">
</g>
<g style="fill:#000000; fill-opacity:1.0;  stroke:#000000; stroke-width:0; stroke-opacity:1;  stroke-linecap:round; stroke-linejoin:round;">
<path d="M 44887.7,27330.8 44929.6,27339.1 45008.5,27371.8 45079.5,27419.2 45139.8,27479.6 45187.3,27550.6 45220,27629.5 45236.6,27713.2 45236.6,27798.6 45220,27882.3 45187.3,27961.2 45139.8,28032.2 45079.5,28092.6 45008.5,28140 44969,28156.4 44929.6,28172.7 44887.7,28181 44845.8,28189.4 44760.5,28189.4 44718.6,28181 44676.7,28172.7 44637.3,28156.4 44597.8,28140 44526.8,28092.6 44466.5,28032.2 44419,27961.2 44386.3,27882.3 44369.7,27798.6 44369.7,27713.2 44386.3,27629.5 44419,27550.6 44466.5,27479.6 44526.8,27419.2 44597.8,27371.8 44676.7,27339.1 44718.6,27330.8 44760.5,27322.4 44845.8,27322.4 Z" style="fill:#000000; fill-opacity:1.0;  stroke:#000000; stroke-width:0; stroke-opacity:1;  stroke-linecap:round; stroke-linejoin:round;fill-rule:evenodd;" /> 
<path d="M 43021.6,27330.8 43063.4,27339.1 43142.3,27371.8 43213.3,27419.2 43273.7,27479.6 43321.1,27550.6 43353.8,27629.5 43370.5,27713.2 43370.5,27798.6 43353.8,27882.3 43321.1,27961.2 43273.7,28032.2 43213.3,28092.6 43142.3,28140 43102.9,28156.4 43063.4,28172.7 43021.6,28181 42979.7,28189.4 42894.3,28189.4 42852.4,28181 42810.6,28172.7 42771.1,28156.4 42731.7,28140 42660.7,28092.6 42600.3,28032.2 42552.9,27961.2 42520.2,27882.3 42503.5,27798.6 42503.5,27713.2 42520.2,27629.5 42552.9,27550.6 42600.3,27479.6 42660.7,27419.2 42731.7,27371.8 42810.6,27339.1 42852.4,27330.8 42894.3,27322.4 42979.7,27322.4 Z" style="fill:#000000; fill-opacity:1.0;  stroke:#000000; stroke-width:0; stroke-opacity:1;  stroke-linecap:round; stroke-linejoin:round;fill-rule:evenodd;" /> 
<path d="M 36043.7,27451.2 34625.6,27451.2 34625.6,25698.4 36043.7,25698.4 Z" style="fill:#000000; fill-opacity:1.0;  stroke:#000000; stroke-width:0; stroke-opacity:1;  stroke-linecap:round; stroke-linejoin:round;fill-rule:evenodd;" /> 
<path d="M 44887.7,24968.6 44929.6,24976.9 44969,24993.2 45008.5,25009.6 45079.5,25057 45139.8,25117.4 45187.3,25188.4 45220,25267.3 45236.6,25351 45236.6,25436.4 45220,25520.1 45187.3,25599 45139.8,25670 45079.5,25730.4 45008.5,25777.8 44969,25794.2 44929.6,25810.5 44887.7,25818.8 44845.8,25827.2 44760.5,25827.2 44718.6,25818.8 44676.7,25810.5 44637.3,25794.2 44597.8,25777.8 44526.8,25730.4 44466.5,25670 44419,25599 44386.3,25520.1 44369.7,25436.4 44369.7,25351 44386.3,25267.3 44419,25188.4 44466.5,25117.4 44526.8,25057 44597.8,25009.6 44637.3,24993.2 44676.7,24976.9 44718.6,24968.6 44760.5,24960.2 44845.8,24960.2 Z" style="fill:#000000; fill-opacity:1.0;  stroke:#000000; stroke-width:0; stroke-opacity:1;  stroke-linecap:round; stroke-linejoin:round;fill-rule:evenodd;" /> 
<path d="M 43021.6,24968.6 43063.4,24976.9 43102.9,24993.2 43142.3,25009.6 43213.3,25057 43273.7,25117.4 43321.1,25188.4 43353.8,25267.3 43370.5,25351 43370.5,25436.4 43353.8,25520.1 43321.1,25599 43273.7,25670 43213.3,25730.4 43142.3,25777.8 43102.9,25794.2 43063.4,25810.5 43021.6,25818.8 42979.7,25827.2 42894.3,25827.2 42852.4,25818.8 42810.6,25810.5 42771.1,25794.2 42731.7,25777.8 42660.7,25730.4 42600.3,25670 42552.9,25599 42520.2,25520.1 42503.5,25436.4 42503.5,25351 42520.2,25267.3 42552.9,25188.4 42600.3,25117.4 42660.7,25057 42731.7,25009.6 42771.1,24993.2 42810.6,24976.9 42852.4,24968.6 42894.3,24960.2 42979.7,24960.2 Z" style="fill:#000000; fill-opacity:1.0;  stroke:#000000; stroke-width:0; stroke-opacity:1;  stroke-linecap:round; stroke-linejoin:round;fill-rule:evenodd;" /> 
</g> 
</g><rect height="4350" style="fill:#FFFFFF; fill-opacity:1.0;" width="30728" x="34635" y="24399" /></mask></defs>
<g style="fill:#402400; fill-opacity:1.0;"><g height="4350" style="fill:#402400; fill-opacity:1.0; stroke:#402400; stroke-opacity:1.0;" width="30728" x="34635" y="24399"><g style="fill:#402400; fill-opacity:1;stroke:#402400; stroke-opacity:1; stroke-linecap:round; stroke-linejoin:round; " transform="translate(0 0) scale(1 1)">
</g>
<g style="fill:#402400; fill-opacity:0.0;  stroke:#402400; stroke-width:-0.000393701; stroke-opacity:1;  stroke-linecap:round; stroke-linejoin:round;">
<g style="stroke:#402400;">
</g>
<g style="stroke:#402400;">
</g>
<g style="stroke:#402400;">
</g>
<g style="stroke:#402400;">
</g>
<g style="stroke:#402400;">
</g>
<g style="stroke:#402400;">
</g>
<g style="stroke:#402400;">
</g>
<g style="stroke:#402400;">
</g>
<g style="stroke:#402400;">
</g>
<g style="stroke:#402400;">
</g>
<g style="fill:#402400; fill-opacity:0.0;  stroke:#402400; stroke-width:-0.000393701; stroke-opacity:1;  stroke-linecap:round; stroke-linejoin:round;">
</g>
<g style="fill:#402400; fill-opacity:1.0;  stroke:#402400; stroke-width:0; stroke-opacity:1;  stroke-linecap:round; stroke-linejoin:round;">
<circle cx="43897.6" cy="25000" r="157.48" style="stroke:#402400;" /> 
</g>
<g style="fill:#402400; fill-opacity:1.0;  stroke:#402400; stroke-width:137.795; stroke-opacity:1;  stroke-linecap:round; stroke-linejoin:round;">
</g>
<g style="fill:#402400; fill-opacity:1.0;  stroke:#402400; stroke-width:0; stroke-opacity:1;  stroke-linecap:round; stroke-linejoin:round;">
<circle cx="43897.6" cy="25590.6" r="157.48" style="stroke:#402400;" /> 
</g>
<g style="fill:#402400; fill-opacity:1.0;  stroke:#402400; stroke-width:137.795; stroke-opacity:1;  stroke-linecap:round; stroke-linejoin:round;">
</g>
<g style="fill:#402400; fill-opacity:1.0;  stroke:#402400; stroke-width:0; stroke-opacity:1;  stroke-linecap:round; stroke-linejoin:round;">
<circle cx="43897.6" cy="26574.8" r="157.48" style="stroke:#402400;" /> 
</g>
<g style="fill:#402400; fill-opacity:1.0;  stroke:#402400; stroke-width:137.795; stroke-opacity:1;  stroke-linecap:round; stroke-linejoin:round;">
</g>
<g style="fill:#402400; fill-opacity:1.0;  stroke:#402400; stroke-width:0; stroke-opacity:1;  stroke-linecap:round; stroke-linejoin:round;">
<circle cx="43897.6" cy="28149.6" r="157.48" style="stroke:#402400;" /> 
</g>
<g style="fill:#402400; fill-opacity:1.0;  stroke:#402400; stroke-width:137.795; stroke-opacity:1;  stroke-linecap:round; stroke-linejoin:round;">
</g>
<g style="stroke:#402400;">
</g>
<g style="stroke:#402400;">
</g>
</g>
<g style="stroke:#402400;">
</g>
<g style="stroke:#402400;">
</g>
<g style="stroke:#402400;">
</g>
<g style="stroke:#402400;">
</g>
<g style="stroke:#402400;">
</g>
<g style="stroke:#402400;">
</g>
<g style="stroke:#402400;">
</g>
<g style="stroke:#402400;">
</g>
<g style="stroke:#402400;">
</g>
<g style="stroke:#402400;">
</g>
<g style="fill:#402400; fill-opacity:0.0;  stroke:#402400; stroke-width:-0.000393701; stroke-opacity:1;  stroke-linecap:round; stroke-linejoin:round;">
</g>
<g style="fill:#402400; fill-opacity:1.0;  stroke:#402400; stroke-width:0; stroke-opacity:1;  stroke-linecap:round; stroke-linejoin:round;">
<circle cx="43897.6" cy="25000" r="157.48" style="stroke:#402400;" /> 
</g>
<g style="fill:#402400; fill-opacity:1.0;  stroke:#402400; stroke-width:137.795; stroke-opacity:1;  stroke-linecap:round; stroke-linejoin:round;">
</g>
<g style="fill:#402400; fill-opacity:1.0;  stroke:#402400; stroke-width:0; stroke-opacity:1;  stroke-linecap:round; stroke-linejoin:round;">
<circle cx="43897.6" cy="25590.6" r="157.48" style="stroke:#402400;" /> 
</g>
<g style="fill:#402400; fill-opacity:1.0;  stroke:#402400; stroke-width:137.795; stroke-opacity:1;  stroke-linecap:round; stroke-linejoin:round;">
</g>
<g style="fill:#402400; fill-opacity:1.0;  stroke:#402400; stroke-width:0; stroke-opacity:1;  stroke-linecap:round; stroke-linejoin:round;">
<circle cx="43897.6" cy="26574.8" r="157.48" style="stroke:#402400;" /> 
</g>
<g style="fill:#402400; fill-opacity:1.0;  stroke:#402400; stroke-width:137.795; stroke-opacity:1;  stroke-linecap:round; stroke-linejoin:round;">
</g>
<g style="fill:#402400; fill-opacity:1.0;  stroke:#402400; stroke-width:0; stroke-opacity:1;  stroke-linecap:round; stroke-linejoin:round;">
<circle cx="43897.6" cy="28149.6" r="157.48" style="stroke:#402400;" /> 
</g>
<g style="fill:#402400; fill-opacity:1.0;  stroke:#402400; stroke-width:137.795; stroke-opacity:1;  stroke-linecap:round; stroke-linejoin:round;">
</g>
<g style="stroke:#402400;">
</g>
<g style="stroke:#402400;">
</g>
<g style="fill:#402400; fill-opacity:1.0;  stroke:#402400; stroke-width:137.795; stroke-opacity:1;  stroke-linecap:round; stroke-linejoin:round;">
</g>
<g style="fill:#402400; fill-opacity:1.0;  stroke:#402400; stroke-width:0; stroke-opacity:1;  stroke-linecap:round; stroke-linejoin:round;">
<circle cx="43897.6" cy="25000" r="78.7402" style="stroke:#402400;" /> 
</g>
<g style="fill:#402400; fill-opacity:1.0;  stroke:#402400; stroke-width:137.795; stroke-opacity:1;  stroke-linecap:round; stroke-linejoin:round;">
</g>
<g style="fill:#402400; fill-opacity:1.0;  stroke:#402400; stroke-width:0; stroke-opacity:1;  stroke-linecap:round; stroke-linejoin:round;">
<circle cx="43897.6" cy="25590.6" r="78.7402" style="stroke:#402400;" /> 
</g>
<g style="fill:#402400; fill-opacity:1.0;  stroke:#402400; stroke-width:137.795; stroke-opacity:1;  stroke-linecap:round; stroke-linejoin:round;">
</g>
<g style="fill:#402400; fill-opacity:1.0;  stroke:#402400; stroke-width:0; stroke-opacity:1;  stroke-linecap:round; stroke-linejoin:round;">
<circle cx="43897.6" cy="26574.8" r="78.7402" style="stroke:#402400;" /> 
</g>
<g style="fill:#402400; fill-opacity:1.0;  stroke:#402400; stroke-width:137.795; stroke-opacity:1;  stroke-linecap:round; stroke-linejoin:round;">
</g>
<g style="fill:#402400; fill-opacity:1.0;  stroke:#402400; stroke-width:0; stroke-opacity:1;  stroke-linecap:round; stroke-linejoin:round;">
<circle cx="43897.6" cy="28149.6" r="78.7402" style="stroke:#402400;" /> 
</g>
<g style="fill:#402400; fill-opacity:1.0;  stroke:#402400; stroke-width:137.795; stroke-opacity:1;  stroke-linecap:round; stroke-linejoin:round;">
</g>
<g style="fill:#402400; fill-opacity:1.0;  stroke:#402400; stroke-width:0; stroke-opacity:1;  stroke-linecap:round; stroke-linejoin:round;">
<circle cx="42937" cy="25393.7" r="413.386" style="stroke:#402400;" /> 
</g>
<g style="fill:#402400; fill-opacity:1.0;  stroke:#402400; stroke-width:137.795; stroke-opacity:1;  stroke-linecap:round; stroke-linejoin:round;">
</g>
<g style="fill:#402400; fill-opacity:1.0;  stroke:#402400; stroke-width:0; stroke-opacity:1;  stroke-linecap:round; stroke-linejoin:round;">
<circle cx="42937" cy="27755.9" r="413.386" style="stroke:#402400;" /> 
</g>
<g style="fill:#402400; fill-opacity:1.0;  stroke:#402400; stroke-width:137.795; stroke-opacity:1;  stroke-linecap:round; stroke-linejoin:round;">
</g>
<g style="fill:#402400; fill-opacity:1.0;  stroke:#402400; stroke-width:0; stroke-opacity:1;  stroke-linecap:round; stroke-linejoin:round;">
<circle cx="44803.1" cy="25393.7" r="413.386" style="stroke:#402400;" /> 
</g>
<g style="fill:#402400; fill-opacity:1.0;  stroke:#402400; stroke-width:137.795; stroke-opacity:1;  stroke-linecap:round; stroke-linejoin:round;">
</g>
<g style="fill:#402400; fill-opacity:1.0;  stroke:#402400; stroke-width:0; stroke-opacity:1;  stroke-linecap:round; stroke-linejoin:round;">
<circle cx="44803.1" cy="27755.9" r="413.386" style="stroke:#402400;" /> 
</g>
<g style="fill:#402400; fill-opacity:1.0;  stroke:#402400; stroke-width:137.795; stroke-opacity:1;  stroke-linecap:round; stroke-linejoin:round;">
</g>
<g style="fill:#402400; fill-opacity:1.0;  stroke:#402400; stroke-width:137.795; stroke-opacity:1;  stroke-linecap:round; stroke-linejoin:round;">
</g> 
</g></g><g style="fill:#E8D959; fill-opacity:1.0;"><g height="4350" style="fill:#E8D959; fill-opacity:1.0; stroke:#E8D959; stroke-opacity:1.0;" width="30728" x="34635" y="24399"><g style="fill:#E8D959; fill-opacity:1;stroke:#E8D959; stroke-opacity:1; stroke-linecap:round; stroke-linejoin:round; " transform="translate(0 0) scale(1 1)">
</g>
<g style="fill:#E8D959; fill-opacity:0.0;  stroke:#E8D959; stroke-width:-0.000393701; stroke-opacity:1;  stroke-linecap:round; stroke-linejoin:round;">
<g style="stroke:#E8D959;">
</g>
<g style="stroke:#E8D959;">
</g>
<g style="stroke:#E8D959;">
</g>
<g style="stroke:#E8D959;">
</g>
<g style="stroke:#E8D959;">
</g>
<g style="fill:#E8D959; fill-opacity:0.0;  stroke:#E8D959; stroke-width:-0.000393701; stroke-opacity:1;  stroke-linecap:round; stroke-linejoin:round;">
</g>
<g style="fill:#E8D959; fill-opacity:0.0;  stroke:#E8D959; stroke-width:0; stroke-opacity:1;  stroke-linecap:round; stroke-linejoin:round;">
</g>
<g style="fill:#E8D959; fill-opacity:1.0;  stroke:#E8D959; stroke-width:0; stroke-opacity:1;  stroke-linecap:round; stroke-linejoin:round;">
<path d="M 36023.6,27431.1 34645.7,27431.1 34645.7,27293.3 36023.6,27293.3 Z" style="fill:#E8D959; fill-opacity:1.0;  stroke:#E8D959; stroke-width:0; stroke-opacity:1;  stroke-linecap:round; stroke-linejoin:round;fill-rule:evenodd;" /> 
<path d="M 36023.6,27234.3 34645.7,27234.3 34645.7,27096.5 36023.6,27096.5 Z" style="fill:#E8D959; fill-opacity:1.0;  stroke:#E8D959; stroke-width:0; stroke-opacity:1;  stroke-linecap:round; stroke-linejoin:round;fill-rule:evenodd;" /> 
<path d="M 36023.6,27037.4 34645.7,27037.4 34645.7,26899.6 36023.6,26899.6 Z" style="fill:#E8D959; fill-opacity:1.0;  stroke:#E8D959; stroke-width:0; stroke-opacity:1;  stroke-linecap:round; stroke-linejoin:round;fill-rule:evenodd;" /> 
<path d="M 36023.6,26840.6 34645.7,26840.6 34645.7,26702.8 36023.6,26702.8 Z" style="fill:#E8D959; fill-opacity:1.0;  stroke:#E8D959; stroke-width:0; stroke-opacity:1;  stroke-linecap:round; stroke-linejoin:round;fill-rule:evenodd;" /> 
<path d="M 36023.6,26643.7 34645.7,26643.7 34645.7,26505.9 36023.6,26505.9 Z" style="fill:#E8D959; fill-opacity:1.0;  stroke:#E8D959; stroke-width:0; stroke-opacity:1;  stroke-linecap:round; stroke-linejoin:round;fill-rule:evenodd;" /> 
<path d="M 36023.6,26446.9 34645.7,26446.9 34645.7,26309.1 36023.6,26309.1 Z" style="fill:#E8D959; fill-opacity:1.0;  stroke:#E8D959; stroke-width:0; stroke-opacity:1;  stroke-linecap:round; stroke-linejoin:round;fill-rule:evenodd;" /> 
<path d="M 36023.6,26250 34645.7,26250 34645.7,26112.2 36023.6,26112.2 Z" style="fill:#E8D959; fill-opacity:1.0;  stroke:#E8D959; stroke-width:0; stroke-opacity:1;  stroke-linecap:round; stroke-linejoin:round;fill-rule:evenodd;" /> 
<path d="M 36023.6,26053.1 34645.7,26053.1 34645.7,25915.4 36023.6,25915.4 Z" style="fill:#E8D959; fill-opacity:1.0;  stroke:#E8D959; stroke-width:0; stroke-opacity:1;  stroke-linecap:round; stroke-linejoin:round;fill-rule:evenodd;" /> 
<path d="M 36023.6,25856.3 34645.7,25856.3 34645.7,25718.5 36023.6,25718.5 Z" style="fill:#E8D959; fill-opacity:1.0;  stroke:#E8D959; stroke-width:0; stroke-opacity:1;  stroke-linecap:round; stroke-linejoin:round;fill-rule:evenodd;" /> 
</g>
<g style="stroke:#E8D959;">
</g>
<g style="stroke:#E8D959;">
</g>
<g style="stroke:#E8D959;">
</g>
<g style="stroke:#E8D959;">
</g>
<g style="stroke:#E8D959;">
</g>
<g style="fill:#E8D959; fill-opacity:1.0;  stroke:#E8D959; stroke-width:0; stroke-opacity:1;  stroke-linecap:round; stroke-linejoin:round;">
<circle cx="43897.6" cy="25000" r="157.48" style="stroke:#E8D959;" /> 
</g>
<g style="fill:#E8D959; fill-opacity:1.0;  stroke:#E8D959; stroke-width:137.795; stroke-opacity:1;  stroke-linecap:round; stroke-linejoin:round;">
</g>
<g style="fill:#E8D959; fill-opacity:1.0;  stroke:#E8D959; stroke-width:0; stroke-opacity:1;  stroke-linecap:round; stroke-linejoin:round;">
<circle cx="43897.6" cy="25590.6" r="157.48" style="stroke:#E8D959;" /> 
</g>
<g style="fill:#E8D959; fill-opacity:1.0;  stroke:#E8D959; stroke-width:137.795; stroke-opacity:1;  stroke-linecap:round; stroke-linejoin:round;">
</g>
<g style="fill:#E8D959; fill-opacity:1.0;  stroke:#E8D959; stroke-width:0; stroke-opacity:1;  stroke-linecap:round; stroke-linejoin:round;">
<circle cx="43897.6" cy="26574.8" r="157.48" style="stroke:#E8D959;" /> 
</g>
<g style="fill:#E8D959; fill-opacity:1.0;  stroke:#E8D959; stroke-width:137.795; stroke-opacity:1;  stroke-linecap:round; stroke-linejoin:round;">
</g>
<g style="fill:#E8D959; fill-opacity:1.0;  stroke:#E8D959; stroke-width:0; stroke-opacity:1;  stroke-linecap:round; stroke-linejoin:round;">
<circle cx="43897.6" cy="28149.6" r="157.48" style="stroke:#E8D959;" /> 
</g>
<g style="fill:#E8D959; fill-opacity:1.0;  stroke:#E8D959; stroke-width:137.795; stroke-opacity:1;  stroke-linecap:round; stroke-linejoin:round;">
</g>
<g style="stroke:#E8D959;">
</g>
<g style="fill:#E8D959; fill-opacity:1.0;  stroke:#E8D959; stroke-width:137.795; stroke-opacity:1;  stroke-linecap:round; stroke-linejoin:round;">
</g>
<g style="fill:#E8D959; fill-opacity:1.0;  stroke:#E8D959; stroke-width:60; stroke-opacity:1;  stroke-linecap:round; stroke-linejoin:round;">
</g>
<g style="fill:#E8D959; fill-opacity:0.0;  stroke:#E8D959; stroke-width:60; stroke-opacity:1;  stroke-linecap:round; stroke-linejoin:round;">
<path d="M43897 25000 L43700 24803 " style="stroke:#E8D959;" />
<path d="M43700 24803 L42224 24803 " style="stroke:#E8D959;" />
<path d="M42224 24803 L41043 25984 " style="stroke:#E8D959;" />
<path d="M41043 25984 L35334 25984 " style="stroke:#E8D959;" />
<path d="M43110 26377 L35334 26377 " style="stroke:#E8D959;" />
<path d="M43897 25590 L43110 26377 " style="stroke:#E8D959;" />
<path d="M43208 26771 L35334 26771 " style="stroke:#E8D959;" />
<path d="M43405 26574 L43208 26771 " style="stroke:#E8D959;" />
<path d="M43897 26574 L43405 26574 " style="stroke:#E8D959;" />
<path d="M41043 27165 L35334 27165 " style="stroke:#E8D959;" />
<path d="M43897 28149 L43700 28346 " style="stroke:#E8D959;" />
<path d="M42224 28346 L41043 27165 " style="stroke:#E8D959;" />
<path d="M43700 28346 L42224 28346 " style="stroke:#E8D959;" />
</g>
<g style="stroke:#E8D959;">
</g>
</g>
<g style="stroke:#E8D959;">
</g>
<g style="stroke:#E8D959;">
</g>
<g style="stroke:#E8D959;">
</g>
<g style="stroke:#E8D959;">
</g>
<g style="stroke:#E8D959;">
</g>
<g style="fill:#E8D959; fill-opacity:0.0;  stroke:#E8D959; stroke-width:-0.000393701; stroke-opacity:1;  stroke-linecap:round; stroke-linejoin:round;">
</g>
<g style="fill:#E8D959; fill-opacity:0.0;  stroke:#E8D959; stroke-width:0; stroke-opacity:1;  stroke-linecap:round; stroke-linejoin:round;">
</g>
<g style="fill:#E8D959; fill-opacity:1.0;  stroke:#E8D959; stroke-width:0; stroke-opacity:1;  stroke-linecap:round; stroke-linejoin:round;">
<path d="M 36023.6,27431.1 34645.7,27431.1 34645.7,27293.3 36023.6,27293.3 Z" style="fill:#E8D959; fill-opacity:1.0;  stroke:#E8D959; stroke-width:0; stroke-opacity:1;  stroke-linecap:round; stroke-linejoin:round;fill-rule:evenodd;" /> 
<path d="M 36023.6,27234.3 34645.7,27234.3 34645.7,27096.5 36023.6,27096.5 Z" style="fill:#E8D959; fill-opacity:1.0;  stroke:#E8D959; stroke-width:0; stroke-opacity:1;  stroke-linecap:round; stroke-linejoin:round;fill-rule:evenodd;" /> 
<path d="M 36023.6,27037.4 34645.7,27037.4 34645.7,26899.6 36023.6,26899.6 Z" style="fill:#E8D959; fill-opacity:1.0;  stroke:#E8D959; stroke-width:0; stroke-opacity:1;  stroke-linecap:round; stroke-linejoin:round;fill-rule:evenodd;" /> 
<path d="M 36023.6,26840.6 34645.7,26840.6 34645.7,26702.8 36023.6,26702.8 Z" style="fill:#E8D959; fill-opacity:1.0;  stroke:#E8D959; stroke-width:0; stroke-opacity:1;  stroke-linecap:round; stroke-linejoin:round;fill-rule:evenodd;" /> 
<path d="M 36023.6,26643.7 34645.7,26643.7 34645.7,26505.9 36023.6,26505.9 Z" style="fill:#E8D959; fill-opacity:1.0;  stroke:#E8D959; stroke-width:0; stroke-opacity:1;  stroke-linecap:round; stroke-linejoin:round;fill-rule:evenodd;" /> 
<path d="M 36023.6,26446.9 34645.7,26446.9 34645.7,26309.1 36023.6,26309.1 Z" style="fill:#E8D959; fill-opacity:1.0;  stroke:#E8D959; stroke-width:0; stroke-opacity:1;  stroke-linecap:round; stroke-linejoin:round;fill-rule:evenodd;" /> 
<path d="M 36023.6,26250 34645.7,26250 34645.7,26112.2 36023.6,26112.2 Z" style="fill:#E8D959; fill-opacity:1.0;  stroke:#E8D959; stroke-width:0; stroke-opacity:1;  stroke-linecap:round; stroke-linejoin:round;fill-rule:evenodd;" /> 
<path d="M 36023.6,26053.1 34645.7,26053.1 34645.7,25915.4 36023.6,25915.4 Z" style="fill:#E8D959; fill-opacity:1.0;  stroke:#E8D959; stroke-width:0; stroke-opacity:1;  stroke-linecap:round; stroke-linejoin:round;fill-rule:evenodd;" /> 
<path d="M 36023.6,25856.3 34645.7,25856.3 34645.7,25718.5 36023.6,25718.5 Z" style="fill:#E8D959; fill-opacity:1.0;  stroke:#E8D959; stroke-width:0; stroke-opacity:1;  stroke-linecap:round; stroke-linejoin:round;fill-rule:evenodd;" /> 
</g>
<g style="stroke:#E8D959;">
</g>
<g style="stroke:#E8D959;">
</g>
<g style="stroke:#E8D959;">
</g>
<g style="stroke:#E8D959;">
</g>
<g style="stroke:#E8D959;">
</g>
<g style="fill:#E8D959; fill-opacity:1.0;  stroke:#E8D959; stroke-width:0; stroke-opacity:1;  stroke-linecap:round; stroke-linejoin:round;">
<circle cx="43897.6" cy="25000" r="157.48" style="stroke:#E8D959;" /> 
</g>
<g style="fill:#E8D959; fill-opacity:1.0;  stroke:#E8D959; stroke-width:137.795; stroke-opacity:1;  stroke-linecap:round; stroke-linejoin:round;">
</g>
<g style="fill:#E8D959; fill-opacity:1.0;  stroke:#E8D959; stroke-width:0; stroke-opacity:1;  stroke-linecap:round; stroke-linejoin:round;">
<circle cx="43897.6" cy="25590.6" r="157.48" style="stroke:#E8D959;" /> 
</g>
<g style="fill:#E8D959; fill-opacity:1.0;  stroke:#E8D959; stroke-width:137.795; stroke-opacity:1;  stroke-linecap:round; stroke-linejoin:round;">
</g>
<g style="fill:#E8D959; fill-opacity:1.0;  stroke:#E8D959; stroke-width:0; stroke-opacity:1;  stroke-linecap:round; stroke-linejoin:round;">
<circle cx="43897.6" cy="26574.8" r="157.48" style="stroke:#E8D959;" /> 
</g>
<g style="fill:#E8D959; fill-opacity:1.0;  stroke:#E8D959; stroke-width:137.795; stroke-opacity:1;  stroke-linecap:round; stroke-linejoin:round;">
</g>
<g style="fill:#E8D959; fill-opacity:1.0;  stroke:#E8D959; stroke-width:0; stroke-opacity:1;  stroke-linecap:round; stroke-linejoin:round;">
<circle cx="43897.6" cy="28149.6" r="157.48" style="stroke:#E8D959;" /> 
</g>
<g style="fill:#E8D959; fill-opacity:1.0;  stroke:#E8D959; stroke-width:137.795; stroke-opacity:1;  stroke-linecap:round; stroke-linejoin:round;">
</g>
<g style="stroke:#E8D959;">
</g>
<g style="fill:#E8D959; fill-opacity:1.0;  stroke:#E8D959; stroke-width:137.795; stroke-opacity:1;  stroke-linecap:round; stroke-linejoin:round;">
</g>
<g style="fill:#E8D959; fill-opacity:1.0;  stroke:#E8D959; stroke-width:60; stroke-opacity:1;  stroke-linecap:round; stroke-linejoin:round;">
</g>
<g style="fill:#E8D959; fill-opacity:0.0;  stroke:#E8D959; stroke-width:60; stroke-opacity:1;  stroke-linecap:round; stroke-linejoin:round;">
<path d="M43897 25000 L43700 24803 " style="stroke:#E8D959;" />
<path d="M43700 24803 L42224 24803 " style="stroke:#E8D959;" />
<path d="M42224 24803 L41043 25984 " style="stroke:#E8D959;" />
<path d="M41043 25984 L35334 25984 " style="stroke:#E8D959;" />
<path d="M43110 26377 L35334 26377 " style="stroke:#E8D959;" />
<path d="M43897 25590 L43110 26377 " style="stroke:#E8D959;" />
<path d="M43208 26771 L35334 26771 " style="stroke:#E8D959;" />
<path d="M43405 26574 L43208 26771 " style="stroke:#E8D959;" />
<path d="M43897 26574 L43405 26574 " style="stroke:#E8D959;" />
<path d="M41043 27165 L35334 27165 " style="stroke:#E8D959;" />
<path d="M43897 28149 L43700 28346 " style="stroke:#E8D959;" />
<path d="M42224 28346 L41043 27165 " style="stroke:#E8D959;" />
<path d="M43700 28346 L42224 28346 " style="stroke:#E8D959;" />
</g>
<g style="stroke:#E8D959;">
</g>
<g style="fill:#E8D959; fill-opacity:0.0;  stroke:#E8D959; stroke-width:60; stroke-opacity:1;  stroke-linecap:round; stroke-linejoin:round;">
</g>
<g style="fill:#E8D959; fill-opacity:1.0;  stroke:#E8D959; stroke-width:0; stroke-opacity:1;  stroke-linecap:round; stroke-linejoin:round;">
<circle cx="43897.6" cy="25000" r="78.7402" style="stroke:#E8D959;" /> 
</g>
<g style="fill:#E8D959; fill-opacity:1.0;  stroke:#E8D959; stroke-width:137.795; stroke-opacity:1;  stroke-linecap:round; stroke-linejoin:round;">
</g>
<g style="fill:#E8D959; fill-opacity:1.0;  stroke:#E8D959; stroke-width:0; stroke-opacity:1;  stroke-linecap:round; stroke-linejoin:round;">
<circle cx="43897.6" cy="25590.6" r="78.7402" style="stroke:#E8D959;" /> 
</g>
<g style="fill:#E8D959; fill-opacity:1.0;  stroke:#E8D959; stroke-width:137.795; stroke-opacity:1;  stroke-linecap:round; stroke-linejoin:round;">
</g>
<g style="fill:#E8D959; fill-opacity:1.0;  stroke:#E8D959; stroke-width:0; stroke-opacity:1;  stroke-linecap:round; stroke-linejoin:round;">
<circle cx="43897.6" cy="26574.8" r="78.7402" style="stroke:#E8D959;" /> 
</g>
<g style="fill:#E8D959; fill-opacity:1.0;  stroke:#E8D959; stroke-width:137.795; stroke-opacity:1;  stroke-linecap:round; stroke-linejoin:round;">
</g>
<g style="fill:#E8D959; fill-opacity:1.0;  stroke:#E8D959; stroke-width:0; stroke-opacity:1;  stroke-linecap:round; stroke-linejoin:round;">
<circle cx="43897.6" cy="28149.6" r="78.7402" style="stroke:#E8D959;" /> 
</g>
<g style="fill:#E8D959; fill-opacity:1.0;  stroke:#E8D959; stroke-width:137.795; stroke-opacity:1;  stroke-linecap:round; stroke-linejoin:round;">
</g>
<g style="fill:#E8D959; fill-opacity:1.0;  stroke:#E8D959; stroke-width:0; stroke-opacity:1;  stroke-linecap:round; stroke-linejoin:round;">
<circle cx="42937" cy="25393.7" r="413.386" style="stroke:#E8D959;" /> 
</g>
<g style="fill:#E8D959; fill-opacity:1.0;  stroke:#E8D959; stroke-width:137.795; stroke-opacity:1;  stroke-linecap:round; stroke-linejoin:round;">
</g>
<g style="fill:#E8D959; fill-opacity:1.0;  stroke:#E8D959; stroke-width:0; stroke-opacity:1;  stroke-linecap:round; stroke-linejoin:round;">
<circle cx="42937" cy="27755.9" r="413.386" style="stroke:#E8D959;" /> 
</g>
<g style="fill:#E8D959; fill-opacity:1.0;  stroke:#E8D959; stroke-width:137.795; stroke-opacity:1;  stroke-linecap:round; stroke-linejoin:round;">
</g>
<g style="fill:#E8D959; fill-opacity:1.0;  stroke:#E8D959; stroke-width:0; stroke-opacity:1;  stroke-linecap:round; stroke-linejoin:round;">
<circle cx="44803.1" cy="25393.7" r="413.386" style="stroke:#E8D959;" /> 
</g>
<g style="fill:#E8D959; fill-opacity:1.0;  stroke:#E8D959; stroke-width:137.795; stroke-opacity:1;  stroke-linecap:round; stroke-linejoin:round;">
</g>
<g style="fill:#E8D959; fill-opacity:1.0;  stroke:#E8D959; stroke-width:0; stroke-opacity:1;  stroke-linecap:round; stroke-linejoin:round;">
<circle cx="44803.1" cy="27755.9" r="413.386" style="stroke:#E8D959;" /> 
</g>
<g style="fill:#E8D959; fill-opacity:1.0;  stroke:#E8D959; stroke-width:137.795; stroke-opacity:1;  stroke-linecap:round; stroke-linejoin:round;">
</g>
<g style="fill:#E8D959; fill-opacity:1.0;  stroke:#E8D959; stroke-width:137.795; stroke-opacity:1;  stroke-linecap:round; stroke-linejoin:round;">
</g> 
</g></g><g mask="url(#test-a);" style="fill:#3a0e97; fill-opacity:0.75;"><rect height="4350" width="30728" x="34635" y="24399" /></g><g style="fill:#9E9E9E; fill-opacity:1.0;"><g height="4350" style="fill:#9E9E9E; fill-opacity:1.0; stroke:#9E9E9E; stroke-opacity:1.0;" width="30728" x="34635" y="24399"><g style="fill:#9E9E9E; fill-opacity:1;stroke:#9E9E9E; stroke-opacity:1; stroke-linecap:round; stroke-linejoin:round; " transform="translate(0 0) scale(1 1)">
</g>
<g style="fill:#9E9E9E; fill-opacity:0.0;  stroke:#9E9E9E; stroke-width:-0.000393701; stroke-opacity:1;  stroke-linecap:round; stroke-linejoin:round;">
<g style="stroke:#9E9E9E;">
</g>
<g style="stroke:#9E9E9E;">
</g>
<g style="stroke:#9E9E9E;">
</g>
<g style="stroke:#9E9E9E;">
</g>
<g style="stroke:#9E9E9E;">
</g>
<g style="stroke:#9E9E9E;">
</g>
<g style="stroke:#9E9E9E;">
</g>
<g style="stroke:#9E9E9E;">
</g>
<g style="stroke:#9E9E9E;">
</g>
<g style="stroke:#9E9E9E;">
</g>
<g style="stroke:#9E9E9E;">
</g>
<g style="stroke:#9E9E9E;">
</g>
</g> 
<g style="stroke:#9E9E9E;">
</g>
<g style="stroke:#9E9E9E;">
</g>
<g style="stroke:#9E9E9E;">
</g>
<g style="stroke:#9E9E9E;">
</g>
<g style="stroke:#9E9E9E;">
</g>
<g style="stroke:#9E9E9E;">
</g>
<g style="stroke:#9E9E9E;">
</g>
<g style="stroke:#9E9E9E;">
</g>
<g style="stroke:#9E9E9E;">
</g>
<g style="stroke:#9E9E9E;">
</g>
<g style="stroke:#9E9E9E;">
</g>
<g style="stroke:#9E9E9E;">
</g>
</g></g><g style="fill:#d8dae7; fill-opacity:1.0;"><g height="4350" style="fill:#d8dae7; fill-opacity:1.0; stroke:#d8dae7; stroke-opacity:1.0;" width="30728" x="34635" y="24399"><g style="fill:#d8dae7; fill-opacity:1;stroke:#d8dae7; stroke-opacity:1; stroke-linecap:round; stroke-linejoin:round; " transform="translate(0 0) scale(1 1)">
</g>
<g style="fill:#d8dae7; fill-opacity:0.0;  stroke:#d8dae7; stroke-width:-0.000393701; stroke-opacity:1;  stroke-linecap:round; stroke-linejoin:round;">
</g>
<g style="fill:#d8dae7; fill-opacity:0.0;  stroke:#d8dae7; stroke-width:47.2441; stroke-opacity:1;  stroke-linecap:round; stroke-linejoin:round;">
<path d="M34645 27440 L34645 25708 " style="stroke:#d8dae7;" />
<path d="M34763 27559 L35039 27559 " style="stroke:#d8dae7;" />
<path d="M34763 25590 L35039 25590 " style="stroke:#d8dae7;" />
<path d="M35095 27582 L35236 27775 " style="stroke:#d8dae7;" />
<path d="M35095 25567 L35236 25374 " style="stroke:#d8dae7;" />
<path d="M35236 27775 L35433 27775 " style="stroke:#d8dae7;" />
<path d="M35236 25374 L35433 25374 " style="stroke:#d8dae7;" />
<path d="M35511 27696 L35511 27637 " style="stroke:#d8dae7;" />
<path d="M35511 25452 L35511 25511 " style="stroke:#d8dae7;" />
<path d="M35590 27559 L36023 27559 " style="stroke:#d8dae7;" />
<path d="M36023 27559 L36023 25590 " style="stroke:#d8dae7;" />
<path d="M36023 25590 L35590 25590 " style="stroke:#d8dae7;" />
<path d="M35433.1 27775.6 A78.7402 78.7402 0.0 0 0 35511.8 27696.9 " style="stroke:#d8dae7;" />
<path d="M35590.6 27559.1 A78.7402 78.7402 0.0 0 0 35511.8 27637.8 " style="stroke:#d8dae7;" />
<path d="M35511.8 25511.8 A78.7402 78.7402 0.0 0 0 35590.6 25590.6 " style="stroke:#d8dae7;" />
<path d="M35511.8 25452.8 A78.7402 78.7402 0.0 0 0 35433.1 25374 " style="stroke:#d8dae7;" />
<path d="M35039.4 25590.6 A78.7402 78.7402 0.0 0 0 35095 25567.5 " style="stroke:#d8dae7;" />
<path d="M35095 27582.1 A78.7402 78.7402 0.0 0 0 35039.4 27559.1 " style="stroke:#d8dae7;" />
<path d="M34645.7 27440.9 A118.11 118.11 0.0 0 0 34763.8 27559.1 " style="stroke:#d8dae7;" />
<path d="M34763.8 25590.6 A118.11 118.11 0.0 0 0 34645.7 25708.7 " style="stroke:#d8dae7;" />
<g style="stroke:#d8dae7;">
</g>
</g> 
<g style="stroke:#d8dae7;">
</g>
</g></g><g style="fill:#000000; fill-opacity:1.0;"><g height="4350" style="fill:#000000; fill-opacity:1.0; stroke:#000000; stroke-opacity:1.0;" width="30728" x="34635" y="24399"><g style="fill:#000000; fill-opacity:1;stroke:#000000; stroke-opacity:1; stroke-linecap:round; stroke-linejoin:round; " transform="translate(0 0) scale(1 1)">
</g>
<g style="fill:#000000; fill-opacity:0.0;  stroke:#000000; stroke-width:-0.000393701; stroke-opacity:1;  stroke-linecap:round; stroke-linejoin:round;">
</g>
<g style="fill:#000000; fill-opacity:0.0;  stroke:#000000; stroke-width:19.685; stroke-opacity:1;  stroke-linecap:round; stroke-linejoin:round;">
<path d="M45669 24409 L42070 24409 " style="stroke:#000000;" />
<path d="M39708 27559 L36220 27559 " style="stroke:#000000;" />
<path d="M39708 25590 L36220 25590 " style="stroke:#000000;" />
<path d="M36023 27559 L36220 27559 " style="stroke:#000000;" />
<path d="M42070 28740 L39708 27559 " style="stroke:#000000;" />
<path d="M42070 24409 L39708 25590 " style="stroke:#000000;" />
<path d="M45669 28740 L42070 28740 " style="stroke:#000000;" />
<path d="M36023 25590 L36220 25590 " style="stroke:#000000;" />
<path d="M34645 27440 L34645 25708 " style="stroke:#000000;" />
<path d="M35511.8 25511.8 A78.7402 78.7402 0.0 0 0 35590.6 25590.6 " style="stroke:#000000;" />
<path d="M35511.8 25452.8 A78.7402 78.7402 0.0 0 0 35433.1 25374 " style="stroke:#000000;" />
<path d="M35039.4 25590.6 A78.7402 78.7402 0.0 0 0 35103.4 25557.6 " style="stroke:#000000;" />
<path d="M35590.6 27559.1 A78.7402 78.7402 0.0 0 0 35512.4 27628 " style="stroke:#000000;" />
<path d="M35433.1 27775.6 A78.7402 78.7402 0.0 0 0 35511.8 27696.9 " style="stroke:#000000;" />
<path d="M35108.3 27598.4 A79.3528 79.3528 0.0 0 0 35039.4 27558.4 " style="stroke:#000000;" />
<path d="M34645.7 27440.3 A118.11 118.11 0.0 0 0 34763.8 27558.4 " style="stroke:#000000;" />
<path d="M34763.8 25590.6 A118.11 118.11 0.0 0 0 34645.7 25708.7 " style="stroke:#000000;" />
<path d="M34763 25590 L35039 25590 " style="stroke:#000000;" />
<path d="M35236 25374 L35103 25557 " style="stroke:#000000;" />
<path d="M35433 25374 L35236 25374 " style="stroke:#000000;" />
<path d="M35511 25511 L35511 25452 " style="stroke:#000000;" />
<path d="M36023 25590 L35590 25590 " style="stroke:#000000;" />
<path d="M35590 27559 L36023 27559 " style="stroke:#000000;" />
<path d="M35511 27696 L35512 27628 " style="stroke:#000000;" />
<path d="M35236 27775 L35433 27775 " style="stroke:#000000;" />
<path d="M35236 27775 L35108 27598 " style="stroke:#000000;" />
<path d="M34763 27558 L35039 27558 " style="stroke:#000000;" />
<path d="M64960.6 28740.2 A393.701 393.701 0.0 0 0 65354.3 28346.5 " style="stroke:#000000;" />
<path d="M65354.3 24803.1 A393.701 393.701 0.0 0 0 64960.6 24409.4 " style="stroke:#000000;" />
<path d="M64960 24409 L45669 24409 " style="stroke:#000000;" />
<path d="M65354 28346 L65354 24803 " style="stroke:#000000;" />
<path d="M45669 28740 L64960 28740 " style="stroke:#000000;" />
<g style="stroke:#000000;">
</g>
<g style="stroke:#000000;">
</g>
<g style="stroke:#000000;">
</g>
<g style="stroke:#000000;">
</g>
<g style="stroke:#000000;">
</g>
<g style="stroke:#000000;">
</g>
<g style="stroke:#000000;">
</g>
<g style="stroke:#000000;">
</g>
<g style="stroke:#000000;">
</g>
<g style="stroke:#000000;">
</g>
</g> 
<g style="stroke:#000000;">
</g>
<g style="stroke:#000000;">
</g>
<g style="stroke:#000000;">
</g>
<g style="stroke:#000000;">
</g>
<g style="stroke:#000000;">
</g>
<g style="stroke:#000000;">
</g>
<g style="stroke:#000000;">
</g>
<g style="stroke:#000000;">
</g>
<g style="stroke:#000000;">
</g>
<g style="stroke:#000000;">
</g>
</g></g><g id="hole-mask" mask="url(#boardMask);"><g style="opacity:0.8;"><polyline points="0 0 -1 0" stroke="black" stroke-linecap="round" stroke-width="0" transform="translate(61673 26574)rotate(-0.0)" /><polyline points="0 0 -1 0" stroke="black" stroke-linecap="round" stroke-width="0" transform="translate(64114 26574)rotate(-0.0)" /><polyline points="0 0 -1 0" stroke="black" stroke-linecap="round" stroke-width="0" transform="translate(56751 26574)rotate(-0.0)" /><polyline points="0 0 -1 0" stroke="black" stroke-linecap="round" stroke-width="0" transform="translate(59192 26574)rotate(-0.0)" /><polyline points="0 0 -1 0" stroke="black" stroke-linecap="round" stroke-width="0" transform="translate(51830 26574)rotate(-0.0)" /><polyline points="0 0 -1 0" stroke="black" stroke-linecap="round" stroke-width="0" transform="translate(54271 26574)rotate(-0.0)" /><polyline points="0 0 -1 0" stroke="black" stroke-linecap="round" stroke-width="0" transform="translate(46909 26574)rotate(-0.0)" /><polyline points="0 0 -1 0" stroke="black" stroke-linecap="round" stroke-width="0" transform="translate(49350 26574)rotate(-0.0)" /><polyline points="0 0 -1 0" stroke="black" stroke-linecap="round" stroke-width="0" transform="translate(35334 27362)rotate(-90.0)" /><polyline points="0 0 -1 0" stroke="black" stroke-linecap="round" stroke-width="0" transform="translate(35334 27165)rotate(-90.0)" /><polyline points="0 0 -1 0" stroke="black" stroke-linecap="round" stroke-width="0" transform="translate(35334 26968)rotate(-90.0)" /><polyline points="0 0 -1 0" stroke="black" stroke-linecap="round" stroke-width="0" transform="translate(35334 26771)rotate(-90.0)" /><polyline points="0 0 -1 0" stroke="black" stroke-linecap="round" stroke-width="0" transform="translate(35334 26574)rotate(-90.0)" /><polyline points="0 0 -1 0" stroke="black" stroke-linecap="round" stroke-width="0" transform="translate(35334 26377)rotate(-90.0)" /><polyline points="0 0 -1 0" stroke="black" stroke-linecap="round" stroke-width="0" transform="translate(35334 26181)rotate(-90.0)" /><polyline points="0 0 -1 0" stroke="black" stroke-linecap="round" stroke-width="0" transform="translate(35334 25984)rotate(-90.0)" /><polyline points="0 0 -1 0" stroke="black" stroke-linecap="round" stroke-width="0" transform="translate(35334 25787)rotate(-90.0)" /><polyline points="0 0 -1 0" stroke="black" stroke-linecap="round" stroke-width="826" transform="translate(42937 25393)rotate(-0.0)" /><polyline points="0 0 -1 0" stroke="black" stroke-linecap="round" stroke-width="826" transform="translate(42937 27755)rotate(-0.0)" /><polyline points="0 0 -1 0" stroke="black" stroke-linecap="round" stroke-width="826" transform="translate(44803 25393)rotate(-0.0)" /><polyline points="0 0 -1 0" stroke="black" stroke-linecap="round" stroke-width="826" transform="translate(44803 27755)rotate(-0.0)" /><polyline points="0 -1 0 0" stroke="black" stroke-linecap="round" stroke-width="157" transform="translate(43897 25000)" /><polyline points="0 -1 0 0" stroke="black" stroke-linecap="round" stroke-width="157" transform="translate(43897 25590)" /><polyline points="0 -1 0 0" stroke="black" stroke-linecap="round" stroke-width="157" transform="translate(43897 26574)" /><polyline points="0 -1 0 0" stroke="black" stroke-linecap="round" stroke-width="157" transform="translate(43897 28149)" /></g></g></svg>