G04 #@! TF.GenerationSoftware,KiCad,Pcbnew,(5.1.5-0-10_14)*
G04 #@! TF.CreationDate,2020-08-22T00:12:21-07:00*
G04 #@! TF.ProjectId,Sense_board,57726973-745f-4536-956e-73655f626f61,rev?*
G04 #@! TF.SameCoordinates,Original*
G04 #@! TF.FileFunction,Soldermask,Top*
G04 #@! TF.FilePolarity,Negative*
%FSLAX46Y46*%
G04 Gerber Fmt 4.6, Leading zero omitted, Abs format (unit mm)*
G04 Created by KiCad (PCBNEW (5.1.5-0-10_14)) date 2020-08-22 00:12:21*
%MOMM*%
%LPD*%
G04 APERTURE LIST*
%ADD10R,1.601600X0.551600*%
%ADD11R,1.551600X0.551600*%
%ADD12C,0.100000*%
%ADD13R,1.801600X1.001600*%
%ADD14R,1.161600X0.751600*%
%ADD15R,1.601600X2.001600*%
%ADD16C,1.551600*%
%ADD17R,0.501600X1.451600*%
%ADD18O,1.301600X2.001600*%
%ADD19R,1.301600X2.001600*%
%ADD20C,3.901600*%
%ADD21R,2.101600X1.401600*%
%ADD22R,0.401600X1.101600*%
G04 APERTURE END LIST*
D10*
X116050000Y-54425000D03*
X116050000Y-55075000D03*
X116050000Y-55725000D03*
X116050000Y-56375000D03*
X116050000Y-57025000D03*
X116050000Y-57675000D03*
X116050000Y-58325000D03*
X116050000Y-58975000D03*
X121950000Y-58975000D03*
X121950000Y-58325000D03*
X121950000Y-57675000D03*
X121950000Y-57025000D03*
X121950000Y-56375000D03*
X121950000Y-55725000D03*
X121950000Y-55075000D03*
X121950000Y-54425000D03*
D11*
X110300000Y-50375000D03*
X110300000Y-51025000D03*
X110300000Y-51675000D03*
X110300000Y-52325000D03*
X110300000Y-52975000D03*
X110300000Y-53625000D03*
X110300000Y-54275000D03*
X110300000Y-54925000D03*
X110300000Y-55575000D03*
X110300000Y-56225000D03*
X104400000Y-56225000D03*
X104400000Y-55575000D03*
X104400000Y-54925000D03*
X104400000Y-54275000D03*
X104400000Y-53625000D03*
X104400000Y-52975000D03*
X104400000Y-52325000D03*
X104400000Y-51675000D03*
X104400000Y-51025000D03*
X104400000Y-50375000D03*
D12*
G36*
X114005581Y-51675376D02*
G01*
X114029281Y-51678891D01*
X114052523Y-51684713D01*
X114075082Y-51692785D01*
X114096742Y-51703029D01*
X114117292Y-51715347D01*
X114136537Y-51729619D01*
X114154290Y-51745710D01*
X114170381Y-51763463D01*
X114184653Y-51782708D01*
X114196971Y-51803258D01*
X114207215Y-51824918D01*
X114215287Y-51847477D01*
X114221109Y-51870719D01*
X114224624Y-51894419D01*
X114225800Y-51918350D01*
X114225800Y-52406650D01*
X114224624Y-52430581D01*
X114221109Y-52454281D01*
X114215287Y-52477523D01*
X114207215Y-52500082D01*
X114196971Y-52521742D01*
X114184653Y-52542292D01*
X114170381Y-52561537D01*
X114154290Y-52579290D01*
X114136537Y-52595381D01*
X114117292Y-52609653D01*
X114096742Y-52621971D01*
X114075082Y-52632215D01*
X114052523Y-52640287D01*
X114029281Y-52646109D01*
X114005581Y-52649624D01*
X113981650Y-52650800D01*
X113418350Y-52650800D01*
X113394419Y-52649624D01*
X113370719Y-52646109D01*
X113347477Y-52640287D01*
X113324918Y-52632215D01*
X113303258Y-52621971D01*
X113282708Y-52609653D01*
X113263463Y-52595381D01*
X113245710Y-52579290D01*
X113229619Y-52561537D01*
X113215347Y-52542292D01*
X113203029Y-52521742D01*
X113192785Y-52500082D01*
X113184713Y-52477523D01*
X113178891Y-52454281D01*
X113175376Y-52430581D01*
X113174200Y-52406650D01*
X113174200Y-51918350D01*
X113175376Y-51894419D01*
X113178891Y-51870719D01*
X113184713Y-51847477D01*
X113192785Y-51824918D01*
X113203029Y-51803258D01*
X113215347Y-51782708D01*
X113229619Y-51763463D01*
X113245710Y-51745710D01*
X113263463Y-51729619D01*
X113282708Y-51715347D01*
X113303258Y-51703029D01*
X113324918Y-51692785D01*
X113347477Y-51684713D01*
X113370719Y-51678891D01*
X113394419Y-51675376D01*
X113418350Y-51674200D01*
X113981650Y-51674200D01*
X114005581Y-51675376D01*
G37*
G36*
X114005581Y-53250376D02*
G01*
X114029281Y-53253891D01*
X114052523Y-53259713D01*
X114075082Y-53267785D01*
X114096742Y-53278029D01*
X114117292Y-53290347D01*
X114136537Y-53304619D01*
X114154290Y-53320710D01*
X114170381Y-53338463D01*
X114184653Y-53357708D01*
X114196971Y-53378258D01*
X114207215Y-53399918D01*
X114215287Y-53422477D01*
X114221109Y-53445719D01*
X114224624Y-53469419D01*
X114225800Y-53493350D01*
X114225800Y-53981650D01*
X114224624Y-54005581D01*
X114221109Y-54029281D01*
X114215287Y-54052523D01*
X114207215Y-54075082D01*
X114196971Y-54096742D01*
X114184653Y-54117292D01*
X114170381Y-54136537D01*
X114154290Y-54154290D01*
X114136537Y-54170381D01*
X114117292Y-54184653D01*
X114096742Y-54196971D01*
X114075082Y-54207215D01*
X114052523Y-54215287D01*
X114029281Y-54221109D01*
X114005581Y-54224624D01*
X113981650Y-54225800D01*
X113418350Y-54225800D01*
X113394419Y-54224624D01*
X113370719Y-54221109D01*
X113347477Y-54215287D01*
X113324918Y-54207215D01*
X113303258Y-54196971D01*
X113282708Y-54184653D01*
X113263463Y-54170381D01*
X113245710Y-54154290D01*
X113229619Y-54136537D01*
X113215347Y-54117292D01*
X113203029Y-54096742D01*
X113192785Y-54075082D01*
X113184713Y-54052523D01*
X113178891Y-54029281D01*
X113175376Y-54005581D01*
X113174200Y-53981650D01*
X113174200Y-53493350D01*
X113175376Y-53469419D01*
X113178891Y-53445719D01*
X113184713Y-53422477D01*
X113192785Y-53399918D01*
X113203029Y-53378258D01*
X113215347Y-53357708D01*
X113229619Y-53338463D01*
X113245710Y-53320710D01*
X113263463Y-53304619D01*
X113282708Y-53290347D01*
X113303258Y-53278029D01*
X113324918Y-53267785D01*
X113347477Y-53259713D01*
X113370719Y-53253891D01*
X113394419Y-53250376D01*
X113418350Y-53249200D01*
X113981650Y-53249200D01*
X114005581Y-53250376D01*
G37*
G36*
X101405581Y-50225376D02*
G01*
X101429281Y-50228891D01*
X101452523Y-50234713D01*
X101475082Y-50242785D01*
X101496742Y-50253029D01*
X101517292Y-50265347D01*
X101536537Y-50279619D01*
X101554290Y-50295710D01*
X101570381Y-50313463D01*
X101584653Y-50332708D01*
X101596971Y-50353258D01*
X101607215Y-50374918D01*
X101615287Y-50397477D01*
X101621109Y-50420719D01*
X101624624Y-50444419D01*
X101625800Y-50468350D01*
X101625800Y-50956650D01*
X101624624Y-50980581D01*
X101621109Y-51004281D01*
X101615287Y-51027523D01*
X101607215Y-51050082D01*
X101596971Y-51071742D01*
X101584653Y-51092292D01*
X101570381Y-51111537D01*
X101554290Y-51129290D01*
X101536537Y-51145381D01*
X101517292Y-51159653D01*
X101496742Y-51171971D01*
X101475082Y-51182215D01*
X101452523Y-51190287D01*
X101429281Y-51196109D01*
X101405581Y-51199624D01*
X101381650Y-51200800D01*
X100818350Y-51200800D01*
X100794419Y-51199624D01*
X100770719Y-51196109D01*
X100747477Y-51190287D01*
X100724918Y-51182215D01*
X100703258Y-51171971D01*
X100682708Y-51159653D01*
X100663463Y-51145381D01*
X100645710Y-51129290D01*
X100629619Y-51111537D01*
X100615347Y-51092292D01*
X100603029Y-51071742D01*
X100592785Y-51050082D01*
X100584713Y-51027523D01*
X100578891Y-51004281D01*
X100575376Y-50980581D01*
X100574200Y-50956650D01*
X100574200Y-50468350D01*
X100575376Y-50444419D01*
X100578891Y-50420719D01*
X100584713Y-50397477D01*
X100592785Y-50374918D01*
X100603029Y-50353258D01*
X100615347Y-50332708D01*
X100629619Y-50313463D01*
X100645710Y-50295710D01*
X100663463Y-50279619D01*
X100682708Y-50265347D01*
X100703258Y-50253029D01*
X100724918Y-50242785D01*
X100747477Y-50234713D01*
X100770719Y-50228891D01*
X100794419Y-50225376D01*
X100818350Y-50224200D01*
X101381650Y-50224200D01*
X101405581Y-50225376D01*
G37*
G36*
X101405581Y-51800376D02*
G01*
X101429281Y-51803891D01*
X101452523Y-51809713D01*
X101475082Y-51817785D01*
X101496742Y-51828029D01*
X101517292Y-51840347D01*
X101536537Y-51854619D01*
X101554290Y-51870710D01*
X101570381Y-51888463D01*
X101584653Y-51907708D01*
X101596971Y-51928258D01*
X101607215Y-51949918D01*
X101615287Y-51972477D01*
X101621109Y-51995719D01*
X101624624Y-52019419D01*
X101625800Y-52043350D01*
X101625800Y-52531650D01*
X101624624Y-52555581D01*
X101621109Y-52579281D01*
X101615287Y-52602523D01*
X101607215Y-52625082D01*
X101596971Y-52646742D01*
X101584653Y-52667292D01*
X101570381Y-52686537D01*
X101554290Y-52704290D01*
X101536537Y-52720381D01*
X101517292Y-52734653D01*
X101496742Y-52746971D01*
X101475082Y-52757215D01*
X101452523Y-52765287D01*
X101429281Y-52771109D01*
X101405581Y-52774624D01*
X101381650Y-52775800D01*
X100818350Y-52775800D01*
X100794419Y-52774624D01*
X100770719Y-52771109D01*
X100747477Y-52765287D01*
X100724918Y-52757215D01*
X100703258Y-52746971D01*
X100682708Y-52734653D01*
X100663463Y-52720381D01*
X100645710Y-52704290D01*
X100629619Y-52686537D01*
X100615347Y-52667292D01*
X100603029Y-52646742D01*
X100592785Y-52625082D01*
X100584713Y-52602523D01*
X100578891Y-52579281D01*
X100575376Y-52555581D01*
X100574200Y-52531650D01*
X100574200Y-52043350D01*
X100575376Y-52019419D01*
X100578891Y-51995719D01*
X100584713Y-51972477D01*
X100592785Y-51949918D01*
X100603029Y-51928258D01*
X100615347Y-51907708D01*
X100629619Y-51888463D01*
X100645710Y-51870710D01*
X100663463Y-51854619D01*
X100682708Y-51840347D01*
X100703258Y-51828029D01*
X100724918Y-51817785D01*
X100747477Y-51809713D01*
X100770719Y-51803891D01*
X100794419Y-51800376D01*
X100818350Y-51799200D01*
X101381650Y-51799200D01*
X101405581Y-51800376D01*
G37*
G36*
X120830581Y-47925376D02*
G01*
X120854281Y-47928891D01*
X120877523Y-47934713D01*
X120900082Y-47942785D01*
X120921742Y-47953029D01*
X120942292Y-47965347D01*
X120961537Y-47979619D01*
X120979290Y-47995710D01*
X120995381Y-48013463D01*
X121009653Y-48032708D01*
X121021971Y-48053258D01*
X121032215Y-48074918D01*
X121040287Y-48097477D01*
X121046109Y-48120719D01*
X121049624Y-48144419D01*
X121050800Y-48168350D01*
X121050800Y-48731650D01*
X121049624Y-48755581D01*
X121046109Y-48779281D01*
X121040287Y-48802523D01*
X121032215Y-48825082D01*
X121021971Y-48846742D01*
X121009653Y-48867292D01*
X120995381Y-48886537D01*
X120979290Y-48904290D01*
X120961537Y-48920381D01*
X120942292Y-48934653D01*
X120921742Y-48946971D01*
X120900082Y-48957215D01*
X120877523Y-48965287D01*
X120854281Y-48971109D01*
X120830581Y-48974624D01*
X120806650Y-48975800D01*
X120318350Y-48975800D01*
X120294419Y-48974624D01*
X120270719Y-48971109D01*
X120247477Y-48965287D01*
X120224918Y-48957215D01*
X120203258Y-48946971D01*
X120182708Y-48934653D01*
X120163463Y-48920381D01*
X120145710Y-48904290D01*
X120129619Y-48886537D01*
X120115347Y-48867292D01*
X120103029Y-48846742D01*
X120092785Y-48825082D01*
X120084713Y-48802523D01*
X120078891Y-48779281D01*
X120075376Y-48755581D01*
X120074200Y-48731650D01*
X120074200Y-48168350D01*
X120075376Y-48144419D01*
X120078891Y-48120719D01*
X120084713Y-48097477D01*
X120092785Y-48074918D01*
X120103029Y-48053258D01*
X120115347Y-48032708D01*
X120129619Y-48013463D01*
X120145710Y-47995710D01*
X120163463Y-47979619D01*
X120182708Y-47965347D01*
X120203258Y-47953029D01*
X120224918Y-47942785D01*
X120247477Y-47934713D01*
X120270719Y-47928891D01*
X120294419Y-47925376D01*
X120318350Y-47924200D01*
X120806650Y-47924200D01*
X120830581Y-47925376D01*
G37*
G36*
X122405581Y-47925376D02*
G01*
X122429281Y-47928891D01*
X122452523Y-47934713D01*
X122475082Y-47942785D01*
X122496742Y-47953029D01*
X122517292Y-47965347D01*
X122536537Y-47979619D01*
X122554290Y-47995710D01*
X122570381Y-48013463D01*
X122584653Y-48032708D01*
X122596971Y-48053258D01*
X122607215Y-48074918D01*
X122615287Y-48097477D01*
X122621109Y-48120719D01*
X122624624Y-48144419D01*
X122625800Y-48168350D01*
X122625800Y-48731650D01*
X122624624Y-48755581D01*
X122621109Y-48779281D01*
X122615287Y-48802523D01*
X122607215Y-48825082D01*
X122596971Y-48846742D01*
X122584653Y-48867292D01*
X122570381Y-48886537D01*
X122554290Y-48904290D01*
X122536537Y-48920381D01*
X122517292Y-48934653D01*
X122496742Y-48946971D01*
X122475082Y-48957215D01*
X122452523Y-48965287D01*
X122429281Y-48971109D01*
X122405581Y-48974624D01*
X122381650Y-48975800D01*
X121893350Y-48975800D01*
X121869419Y-48974624D01*
X121845719Y-48971109D01*
X121822477Y-48965287D01*
X121799918Y-48957215D01*
X121778258Y-48946971D01*
X121757708Y-48934653D01*
X121738463Y-48920381D01*
X121720710Y-48904290D01*
X121704619Y-48886537D01*
X121690347Y-48867292D01*
X121678029Y-48846742D01*
X121667785Y-48825082D01*
X121659713Y-48802523D01*
X121653891Y-48779281D01*
X121650376Y-48755581D01*
X121649200Y-48731650D01*
X121649200Y-48168350D01*
X121650376Y-48144419D01*
X121653891Y-48120719D01*
X121659713Y-48097477D01*
X121667785Y-48074918D01*
X121678029Y-48053258D01*
X121690347Y-48032708D01*
X121704619Y-48013463D01*
X121720710Y-47995710D01*
X121738463Y-47979619D01*
X121757708Y-47965347D01*
X121778258Y-47953029D01*
X121799918Y-47942785D01*
X121822477Y-47934713D01*
X121845719Y-47928891D01*
X121869419Y-47925376D01*
X121893350Y-47924200D01*
X122381650Y-47924200D01*
X122405581Y-47925376D01*
G37*
G36*
X112405581Y-52575376D02*
G01*
X112429281Y-52578891D01*
X112452523Y-52584713D01*
X112475082Y-52592785D01*
X112496742Y-52603029D01*
X112517292Y-52615347D01*
X112536537Y-52629619D01*
X112554290Y-52645710D01*
X112570381Y-52663463D01*
X112584653Y-52682708D01*
X112596971Y-52703258D01*
X112607215Y-52724918D01*
X112615287Y-52747477D01*
X112621109Y-52770719D01*
X112624624Y-52794419D01*
X112625800Y-52818350D01*
X112625800Y-53306650D01*
X112624624Y-53330581D01*
X112621109Y-53354281D01*
X112615287Y-53377523D01*
X112607215Y-53400082D01*
X112596971Y-53421742D01*
X112584653Y-53442292D01*
X112570381Y-53461537D01*
X112554290Y-53479290D01*
X112536537Y-53495381D01*
X112517292Y-53509653D01*
X112496742Y-53521971D01*
X112475082Y-53532215D01*
X112452523Y-53540287D01*
X112429281Y-53546109D01*
X112405581Y-53549624D01*
X112381650Y-53550800D01*
X111818350Y-53550800D01*
X111794419Y-53549624D01*
X111770719Y-53546109D01*
X111747477Y-53540287D01*
X111724918Y-53532215D01*
X111703258Y-53521971D01*
X111682708Y-53509653D01*
X111663463Y-53495381D01*
X111645710Y-53479290D01*
X111629619Y-53461537D01*
X111615347Y-53442292D01*
X111603029Y-53421742D01*
X111592785Y-53400082D01*
X111584713Y-53377523D01*
X111578891Y-53354281D01*
X111575376Y-53330581D01*
X111574200Y-53306650D01*
X111574200Y-52818350D01*
X111575376Y-52794419D01*
X111578891Y-52770719D01*
X111584713Y-52747477D01*
X111592785Y-52724918D01*
X111603029Y-52703258D01*
X111615347Y-52682708D01*
X111629619Y-52663463D01*
X111645710Y-52645710D01*
X111663463Y-52629619D01*
X111682708Y-52615347D01*
X111703258Y-52603029D01*
X111724918Y-52592785D01*
X111747477Y-52584713D01*
X111770719Y-52578891D01*
X111794419Y-52575376D01*
X111818350Y-52574200D01*
X112381650Y-52574200D01*
X112405581Y-52575376D01*
G37*
G36*
X112405581Y-54150376D02*
G01*
X112429281Y-54153891D01*
X112452523Y-54159713D01*
X112475082Y-54167785D01*
X112496742Y-54178029D01*
X112517292Y-54190347D01*
X112536537Y-54204619D01*
X112554290Y-54220710D01*
X112570381Y-54238463D01*
X112584653Y-54257708D01*
X112596971Y-54278258D01*
X112607215Y-54299918D01*
X112615287Y-54322477D01*
X112621109Y-54345719D01*
X112624624Y-54369419D01*
X112625800Y-54393350D01*
X112625800Y-54881650D01*
X112624624Y-54905581D01*
X112621109Y-54929281D01*
X112615287Y-54952523D01*
X112607215Y-54975082D01*
X112596971Y-54996742D01*
X112584653Y-55017292D01*
X112570381Y-55036537D01*
X112554290Y-55054290D01*
X112536537Y-55070381D01*
X112517292Y-55084653D01*
X112496742Y-55096971D01*
X112475082Y-55107215D01*
X112452523Y-55115287D01*
X112429281Y-55121109D01*
X112405581Y-55124624D01*
X112381650Y-55125800D01*
X111818350Y-55125800D01*
X111794419Y-55124624D01*
X111770719Y-55121109D01*
X111747477Y-55115287D01*
X111724918Y-55107215D01*
X111703258Y-55096971D01*
X111682708Y-55084653D01*
X111663463Y-55070381D01*
X111645710Y-55054290D01*
X111629619Y-55036537D01*
X111615347Y-55017292D01*
X111603029Y-54996742D01*
X111592785Y-54975082D01*
X111584713Y-54952523D01*
X111578891Y-54929281D01*
X111575376Y-54905581D01*
X111574200Y-54881650D01*
X111574200Y-54393350D01*
X111575376Y-54369419D01*
X111578891Y-54345719D01*
X111584713Y-54322477D01*
X111592785Y-54299918D01*
X111603029Y-54278258D01*
X111615347Y-54257708D01*
X111629619Y-54238463D01*
X111645710Y-54220710D01*
X111663463Y-54204619D01*
X111682708Y-54190347D01*
X111703258Y-54178029D01*
X111724918Y-54167785D01*
X111747477Y-54159713D01*
X111770719Y-54153891D01*
X111794419Y-54150376D01*
X111818350Y-54149200D01*
X112381650Y-54149200D01*
X112405581Y-54150376D01*
G37*
G36*
X102905581Y-52175376D02*
G01*
X102929281Y-52178891D01*
X102952523Y-52184713D01*
X102975082Y-52192785D01*
X102996742Y-52203029D01*
X103017292Y-52215347D01*
X103036537Y-52229619D01*
X103054290Y-52245710D01*
X103070381Y-52263463D01*
X103084653Y-52282708D01*
X103096971Y-52303258D01*
X103107215Y-52324918D01*
X103115287Y-52347477D01*
X103121109Y-52370719D01*
X103124624Y-52394419D01*
X103125800Y-52418350D01*
X103125800Y-52906650D01*
X103124624Y-52930581D01*
X103121109Y-52954281D01*
X103115287Y-52977523D01*
X103107215Y-53000082D01*
X103096971Y-53021742D01*
X103084653Y-53042292D01*
X103070381Y-53061537D01*
X103054290Y-53079290D01*
X103036537Y-53095381D01*
X103017292Y-53109653D01*
X102996742Y-53121971D01*
X102975082Y-53132215D01*
X102952523Y-53140287D01*
X102929281Y-53146109D01*
X102905581Y-53149624D01*
X102881650Y-53150800D01*
X102318350Y-53150800D01*
X102294419Y-53149624D01*
X102270719Y-53146109D01*
X102247477Y-53140287D01*
X102224918Y-53132215D01*
X102203258Y-53121971D01*
X102182708Y-53109653D01*
X102163463Y-53095381D01*
X102145710Y-53079290D01*
X102129619Y-53061537D01*
X102115347Y-53042292D01*
X102103029Y-53021742D01*
X102092785Y-53000082D01*
X102084713Y-52977523D01*
X102078891Y-52954281D01*
X102075376Y-52930581D01*
X102074200Y-52906650D01*
X102074200Y-52418350D01*
X102075376Y-52394419D01*
X102078891Y-52370719D01*
X102084713Y-52347477D01*
X102092785Y-52324918D01*
X102103029Y-52303258D01*
X102115347Y-52282708D01*
X102129619Y-52263463D01*
X102145710Y-52245710D01*
X102163463Y-52229619D01*
X102182708Y-52215347D01*
X102203258Y-52203029D01*
X102224918Y-52192785D01*
X102247477Y-52184713D01*
X102270719Y-52178891D01*
X102294419Y-52175376D01*
X102318350Y-52174200D01*
X102881650Y-52174200D01*
X102905581Y-52175376D01*
G37*
G36*
X102905581Y-53750376D02*
G01*
X102929281Y-53753891D01*
X102952523Y-53759713D01*
X102975082Y-53767785D01*
X102996742Y-53778029D01*
X103017292Y-53790347D01*
X103036537Y-53804619D01*
X103054290Y-53820710D01*
X103070381Y-53838463D01*
X103084653Y-53857708D01*
X103096971Y-53878258D01*
X103107215Y-53899918D01*
X103115287Y-53922477D01*
X103121109Y-53945719D01*
X103124624Y-53969419D01*
X103125800Y-53993350D01*
X103125800Y-54481650D01*
X103124624Y-54505581D01*
X103121109Y-54529281D01*
X103115287Y-54552523D01*
X103107215Y-54575082D01*
X103096971Y-54596742D01*
X103084653Y-54617292D01*
X103070381Y-54636537D01*
X103054290Y-54654290D01*
X103036537Y-54670381D01*
X103017292Y-54684653D01*
X102996742Y-54696971D01*
X102975082Y-54707215D01*
X102952523Y-54715287D01*
X102929281Y-54721109D01*
X102905581Y-54724624D01*
X102881650Y-54725800D01*
X102318350Y-54725800D01*
X102294419Y-54724624D01*
X102270719Y-54721109D01*
X102247477Y-54715287D01*
X102224918Y-54707215D01*
X102203258Y-54696971D01*
X102182708Y-54684653D01*
X102163463Y-54670381D01*
X102145710Y-54654290D01*
X102129619Y-54636537D01*
X102115347Y-54617292D01*
X102103029Y-54596742D01*
X102092785Y-54575082D01*
X102084713Y-54552523D01*
X102078891Y-54529281D01*
X102075376Y-54505581D01*
X102074200Y-54481650D01*
X102074200Y-53993350D01*
X102075376Y-53969419D01*
X102078891Y-53945719D01*
X102084713Y-53922477D01*
X102092785Y-53899918D01*
X102103029Y-53878258D01*
X102115347Y-53857708D01*
X102129619Y-53838463D01*
X102145710Y-53820710D01*
X102163463Y-53804619D01*
X102182708Y-53790347D01*
X102203258Y-53778029D01*
X102224918Y-53767785D01*
X102247477Y-53759713D01*
X102270719Y-53753891D01*
X102294419Y-53750376D01*
X102318350Y-53749200D01*
X102881650Y-53749200D01*
X102905581Y-53750376D01*
G37*
G36*
X122455581Y-50175376D02*
G01*
X122479281Y-50178891D01*
X122502523Y-50184713D01*
X122525082Y-50192785D01*
X122546742Y-50203029D01*
X122567292Y-50215347D01*
X122586537Y-50229619D01*
X122604290Y-50245710D01*
X122620381Y-50263463D01*
X122634653Y-50282708D01*
X122646971Y-50303258D01*
X122657215Y-50324918D01*
X122665287Y-50347477D01*
X122671109Y-50370719D01*
X122674624Y-50394419D01*
X122675800Y-50418350D01*
X122675800Y-50981650D01*
X122674624Y-51005581D01*
X122671109Y-51029281D01*
X122665287Y-51052523D01*
X122657215Y-51075082D01*
X122646971Y-51096742D01*
X122634653Y-51117292D01*
X122620381Y-51136537D01*
X122604290Y-51154290D01*
X122586537Y-51170381D01*
X122567292Y-51184653D01*
X122546742Y-51196971D01*
X122525082Y-51207215D01*
X122502523Y-51215287D01*
X122479281Y-51221109D01*
X122455581Y-51224624D01*
X122431650Y-51225800D01*
X121943350Y-51225800D01*
X121919419Y-51224624D01*
X121895719Y-51221109D01*
X121872477Y-51215287D01*
X121849918Y-51207215D01*
X121828258Y-51196971D01*
X121807708Y-51184653D01*
X121788463Y-51170381D01*
X121770710Y-51154290D01*
X121754619Y-51136537D01*
X121740347Y-51117292D01*
X121728029Y-51096742D01*
X121717785Y-51075082D01*
X121709713Y-51052523D01*
X121703891Y-51029281D01*
X121700376Y-51005581D01*
X121699200Y-50981650D01*
X121699200Y-50418350D01*
X121700376Y-50394419D01*
X121703891Y-50370719D01*
X121709713Y-50347477D01*
X121717785Y-50324918D01*
X121728029Y-50303258D01*
X121740347Y-50282708D01*
X121754619Y-50263463D01*
X121770710Y-50245710D01*
X121788463Y-50229619D01*
X121807708Y-50215347D01*
X121828258Y-50203029D01*
X121849918Y-50192785D01*
X121872477Y-50184713D01*
X121895719Y-50178891D01*
X121919419Y-50175376D01*
X121943350Y-50174200D01*
X122431650Y-50174200D01*
X122455581Y-50175376D01*
G37*
G36*
X120880581Y-50175376D02*
G01*
X120904281Y-50178891D01*
X120927523Y-50184713D01*
X120950082Y-50192785D01*
X120971742Y-50203029D01*
X120992292Y-50215347D01*
X121011537Y-50229619D01*
X121029290Y-50245710D01*
X121045381Y-50263463D01*
X121059653Y-50282708D01*
X121071971Y-50303258D01*
X121082215Y-50324918D01*
X121090287Y-50347477D01*
X121096109Y-50370719D01*
X121099624Y-50394419D01*
X121100800Y-50418350D01*
X121100800Y-50981650D01*
X121099624Y-51005581D01*
X121096109Y-51029281D01*
X121090287Y-51052523D01*
X121082215Y-51075082D01*
X121071971Y-51096742D01*
X121059653Y-51117292D01*
X121045381Y-51136537D01*
X121029290Y-51154290D01*
X121011537Y-51170381D01*
X120992292Y-51184653D01*
X120971742Y-51196971D01*
X120950082Y-51207215D01*
X120927523Y-51215287D01*
X120904281Y-51221109D01*
X120880581Y-51224624D01*
X120856650Y-51225800D01*
X120368350Y-51225800D01*
X120344419Y-51224624D01*
X120320719Y-51221109D01*
X120297477Y-51215287D01*
X120274918Y-51207215D01*
X120253258Y-51196971D01*
X120232708Y-51184653D01*
X120213463Y-51170381D01*
X120195710Y-51154290D01*
X120179619Y-51136537D01*
X120165347Y-51117292D01*
X120153029Y-51096742D01*
X120142785Y-51075082D01*
X120134713Y-51052523D01*
X120128891Y-51029281D01*
X120125376Y-51005581D01*
X120124200Y-50981650D01*
X120124200Y-50418350D01*
X120125376Y-50394419D01*
X120128891Y-50370719D01*
X120134713Y-50347477D01*
X120142785Y-50324918D01*
X120153029Y-50303258D01*
X120165347Y-50282708D01*
X120179619Y-50263463D01*
X120195710Y-50245710D01*
X120213463Y-50229619D01*
X120232708Y-50215347D01*
X120253258Y-50203029D01*
X120274918Y-50192785D01*
X120297477Y-50184713D01*
X120320719Y-50178891D01*
X120344419Y-50175376D01*
X120368350Y-50174200D01*
X120856650Y-50174200D01*
X120880581Y-50175376D01*
G37*
G36*
X120880581Y-51675376D02*
G01*
X120904281Y-51678891D01*
X120927523Y-51684713D01*
X120950082Y-51692785D01*
X120971742Y-51703029D01*
X120992292Y-51715347D01*
X121011537Y-51729619D01*
X121029290Y-51745710D01*
X121045381Y-51763463D01*
X121059653Y-51782708D01*
X121071971Y-51803258D01*
X121082215Y-51824918D01*
X121090287Y-51847477D01*
X121096109Y-51870719D01*
X121099624Y-51894419D01*
X121100800Y-51918350D01*
X121100800Y-52481650D01*
X121099624Y-52505581D01*
X121096109Y-52529281D01*
X121090287Y-52552523D01*
X121082215Y-52575082D01*
X121071971Y-52596742D01*
X121059653Y-52617292D01*
X121045381Y-52636537D01*
X121029290Y-52654290D01*
X121011537Y-52670381D01*
X120992292Y-52684653D01*
X120971742Y-52696971D01*
X120950082Y-52707215D01*
X120927523Y-52715287D01*
X120904281Y-52721109D01*
X120880581Y-52724624D01*
X120856650Y-52725800D01*
X120368350Y-52725800D01*
X120344419Y-52724624D01*
X120320719Y-52721109D01*
X120297477Y-52715287D01*
X120274918Y-52707215D01*
X120253258Y-52696971D01*
X120232708Y-52684653D01*
X120213463Y-52670381D01*
X120195710Y-52654290D01*
X120179619Y-52636537D01*
X120165347Y-52617292D01*
X120153029Y-52596742D01*
X120142785Y-52575082D01*
X120134713Y-52552523D01*
X120128891Y-52529281D01*
X120125376Y-52505581D01*
X120124200Y-52481650D01*
X120124200Y-51918350D01*
X120125376Y-51894419D01*
X120128891Y-51870719D01*
X120134713Y-51847477D01*
X120142785Y-51824918D01*
X120153029Y-51803258D01*
X120165347Y-51782708D01*
X120179619Y-51763463D01*
X120195710Y-51745710D01*
X120213463Y-51729619D01*
X120232708Y-51715347D01*
X120253258Y-51703029D01*
X120274918Y-51692785D01*
X120297477Y-51684713D01*
X120320719Y-51678891D01*
X120344419Y-51675376D01*
X120368350Y-51674200D01*
X120856650Y-51674200D01*
X120880581Y-51675376D01*
G37*
G36*
X122455581Y-51675376D02*
G01*
X122479281Y-51678891D01*
X122502523Y-51684713D01*
X122525082Y-51692785D01*
X122546742Y-51703029D01*
X122567292Y-51715347D01*
X122586537Y-51729619D01*
X122604290Y-51745710D01*
X122620381Y-51763463D01*
X122634653Y-51782708D01*
X122646971Y-51803258D01*
X122657215Y-51824918D01*
X122665287Y-51847477D01*
X122671109Y-51870719D01*
X122674624Y-51894419D01*
X122675800Y-51918350D01*
X122675800Y-52481650D01*
X122674624Y-52505581D01*
X122671109Y-52529281D01*
X122665287Y-52552523D01*
X122657215Y-52575082D01*
X122646971Y-52596742D01*
X122634653Y-52617292D01*
X122620381Y-52636537D01*
X122604290Y-52654290D01*
X122586537Y-52670381D01*
X122567292Y-52684653D01*
X122546742Y-52696971D01*
X122525082Y-52707215D01*
X122502523Y-52715287D01*
X122479281Y-52721109D01*
X122455581Y-52724624D01*
X122431650Y-52725800D01*
X121943350Y-52725800D01*
X121919419Y-52724624D01*
X121895719Y-52721109D01*
X121872477Y-52715287D01*
X121849918Y-52707215D01*
X121828258Y-52696971D01*
X121807708Y-52684653D01*
X121788463Y-52670381D01*
X121770710Y-52654290D01*
X121754619Y-52636537D01*
X121740347Y-52617292D01*
X121728029Y-52596742D01*
X121717785Y-52575082D01*
X121709713Y-52552523D01*
X121703891Y-52529281D01*
X121700376Y-52505581D01*
X121699200Y-52481650D01*
X121699200Y-51918350D01*
X121700376Y-51894419D01*
X121703891Y-51870719D01*
X121709713Y-51847477D01*
X121717785Y-51824918D01*
X121728029Y-51803258D01*
X121740347Y-51782708D01*
X121754619Y-51763463D01*
X121770710Y-51745710D01*
X121788463Y-51729619D01*
X121807708Y-51715347D01*
X121828258Y-51703029D01*
X121849918Y-51692785D01*
X121872477Y-51684713D01*
X121895719Y-51678891D01*
X121919419Y-51675376D01*
X121943350Y-51674200D01*
X122431650Y-51674200D01*
X122455581Y-51675376D01*
G37*
G36*
X101080581Y-55775376D02*
G01*
X101104281Y-55778891D01*
X101127523Y-55784713D01*
X101150082Y-55792785D01*
X101171742Y-55803029D01*
X101192292Y-55815347D01*
X101211537Y-55829619D01*
X101229290Y-55845710D01*
X101245381Y-55863463D01*
X101259653Y-55882708D01*
X101271971Y-55903258D01*
X101282215Y-55924918D01*
X101290287Y-55947477D01*
X101296109Y-55970719D01*
X101299624Y-55994419D01*
X101300800Y-56018350D01*
X101300800Y-56581650D01*
X101299624Y-56605581D01*
X101296109Y-56629281D01*
X101290287Y-56652523D01*
X101282215Y-56675082D01*
X101271971Y-56696742D01*
X101259653Y-56717292D01*
X101245381Y-56736537D01*
X101229290Y-56754290D01*
X101211537Y-56770381D01*
X101192292Y-56784653D01*
X101171742Y-56796971D01*
X101150082Y-56807215D01*
X101127523Y-56815287D01*
X101104281Y-56821109D01*
X101080581Y-56824624D01*
X101056650Y-56825800D01*
X100568350Y-56825800D01*
X100544419Y-56824624D01*
X100520719Y-56821109D01*
X100497477Y-56815287D01*
X100474918Y-56807215D01*
X100453258Y-56796971D01*
X100432708Y-56784653D01*
X100413463Y-56770381D01*
X100395710Y-56754290D01*
X100379619Y-56736537D01*
X100365347Y-56717292D01*
X100353029Y-56696742D01*
X100342785Y-56675082D01*
X100334713Y-56652523D01*
X100328891Y-56629281D01*
X100325376Y-56605581D01*
X100324200Y-56581650D01*
X100324200Y-56018350D01*
X100325376Y-55994419D01*
X100328891Y-55970719D01*
X100334713Y-55947477D01*
X100342785Y-55924918D01*
X100353029Y-55903258D01*
X100365347Y-55882708D01*
X100379619Y-55863463D01*
X100395710Y-55845710D01*
X100413463Y-55829619D01*
X100432708Y-55815347D01*
X100453258Y-55803029D01*
X100474918Y-55792785D01*
X100497477Y-55784713D01*
X100520719Y-55778891D01*
X100544419Y-55775376D01*
X100568350Y-55774200D01*
X101056650Y-55774200D01*
X101080581Y-55775376D01*
G37*
G36*
X102655581Y-55775376D02*
G01*
X102679281Y-55778891D01*
X102702523Y-55784713D01*
X102725082Y-55792785D01*
X102746742Y-55803029D01*
X102767292Y-55815347D01*
X102786537Y-55829619D01*
X102804290Y-55845710D01*
X102820381Y-55863463D01*
X102834653Y-55882708D01*
X102846971Y-55903258D01*
X102857215Y-55924918D01*
X102865287Y-55947477D01*
X102871109Y-55970719D01*
X102874624Y-55994419D01*
X102875800Y-56018350D01*
X102875800Y-56581650D01*
X102874624Y-56605581D01*
X102871109Y-56629281D01*
X102865287Y-56652523D01*
X102857215Y-56675082D01*
X102846971Y-56696742D01*
X102834653Y-56717292D01*
X102820381Y-56736537D01*
X102804290Y-56754290D01*
X102786537Y-56770381D01*
X102767292Y-56784653D01*
X102746742Y-56796971D01*
X102725082Y-56807215D01*
X102702523Y-56815287D01*
X102679281Y-56821109D01*
X102655581Y-56824624D01*
X102631650Y-56825800D01*
X102143350Y-56825800D01*
X102119419Y-56824624D01*
X102095719Y-56821109D01*
X102072477Y-56815287D01*
X102049918Y-56807215D01*
X102028258Y-56796971D01*
X102007708Y-56784653D01*
X101988463Y-56770381D01*
X101970710Y-56754290D01*
X101954619Y-56736537D01*
X101940347Y-56717292D01*
X101928029Y-56696742D01*
X101917785Y-56675082D01*
X101909713Y-56652523D01*
X101903891Y-56629281D01*
X101900376Y-56605581D01*
X101899200Y-56581650D01*
X101899200Y-56018350D01*
X101900376Y-55994419D01*
X101903891Y-55970719D01*
X101909713Y-55947477D01*
X101917785Y-55924918D01*
X101928029Y-55903258D01*
X101940347Y-55882708D01*
X101954619Y-55863463D01*
X101970710Y-55845710D01*
X101988463Y-55829619D01*
X102007708Y-55815347D01*
X102028258Y-55803029D01*
X102049918Y-55792785D01*
X102072477Y-55784713D01*
X102095719Y-55778891D01*
X102119419Y-55775376D01*
X102143350Y-55774200D01*
X102631650Y-55774200D01*
X102655581Y-55775376D01*
G37*
G36*
X109005581Y-46475376D02*
G01*
X109029281Y-46478891D01*
X109052523Y-46484713D01*
X109075082Y-46492785D01*
X109096742Y-46503029D01*
X109117292Y-46515347D01*
X109136537Y-46529619D01*
X109154290Y-46545710D01*
X109170381Y-46563463D01*
X109184653Y-46582708D01*
X109196971Y-46603258D01*
X109207215Y-46624918D01*
X109215287Y-46647477D01*
X109221109Y-46670719D01*
X109224624Y-46694419D01*
X109225800Y-46718350D01*
X109225800Y-47206650D01*
X109224624Y-47230581D01*
X109221109Y-47254281D01*
X109215287Y-47277523D01*
X109207215Y-47300082D01*
X109196971Y-47321742D01*
X109184653Y-47342292D01*
X109170381Y-47361537D01*
X109154290Y-47379290D01*
X109136537Y-47395381D01*
X109117292Y-47409653D01*
X109096742Y-47421971D01*
X109075082Y-47432215D01*
X109052523Y-47440287D01*
X109029281Y-47446109D01*
X109005581Y-47449624D01*
X108981650Y-47450800D01*
X108418350Y-47450800D01*
X108394419Y-47449624D01*
X108370719Y-47446109D01*
X108347477Y-47440287D01*
X108324918Y-47432215D01*
X108303258Y-47421971D01*
X108282708Y-47409653D01*
X108263463Y-47395381D01*
X108245710Y-47379290D01*
X108229619Y-47361537D01*
X108215347Y-47342292D01*
X108203029Y-47321742D01*
X108192785Y-47300082D01*
X108184713Y-47277523D01*
X108178891Y-47254281D01*
X108175376Y-47230581D01*
X108174200Y-47206650D01*
X108174200Y-46718350D01*
X108175376Y-46694419D01*
X108178891Y-46670719D01*
X108184713Y-46647477D01*
X108192785Y-46624918D01*
X108203029Y-46603258D01*
X108215347Y-46582708D01*
X108229619Y-46563463D01*
X108245710Y-46545710D01*
X108263463Y-46529619D01*
X108282708Y-46515347D01*
X108303258Y-46503029D01*
X108324918Y-46492785D01*
X108347477Y-46484713D01*
X108370719Y-46478891D01*
X108394419Y-46475376D01*
X108418350Y-46474200D01*
X108981650Y-46474200D01*
X109005581Y-46475376D01*
G37*
G36*
X109005581Y-48050376D02*
G01*
X109029281Y-48053891D01*
X109052523Y-48059713D01*
X109075082Y-48067785D01*
X109096742Y-48078029D01*
X109117292Y-48090347D01*
X109136537Y-48104619D01*
X109154290Y-48120710D01*
X109170381Y-48138463D01*
X109184653Y-48157708D01*
X109196971Y-48178258D01*
X109207215Y-48199918D01*
X109215287Y-48222477D01*
X109221109Y-48245719D01*
X109224624Y-48269419D01*
X109225800Y-48293350D01*
X109225800Y-48781650D01*
X109224624Y-48805581D01*
X109221109Y-48829281D01*
X109215287Y-48852523D01*
X109207215Y-48875082D01*
X109196971Y-48896742D01*
X109184653Y-48917292D01*
X109170381Y-48936537D01*
X109154290Y-48954290D01*
X109136537Y-48970381D01*
X109117292Y-48984653D01*
X109096742Y-48996971D01*
X109075082Y-49007215D01*
X109052523Y-49015287D01*
X109029281Y-49021109D01*
X109005581Y-49024624D01*
X108981650Y-49025800D01*
X108418350Y-49025800D01*
X108394419Y-49024624D01*
X108370719Y-49021109D01*
X108347477Y-49015287D01*
X108324918Y-49007215D01*
X108303258Y-48996971D01*
X108282708Y-48984653D01*
X108263463Y-48970381D01*
X108245710Y-48954290D01*
X108229619Y-48936537D01*
X108215347Y-48917292D01*
X108203029Y-48896742D01*
X108192785Y-48875082D01*
X108184713Y-48852523D01*
X108178891Y-48829281D01*
X108175376Y-48805581D01*
X108174200Y-48781650D01*
X108174200Y-48293350D01*
X108175376Y-48269419D01*
X108178891Y-48245719D01*
X108184713Y-48222477D01*
X108192785Y-48199918D01*
X108203029Y-48178258D01*
X108215347Y-48157708D01*
X108229619Y-48138463D01*
X108245710Y-48120710D01*
X108263463Y-48104619D01*
X108282708Y-48090347D01*
X108303258Y-48078029D01*
X108324918Y-48067785D01*
X108347477Y-48059713D01*
X108370719Y-48053891D01*
X108394419Y-48050376D01*
X108418350Y-48049200D01*
X108981650Y-48049200D01*
X109005581Y-48050376D01*
G37*
G36*
X106655581Y-44325376D02*
G01*
X106679281Y-44328891D01*
X106702523Y-44334713D01*
X106725082Y-44342785D01*
X106746742Y-44353029D01*
X106767292Y-44365347D01*
X106786537Y-44379619D01*
X106804290Y-44395710D01*
X106820381Y-44413463D01*
X106834653Y-44432708D01*
X106846971Y-44453258D01*
X106857215Y-44474918D01*
X106865287Y-44497477D01*
X106871109Y-44520719D01*
X106874624Y-44544419D01*
X106875800Y-44568350D01*
X106875800Y-45131650D01*
X106874624Y-45155581D01*
X106871109Y-45179281D01*
X106865287Y-45202523D01*
X106857215Y-45225082D01*
X106846971Y-45246742D01*
X106834653Y-45267292D01*
X106820381Y-45286537D01*
X106804290Y-45304290D01*
X106786537Y-45320381D01*
X106767292Y-45334653D01*
X106746742Y-45346971D01*
X106725082Y-45357215D01*
X106702523Y-45365287D01*
X106679281Y-45371109D01*
X106655581Y-45374624D01*
X106631650Y-45375800D01*
X106143350Y-45375800D01*
X106119419Y-45374624D01*
X106095719Y-45371109D01*
X106072477Y-45365287D01*
X106049918Y-45357215D01*
X106028258Y-45346971D01*
X106007708Y-45334653D01*
X105988463Y-45320381D01*
X105970710Y-45304290D01*
X105954619Y-45286537D01*
X105940347Y-45267292D01*
X105928029Y-45246742D01*
X105917785Y-45225082D01*
X105909713Y-45202523D01*
X105903891Y-45179281D01*
X105900376Y-45155581D01*
X105899200Y-45131650D01*
X105899200Y-44568350D01*
X105900376Y-44544419D01*
X105903891Y-44520719D01*
X105909713Y-44497477D01*
X105917785Y-44474918D01*
X105928029Y-44453258D01*
X105940347Y-44432708D01*
X105954619Y-44413463D01*
X105970710Y-44395710D01*
X105988463Y-44379619D01*
X106007708Y-44365347D01*
X106028258Y-44353029D01*
X106049918Y-44342785D01*
X106072477Y-44334713D01*
X106095719Y-44328891D01*
X106119419Y-44325376D01*
X106143350Y-44324200D01*
X106631650Y-44324200D01*
X106655581Y-44325376D01*
G37*
G36*
X105080581Y-44325376D02*
G01*
X105104281Y-44328891D01*
X105127523Y-44334713D01*
X105150082Y-44342785D01*
X105171742Y-44353029D01*
X105192292Y-44365347D01*
X105211537Y-44379619D01*
X105229290Y-44395710D01*
X105245381Y-44413463D01*
X105259653Y-44432708D01*
X105271971Y-44453258D01*
X105282215Y-44474918D01*
X105290287Y-44497477D01*
X105296109Y-44520719D01*
X105299624Y-44544419D01*
X105300800Y-44568350D01*
X105300800Y-45131650D01*
X105299624Y-45155581D01*
X105296109Y-45179281D01*
X105290287Y-45202523D01*
X105282215Y-45225082D01*
X105271971Y-45246742D01*
X105259653Y-45267292D01*
X105245381Y-45286537D01*
X105229290Y-45304290D01*
X105211537Y-45320381D01*
X105192292Y-45334653D01*
X105171742Y-45346971D01*
X105150082Y-45357215D01*
X105127523Y-45365287D01*
X105104281Y-45371109D01*
X105080581Y-45374624D01*
X105056650Y-45375800D01*
X104568350Y-45375800D01*
X104544419Y-45374624D01*
X104520719Y-45371109D01*
X104497477Y-45365287D01*
X104474918Y-45357215D01*
X104453258Y-45346971D01*
X104432708Y-45334653D01*
X104413463Y-45320381D01*
X104395710Y-45304290D01*
X104379619Y-45286537D01*
X104365347Y-45267292D01*
X104353029Y-45246742D01*
X104342785Y-45225082D01*
X104334713Y-45202523D01*
X104328891Y-45179281D01*
X104325376Y-45155581D01*
X104324200Y-45131650D01*
X104324200Y-44568350D01*
X104325376Y-44544419D01*
X104328891Y-44520719D01*
X104334713Y-44497477D01*
X104342785Y-44474918D01*
X104353029Y-44453258D01*
X104365347Y-44432708D01*
X104379619Y-44413463D01*
X104395710Y-44395710D01*
X104413463Y-44379619D01*
X104432708Y-44365347D01*
X104453258Y-44353029D01*
X104474918Y-44342785D01*
X104497477Y-44334713D01*
X104520719Y-44328891D01*
X104544419Y-44325376D01*
X104568350Y-44324200D01*
X105056650Y-44324200D01*
X105080581Y-44325376D01*
G37*
G36*
X103605581Y-48050376D02*
G01*
X103629281Y-48053891D01*
X103652523Y-48059713D01*
X103675082Y-48067785D01*
X103696742Y-48078029D01*
X103717292Y-48090347D01*
X103736537Y-48104619D01*
X103754290Y-48120710D01*
X103770381Y-48138463D01*
X103784653Y-48157708D01*
X103796971Y-48178258D01*
X103807215Y-48199918D01*
X103815287Y-48222477D01*
X103821109Y-48245719D01*
X103824624Y-48269419D01*
X103825800Y-48293350D01*
X103825800Y-48781650D01*
X103824624Y-48805581D01*
X103821109Y-48829281D01*
X103815287Y-48852523D01*
X103807215Y-48875082D01*
X103796971Y-48896742D01*
X103784653Y-48917292D01*
X103770381Y-48936537D01*
X103754290Y-48954290D01*
X103736537Y-48970381D01*
X103717292Y-48984653D01*
X103696742Y-48996971D01*
X103675082Y-49007215D01*
X103652523Y-49015287D01*
X103629281Y-49021109D01*
X103605581Y-49024624D01*
X103581650Y-49025800D01*
X103018350Y-49025800D01*
X102994419Y-49024624D01*
X102970719Y-49021109D01*
X102947477Y-49015287D01*
X102924918Y-49007215D01*
X102903258Y-48996971D01*
X102882708Y-48984653D01*
X102863463Y-48970381D01*
X102845710Y-48954290D01*
X102829619Y-48936537D01*
X102815347Y-48917292D01*
X102803029Y-48896742D01*
X102792785Y-48875082D01*
X102784713Y-48852523D01*
X102778891Y-48829281D01*
X102775376Y-48805581D01*
X102774200Y-48781650D01*
X102774200Y-48293350D01*
X102775376Y-48269419D01*
X102778891Y-48245719D01*
X102784713Y-48222477D01*
X102792785Y-48199918D01*
X102803029Y-48178258D01*
X102815347Y-48157708D01*
X102829619Y-48138463D01*
X102845710Y-48120710D01*
X102863463Y-48104619D01*
X102882708Y-48090347D01*
X102903258Y-48078029D01*
X102924918Y-48067785D01*
X102947477Y-48059713D01*
X102970719Y-48053891D01*
X102994419Y-48050376D01*
X103018350Y-48049200D01*
X103581650Y-48049200D01*
X103605581Y-48050376D01*
G37*
G36*
X103605581Y-46475376D02*
G01*
X103629281Y-46478891D01*
X103652523Y-46484713D01*
X103675082Y-46492785D01*
X103696742Y-46503029D01*
X103717292Y-46515347D01*
X103736537Y-46529619D01*
X103754290Y-46545710D01*
X103770381Y-46563463D01*
X103784653Y-46582708D01*
X103796971Y-46603258D01*
X103807215Y-46624918D01*
X103815287Y-46647477D01*
X103821109Y-46670719D01*
X103824624Y-46694419D01*
X103825800Y-46718350D01*
X103825800Y-47206650D01*
X103824624Y-47230581D01*
X103821109Y-47254281D01*
X103815287Y-47277523D01*
X103807215Y-47300082D01*
X103796971Y-47321742D01*
X103784653Y-47342292D01*
X103770381Y-47361537D01*
X103754290Y-47379290D01*
X103736537Y-47395381D01*
X103717292Y-47409653D01*
X103696742Y-47421971D01*
X103675082Y-47432215D01*
X103652523Y-47440287D01*
X103629281Y-47446109D01*
X103605581Y-47449624D01*
X103581650Y-47450800D01*
X103018350Y-47450800D01*
X102994419Y-47449624D01*
X102970719Y-47446109D01*
X102947477Y-47440287D01*
X102924918Y-47432215D01*
X102903258Y-47421971D01*
X102882708Y-47409653D01*
X102863463Y-47395381D01*
X102845710Y-47379290D01*
X102829619Y-47361537D01*
X102815347Y-47342292D01*
X102803029Y-47321742D01*
X102792785Y-47300082D01*
X102784713Y-47277523D01*
X102778891Y-47254281D01*
X102775376Y-47230581D01*
X102774200Y-47206650D01*
X102774200Y-46718350D01*
X102775376Y-46694419D01*
X102778891Y-46670719D01*
X102784713Y-46647477D01*
X102792785Y-46624918D01*
X102803029Y-46603258D01*
X102815347Y-46582708D01*
X102829619Y-46563463D01*
X102845710Y-46545710D01*
X102863463Y-46529619D01*
X102882708Y-46515347D01*
X102903258Y-46503029D01*
X102924918Y-46492785D01*
X102947477Y-46484713D01*
X102970719Y-46478891D01*
X102994419Y-46475376D01*
X103018350Y-46474200D01*
X103581650Y-46474200D01*
X103605581Y-46475376D01*
G37*
G36*
X132305581Y-52075376D02*
G01*
X132329281Y-52078891D01*
X132352523Y-52084713D01*
X132375082Y-52092785D01*
X132396742Y-52103029D01*
X132417292Y-52115347D01*
X132436537Y-52129619D01*
X132454290Y-52145710D01*
X132470381Y-52163463D01*
X132484653Y-52182708D01*
X132496971Y-52203258D01*
X132507215Y-52224918D01*
X132515287Y-52247477D01*
X132521109Y-52270719D01*
X132524624Y-52294419D01*
X132525800Y-52318350D01*
X132525800Y-52806650D01*
X132524624Y-52830581D01*
X132521109Y-52854281D01*
X132515287Y-52877523D01*
X132507215Y-52900082D01*
X132496971Y-52921742D01*
X132484653Y-52942292D01*
X132470381Y-52961537D01*
X132454290Y-52979290D01*
X132436537Y-52995381D01*
X132417292Y-53009653D01*
X132396742Y-53021971D01*
X132375082Y-53032215D01*
X132352523Y-53040287D01*
X132329281Y-53046109D01*
X132305581Y-53049624D01*
X132281650Y-53050800D01*
X131718350Y-53050800D01*
X131694419Y-53049624D01*
X131670719Y-53046109D01*
X131647477Y-53040287D01*
X131624918Y-53032215D01*
X131603258Y-53021971D01*
X131582708Y-53009653D01*
X131563463Y-52995381D01*
X131545710Y-52979290D01*
X131529619Y-52961537D01*
X131515347Y-52942292D01*
X131503029Y-52921742D01*
X131492785Y-52900082D01*
X131484713Y-52877523D01*
X131478891Y-52854281D01*
X131475376Y-52830581D01*
X131474200Y-52806650D01*
X131474200Y-52318350D01*
X131475376Y-52294419D01*
X131478891Y-52270719D01*
X131484713Y-52247477D01*
X131492785Y-52224918D01*
X131503029Y-52203258D01*
X131515347Y-52182708D01*
X131529619Y-52163463D01*
X131545710Y-52145710D01*
X131563463Y-52129619D01*
X131582708Y-52115347D01*
X131603258Y-52103029D01*
X131624918Y-52092785D01*
X131647477Y-52084713D01*
X131670719Y-52078891D01*
X131694419Y-52075376D01*
X131718350Y-52074200D01*
X132281650Y-52074200D01*
X132305581Y-52075376D01*
G37*
G36*
X132305581Y-53650376D02*
G01*
X132329281Y-53653891D01*
X132352523Y-53659713D01*
X132375082Y-53667785D01*
X132396742Y-53678029D01*
X132417292Y-53690347D01*
X132436537Y-53704619D01*
X132454290Y-53720710D01*
X132470381Y-53738463D01*
X132484653Y-53757708D01*
X132496971Y-53778258D01*
X132507215Y-53799918D01*
X132515287Y-53822477D01*
X132521109Y-53845719D01*
X132524624Y-53869419D01*
X132525800Y-53893350D01*
X132525800Y-54381650D01*
X132524624Y-54405581D01*
X132521109Y-54429281D01*
X132515287Y-54452523D01*
X132507215Y-54475082D01*
X132496971Y-54496742D01*
X132484653Y-54517292D01*
X132470381Y-54536537D01*
X132454290Y-54554290D01*
X132436537Y-54570381D01*
X132417292Y-54584653D01*
X132396742Y-54596971D01*
X132375082Y-54607215D01*
X132352523Y-54615287D01*
X132329281Y-54621109D01*
X132305581Y-54624624D01*
X132281650Y-54625800D01*
X131718350Y-54625800D01*
X131694419Y-54624624D01*
X131670719Y-54621109D01*
X131647477Y-54615287D01*
X131624918Y-54607215D01*
X131603258Y-54596971D01*
X131582708Y-54584653D01*
X131563463Y-54570381D01*
X131545710Y-54554290D01*
X131529619Y-54536537D01*
X131515347Y-54517292D01*
X131503029Y-54496742D01*
X131492785Y-54475082D01*
X131484713Y-54452523D01*
X131478891Y-54429281D01*
X131475376Y-54405581D01*
X131474200Y-54381650D01*
X131474200Y-53893350D01*
X131475376Y-53869419D01*
X131478891Y-53845719D01*
X131484713Y-53822477D01*
X131492785Y-53799918D01*
X131503029Y-53778258D01*
X131515347Y-53757708D01*
X131529619Y-53738463D01*
X131545710Y-53720710D01*
X131563463Y-53704619D01*
X131582708Y-53690347D01*
X131603258Y-53678029D01*
X131624918Y-53667785D01*
X131647477Y-53659713D01*
X131670719Y-53653891D01*
X131694419Y-53650376D01*
X131718350Y-53649200D01*
X132281650Y-53649200D01*
X132305581Y-53650376D01*
G37*
G36*
X124005581Y-56400376D02*
G01*
X124029281Y-56403891D01*
X124052523Y-56409713D01*
X124075082Y-56417785D01*
X124096742Y-56428029D01*
X124117292Y-56440347D01*
X124136537Y-56454619D01*
X124154290Y-56470710D01*
X124170381Y-56488463D01*
X124184653Y-56507708D01*
X124196971Y-56528258D01*
X124207215Y-56549918D01*
X124215287Y-56572477D01*
X124221109Y-56595719D01*
X124224624Y-56619419D01*
X124225800Y-56643350D01*
X124225800Y-57131650D01*
X124224624Y-57155581D01*
X124221109Y-57179281D01*
X124215287Y-57202523D01*
X124207215Y-57225082D01*
X124196971Y-57246742D01*
X124184653Y-57267292D01*
X124170381Y-57286537D01*
X124154290Y-57304290D01*
X124136537Y-57320381D01*
X124117292Y-57334653D01*
X124096742Y-57346971D01*
X124075082Y-57357215D01*
X124052523Y-57365287D01*
X124029281Y-57371109D01*
X124005581Y-57374624D01*
X123981650Y-57375800D01*
X123418350Y-57375800D01*
X123394419Y-57374624D01*
X123370719Y-57371109D01*
X123347477Y-57365287D01*
X123324918Y-57357215D01*
X123303258Y-57346971D01*
X123282708Y-57334653D01*
X123263463Y-57320381D01*
X123245710Y-57304290D01*
X123229619Y-57286537D01*
X123215347Y-57267292D01*
X123203029Y-57246742D01*
X123192785Y-57225082D01*
X123184713Y-57202523D01*
X123178891Y-57179281D01*
X123175376Y-57155581D01*
X123174200Y-57131650D01*
X123174200Y-56643350D01*
X123175376Y-56619419D01*
X123178891Y-56595719D01*
X123184713Y-56572477D01*
X123192785Y-56549918D01*
X123203029Y-56528258D01*
X123215347Y-56507708D01*
X123229619Y-56488463D01*
X123245710Y-56470710D01*
X123263463Y-56454619D01*
X123282708Y-56440347D01*
X123303258Y-56428029D01*
X123324918Y-56417785D01*
X123347477Y-56409713D01*
X123370719Y-56403891D01*
X123394419Y-56400376D01*
X123418350Y-56399200D01*
X123981650Y-56399200D01*
X124005581Y-56400376D01*
G37*
G36*
X124005581Y-54825376D02*
G01*
X124029281Y-54828891D01*
X124052523Y-54834713D01*
X124075082Y-54842785D01*
X124096742Y-54853029D01*
X124117292Y-54865347D01*
X124136537Y-54879619D01*
X124154290Y-54895710D01*
X124170381Y-54913463D01*
X124184653Y-54932708D01*
X124196971Y-54953258D01*
X124207215Y-54974918D01*
X124215287Y-54997477D01*
X124221109Y-55020719D01*
X124224624Y-55044419D01*
X124225800Y-55068350D01*
X124225800Y-55556650D01*
X124224624Y-55580581D01*
X124221109Y-55604281D01*
X124215287Y-55627523D01*
X124207215Y-55650082D01*
X124196971Y-55671742D01*
X124184653Y-55692292D01*
X124170381Y-55711537D01*
X124154290Y-55729290D01*
X124136537Y-55745381D01*
X124117292Y-55759653D01*
X124096742Y-55771971D01*
X124075082Y-55782215D01*
X124052523Y-55790287D01*
X124029281Y-55796109D01*
X124005581Y-55799624D01*
X123981650Y-55800800D01*
X123418350Y-55800800D01*
X123394419Y-55799624D01*
X123370719Y-55796109D01*
X123347477Y-55790287D01*
X123324918Y-55782215D01*
X123303258Y-55771971D01*
X123282708Y-55759653D01*
X123263463Y-55745381D01*
X123245710Y-55729290D01*
X123229619Y-55711537D01*
X123215347Y-55692292D01*
X123203029Y-55671742D01*
X123192785Y-55650082D01*
X123184713Y-55627523D01*
X123178891Y-55604281D01*
X123175376Y-55580581D01*
X123174200Y-55556650D01*
X123174200Y-55068350D01*
X123175376Y-55044419D01*
X123178891Y-55020719D01*
X123184713Y-54997477D01*
X123192785Y-54974918D01*
X123203029Y-54953258D01*
X123215347Y-54932708D01*
X123229619Y-54913463D01*
X123245710Y-54895710D01*
X123263463Y-54879619D01*
X123282708Y-54865347D01*
X123303258Y-54853029D01*
X123324918Y-54842785D01*
X123347477Y-54834713D01*
X123370719Y-54828891D01*
X123394419Y-54825376D01*
X123418350Y-54824200D01*
X123981650Y-54824200D01*
X124005581Y-54825376D01*
G37*
G36*
X125555581Y-57450376D02*
G01*
X125579281Y-57453891D01*
X125602523Y-57459713D01*
X125625082Y-57467785D01*
X125646742Y-57478029D01*
X125667292Y-57490347D01*
X125686537Y-57504619D01*
X125704290Y-57520710D01*
X125720381Y-57538463D01*
X125734653Y-57557708D01*
X125746971Y-57578258D01*
X125757215Y-57599918D01*
X125765287Y-57622477D01*
X125771109Y-57645719D01*
X125774624Y-57669419D01*
X125775800Y-57693350D01*
X125775800Y-58181650D01*
X125774624Y-58205581D01*
X125771109Y-58229281D01*
X125765287Y-58252523D01*
X125757215Y-58275082D01*
X125746971Y-58296742D01*
X125734653Y-58317292D01*
X125720381Y-58336537D01*
X125704290Y-58354290D01*
X125686537Y-58370381D01*
X125667292Y-58384653D01*
X125646742Y-58396971D01*
X125625082Y-58407215D01*
X125602523Y-58415287D01*
X125579281Y-58421109D01*
X125555581Y-58424624D01*
X125531650Y-58425800D01*
X124968350Y-58425800D01*
X124944419Y-58424624D01*
X124920719Y-58421109D01*
X124897477Y-58415287D01*
X124874918Y-58407215D01*
X124853258Y-58396971D01*
X124832708Y-58384653D01*
X124813463Y-58370381D01*
X124795710Y-58354290D01*
X124779619Y-58336537D01*
X124765347Y-58317292D01*
X124753029Y-58296742D01*
X124742785Y-58275082D01*
X124734713Y-58252523D01*
X124728891Y-58229281D01*
X124725376Y-58205581D01*
X124724200Y-58181650D01*
X124724200Y-57693350D01*
X124725376Y-57669419D01*
X124728891Y-57645719D01*
X124734713Y-57622477D01*
X124742785Y-57599918D01*
X124753029Y-57578258D01*
X124765347Y-57557708D01*
X124779619Y-57538463D01*
X124795710Y-57520710D01*
X124813463Y-57504619D01*
X124832708Y-57490347D01*
X124853258Y-57478029D01*
X124874918Y-57467785D01*
X124897477Y-57459713D01*
X124920719Y-57453891D01*
X124944419Y-57450376D01*
X124968350Y-57449200D01*
X125531650Y-57449200D01*
X125555581Y-57450376D01*
G37*
G36*
X125555581Y-55875376D02*
G01*
X125579281Y-55878891D01*
X125602523Y-55884713D01*
X125625082Y-55892785D01*
X125646742Y-55903029D01*
X125667292Y-55915347D01*
X125686537Y-55929619D01*
X125704290Y-55945710D01*
X125720381Y-55963463D01*
X125734653Y-55982708D01*
X125746971Y-56003258D01*
X125757215Y-56024918D01*
X125765287Y-56047477D01*
X125771109Y-56070719D01*
X125774624Y-56094419D01*
X125775800Y-56118350D01*
X125775800Y-56606650D01*
X125774624Y-56630581D01*
X125771109Y-56654281D01*
X125765287Y-56677523D01*
X125757215Y-56700082D01*
X125746971Y-56721742D01*
X125734653Y-56742292D01*
X125720381Y-56761537D01*
X125704290Y-56779290D01*
X125686537Y-56795381D01*
X125667292Y-56809653D01*
X125646742Y-56821971D01*
X125625082Y-56832215D01*
X125602523Y-56840287D01*
X125579281Y-56846109D01*
X125555581Y-56849624D01*
X125531650Y-56850800D01*
X124968350Y-56850800D01*
X124944419Y-56849624D01*
X124920719Y-56846109D01*
X124897477Y-56840287D01*
X124874918Y-56832215D01*
X124853258Y-56821971D01*
X124832708Y-56809653D01*
X124813463Y-56795381D01*
X124795710Y-56779290D01*
X124779619Y-56761537D01*
X124765347Y-56742292D01*
X124753029Y-56721742D01*
X124742785Y-56700082D01*
X124734713Y-56677523D01*
X124728891Y-56654281D01*
X124725376Y-56630581D01*
X124724200Y-56606650D01*
X124724200Y-56118350D01*
X124725376Y-56094419D01*
X124728891Y-56070719D01*
X124734713Y-56047477D01*
X124742785Y-56024918D01*
X124753029Y-56003258D01*
X124765347Y-55982708D01*
X124779619Y-55963463D01*
X124795710Y-55945710D01*
X124813463Y-55929619D01*
X124832708Y-55915347D01*
X124853258Y-55903029D01*
X124874918Y-55892785D01*
X124897477Y-55884713D01*
X124920719Y-55878891D01*
X124944419Y-55875376D01*
X124968350Y-55874200D01*
X125531650Y-55874200D01*
X125555581Y-55875376D01*
G37*
G36*
X129905581Y-50425376D02*
G01*
X129929281Y-50428891D01*
X129952523Y-50434713D01*
X129975082Y-50442785D01*
X129996742Y-50453029D01*
X130017292Y-50465347D01*
X130036537Y-50479619D01*
X130054290Y-50495710D01*
X130070381Y-50513463D01*
X130084653Y-50532708D01*
X130096971Y-50553258D01*
X130107215Y-50574918D01*
X130115287Y-50597477D01*
X130121109Y-50620719D01*
X130124624Y-50644419D01*
X130125800Y-50668350D01*
X130125800Y-51231650D01*
X130124624Y-51255581D01*
X130121109Y-51279281D01*
X130115287Y-51302523D01*
X130107215Y-51325082D01*
X130096971Y-51346742D01*
X130084653Y-51367292D01*
X130070381Y-51386537D01*
X130054290Y-51404290D01*
X130036537Y-51420381D01*
X130017292Y-51434653D01*
X129996742Y-51446971D01*
X129975082Y-51457215D01*
X129952523Y-51465287D01*
X129929281Y-51471109D01*
X129905581Y-51474624D01*
X129881650Y-51475800D01*
X129393350Y-51475800D01*
X129369419Y-51474624D01*
X129345719Y-51471109D01*
X129322477Y-51465287D01*
X129299918Y-51457215D01*
X129278258Y-51446971D01*
X129257708Y-51434653D01*
X129238463Y-51420381D01*
X129220710Y-51404290D01*
X129204619Y-51386537D01*
X129190347Y-51367292D01*
X129178029Y-51346742D01*
X129167785Y-51325082D01*
X129159713Y-51302523D01*
X129153891Y-51279281D01*
X129150376Y-51255581D01*
X129149200Y-51231650D01*
X129149200Y-50668350D01*
X129150376Y-50644419D01*
X129153891Y-50620719D01*
X129159713Y-50597477D01*
X129167785Y-50574918D01*
X129178029Y-50553258D01*
X129190347Y-50532708D01*
X129204619Y-50513463D01*
X129220710Y-50495710D01*
X129238463Y-50479619D01*
X129257708Y-50465347D01*
X129278258Y-50453029D01*
X129299918Y-50442785D01*
X129322477Y-50434713D01*
X129345719Y-50428891D01*
X129369419Y-50425376D01*
X129393350Y-50424200D01*
X129881650Y-50424200D01*
X129905581Y-50425376D01*
G37*
G36*
X128330581Y-50425376D02*
G01*
X128354281Y-50428891D01*
X128377523Y-50434713D01*
X128400082Y-50442785D01*
X128421742Y-50453029D01*
X128442292Y-50465347D01*
X128461537Y-50479619D01*
X128479290Y-50495710D01*
X128495381Y-50513463D01*
X128509653Y-50532708D01*
X128521971Y-50553258D01*
X128532215Y-50574918D01*
X128540287Y-50597477D01*
X128546109Y-50620719D01*
X128549624Y-50644419D01*
X128550800Y-50668350D01*
X128550800Y-51231650D01*
X128549624Y-51255581D01*
X128546109Y-51279281D01*
X128540287Y-51302523D01*
X128532215Y-51325082D01*
X128521971Y-51346742D01*
X128509653Y-51367292D01*
X128495381Y-51386537D01*
X128479290Y-51404290D01*
X128461537Y-51420381D01*
X128442292Y-51434653D01*
X128421742Y-51446971D01*
X128400082Y-51457215D01*
X128377523Y-51465287D01*
X128354281Y-51471109D01*
X128330581Y-51474624D01*
X128306650Y-51475800D01*
X127818350Y-51475800D01*
X127794419Y-51474624D01*
X127770719Y-51471109D01*
X127747477Y-51465287D01*
X127724918Y-51457215D01*
X127703258Y-51446971D01*
X127682708Y-51434653D01*
X127663463Y-51420381D01*
X127645710Y-51404290D01*
X127629619Y-51386537D01*
X127615347Y-51367292D01*
X127603029Y-51346742D01*
X127592785Y-51325082D01*
X127584713Y-51302523D01*
X127578891Y-51279281D01*
X127575376Y-51255581D01*
X127574200Y-51231650D01*
X127574200Y-50668350D01*
X127575376Y-50644419D01*
X127578891Y-50620719D01*
X127584713Y-50597477D01*
X127592785Y-50574918D01*
X127603029Y-50553258D01*
X127615347Y-50532708D01*
X127629619Y-50513463D01*
X127645710Y-50495710D01*
X127663463Y-50479619D01*
X127682708Y-50465347D01*
X127703258Y-50453029D01*
X127724918Y-50442785D01*
X127747477Y-50434713D01*
X127770719Y-50428891D01*
X127794419Y-50425376D01*
X127818350Y-50424200D01*
X128306650Y-50424200D01*
X128330581Y-50425376D01*
G37*
G36*
X128330581Y-55625376D02*
G01*
X128354281Y-55628891D01*
X128377523Y-55634713D01*
X128400082Y-55642785D01*
X128421742Y-55653029D01*
X128442292Y-55665347D01*
X128461537Y-55679619D01*
X128479290Y-55695710D01*
X128495381Y-55713463D01*
X128509653Y-55732708D01*
X128521971Y-55753258D01*
X128532215Y-55774918D01*
X128540287Y-55797477D01*
X128546109Y-55820719D01*
X128549624Y-55844419D01*
X128550800Y-55868350D01*
X128550800Y-56431650D01*
X128549624Y-56455581D01*
X128546109Y-56479281D01*
X128540287Y-56502523D01*
X128532215Y-56525082D01*
X128521971Y-56546742D01*
X128509653Y-56567292D01*
X128495381Y-56586537D01*
X128479290Y-56604290D01*
X128461537Y-56620381D01*
X128442292Y-56634653D01*
X128421742Y-56646971D01*
X128400082Y-56657215D01*
X128377523Y-56665287D01*
X128354281Y-56671109D01*
X128330581Y-56674624D01*
X128306650Y-56675800D01*
X127818350Y-56675800D01*
X127794419Y-56674624D01*
X127770719Y-56671109D01*
X127747477Y-56665287D01*
X127724918Y-56657215D01*
X127703258Y-56646971D01*
X127682708Y-56634653D01*
X127663463Y-56620381D01*
X127645710Y-56604290D01*
X127629619Y-56586537D01*
X127615347Y-56567292D01*
X127603029Y-56546742D01*
X127592785Y-56525082D01*
X127584713Y-56502523D01*
X127578891Y-56479281D01*
X127575376Y-56455581D01*
X127574200Y-56431650D01*
X127574200Y-55868350D01*
X127575376Y-55844419D01*
X127578891Y-55820719D01*
X127584713Y-55797477D01*
X127592785Y-55774918D01*
X127603029Y-55753258D01*
X127615347Y-55732708D01*
X127629619Y-55713463D01*
X127645710Y-55695710D01*
X127663463Y-55679619D01*
X127682708Y-55665347D01*
X127703258Y-55653029D01*
X127724918Y-55642785D01*
X127747477Y-55634713D01*
X127770719Y-55628891D01*
X127794419Y-55625376D01*
X127818350Y-55624200D01*
X128306650Y-55624200D01*
X128330581Y-55625376D01*
G37*
G36*
X129905581Y-55625376D02*
G01*
X129929281Y-55628891D01*
X129952523Y-55634713D01*
X129975082Y-55642785D01*
X129996742Y-55653029D01*
X130017292Y-55665347D01*
X130036537Y-55679619D01*
X130054290Y-55695710D01*
X130070381Y-55713463D01*
X130084653Y-55732708D01*
X130096971Y-55753258D01*
X130107215Y-55774918D01*
X130115287Y-55797477D01*
X130121109Y-55820719D01*
X130124624Y-55844419D01*
X130125800Y-55868350D01*
X130125800Y-56431650D01*
X130124624Y-56455581D01*
X130121109Y-56479281D01*
X130115287Y-56502523D01*
X130107215Y-56525082D01*
X130096971Y-56546742D01*
X130084653Y-56567292D01*
X130070381Y-56586537D01*
X130054290Y-56604290D01*
X130036537Y-56620381D01*
X130017292Y-56634653D01*
X129996742Y-56646971D01*
X129975082Y-56657215D01*
X129952523Y-56665287D01*
X129929281Y-56671109D01*
X129905581Y-56674624D01*
X129881650Y-56675800D01*
X129393350Y-56675800D01*
X129369419Y-56674624D01*
X129345719Y-56671109D01*
X129322477Y-56665287D01*
X129299918Y-56657215D01*
X129278258Y-56646971D01*
X129257708Y-56634653D01*
X129238463Y-56620381D01*
X129220710Y-56604290D01*
X129204619Y-56586537D01*
X129190347Y-56567292D01*
X129178029Y-56546742D01*
X129167785Y-56525082D01*
X129159713Y-56502523D01*
X129153891Y-56479281D01*
X129150376Y-56455581D01*
X129149200Y-56431650D01*
X129149200Y-55868350D01*
X129150376Y-55844419D01*
X129153891Y-55820719D01*
X129159713Y-55797477D01*
X129167785Y-55774918D01*
X129178029Y-55753258D01*
X129190347Y-55732708D01*
X129204619Y-55713463D01*
X129220710Y-55695710D01*
X129238463Y-55679619D01*
X129257708Y-55665347D01*
X129278258Y-55653029D01*
X129299918Y-55642785D01*
X129322477Y-55634713D01*
X129345719Y-55628891D01*
X129369419Y-55625376D01*
X129393350Y-55624200D01*
X129881650Y-55624200D01*
X129905581Y-55625376D01*
G37*
G36*
X121247691Y-49349804D02*
G01*
X121259864Y-49351610D01*
X121271802Y-49354600D01*
X121283389Y-49358746D01*
X121294513Y-49364007D01*
X121305069Y-49370334D01*
X121314953Y-49377664D01*
X121324071Y-49385929D01*
X121332336Y-49395047D01*
X121339666Y-49404931D01*
X121345993Y-49415487D01*
X121351254Y-49426611D01*
X121355400Y-49438198D01*
X121358390Y-49450136D01*
X121360196Y-49462309D01*
X121360800Y-49474600D01*
X121360800Y-49725400D01*
X121360196Y-49737691D01*
X121358390Y-49749864D01*
X121355400Y-49761802D01*
X121351254Y-49773389D01*
X121345993Y-49784513D01*
X121339666Y-49795069D01*
X121332336Y-49804953D01*
X121324071Y-49814071D01*
X121314953Y-49822336D01*
X121305069Y-49829666D01*
X121294513Y-49835993D01*
X121283389Y-49841254D01*
X121271802Y-49845400D01*
X121259864Y-49848390D01*
X121247691Y-49850196D01*
X121235400Y-49850800D01*
X120924600Y-49850800D01*
X120912309Y-49850196D01*
X120900136Y-49848390D01*
X120888198Y-49845400D01*
X120876611Y-49841254D01*
X120865487Y-49835993D01*
X120854931Y-49829666D01*
X120845047Y-49822336D01*
X120835929Y-49814071D01*
X120827664Y-49804953D01*
X120820334Y-49795069D01*
X120814007Y-49784513D01*
X120808746Y-49773389D01*
X120804600Y-49761802D01*
X120801610Y-49749864D01*
X120799804Y-49737691D01*
X120799200Y-49725400D01*
X120799200Y-49474600D01*
X120799804Y-49462309D01*
X120801610Y-49450136D01*
X120804600Y-49438198D01*
X120808746Y-49426611D01*
X120814007Y-49415487D01*
X120820334Y-49404931D01*
X120827664Y-49395047D01*
X120835929Y-49385929D01*
X120845047Y-49377664D01*
X120854931Y-49370334D01*
X120865487Y-49364007D01*
X120876611Y-49358746D01*
X120888198Y-49354600D01*
X120900136Y-49351610D01*
X120912309Y-49349804D01*
X120924600Y-49349200D01*
X121235400Y-49349200D01*
X121247691Y-49349804D01*
G37*
G36*
X121887691Y-49349804D02*
G01*
X121899864Y-49351610D01*
X121911802Y-49354600D01*
X121923389Y-49358746D01*
X121934513Y-49364007D01*
X121945069Y-49370334D01*
X121954953Y-49377664D01*
X121964071Y-49385929D01*
X121972336Y-49395047D01*
X121979666Y-49404931D01*
X121985993Y-49415487D01*
X121991254Y-49426611D01*
X121995400Y-49438198D01*
X121998390Y-49450136D01*
X122000196Y-49462309D01*
X122000800Y-49474600D01*
X122000800Y-49725400D01*
X122000196Y-49737691D01*
X121998390Y-49749864D01*
X121995400Y-49761802D01*
X121991254Y-49773389D01*
X121985993Y-49784513D01*
X121979666Y-49795069D01*
X121972336Y-49804953D01*
X121964071Y-49814071D01*
X121954953Y-49822336D01*
X121945069Y-49829666D01*
X121934513Y-49835993D01*
X121923389Y-49841254D01*
X121911802Y-49845400D01*
X121899864Y-49848390D01*
X121887691Y-49850196D01*
X121875400Y-49850800D01*
X121564600Y-49850800D01*
X121552309Y-49850196D01*
X121540136Y-49848390D01*
X121528198Y-49845400D01*
X121516611Y-49841254D01*
X121505487Y-49835993D01*
X121494931Y-49829666D01*
X121485047Y-49822336D01*
X121475929Y-49814071D01*
X121467664Y-49804953D01*
X121460334Y-49795069D01*
X121454007Y-49784513D01*
X121448746Y-49773389D01*
X121444600Y-49761802D01*
X121441610Y-49749864D01*
X121439804Y-49737691D01*
X121439200Y-49725400D01*
X121439200Y-49474600D01*
X121439804Y-49462309D01*
X121441610Y-49450136D01*
X121444600Y-49438198D01*
X121448746Y-49426611D01*
X121454007Y-49415487D01*
X121460334Y-49404931D01*
X121467664Y-49395047D01*
X121475929Y-49385929D01*
X121485047Y-49377664D01*
X121494931Y-49370334D01*
X121505487Y-49364007D01*
X121516611Y-49358746D01*
X121528198Y-49354600D01*
X121540136Y-49351610D01*
X121552309Y-49349804D01*
X121564600Y-49349200D01*
X121875400Y-49349200D01*
X121887691Y-49349804D01*
G37*
G36*
X106530581Y-58675376D02*
G01*
X106554281Y-58678891D01*
X106577523Y-58684713D01*
X106600082Y-58692785D01*
X106621742Y-58703029D01*
X106642292Y-58715347D01*
X106661537Y-58729619D01*
X106679290Y-58745710D01*
X106695381Y-58763463D01*
X106709653Y-58782708D01*
X106721971Y-58803258D01*
X106732215Y-58824918D01*
X106740287Y-58847477D01*
X106746109Y-58870719D01*
X106749624Y-58894419D01*
X106750800Y-58918350D01*
X106750800Y-59481650D01*
X106749624Y-59505581D01*
X106746109Y-59529281D01*
X106740287Y-59552523D01*
X106732215Y-59575082D01*
X106721971Y-59596742D01*
X106709653Y-59617292D01*
X106695381Y-59636537D01*
X106679290Y-59654290D01*
X106661537Y-59670381D01*
X106642292Y-59684653D01*
X106621742Y-59696971D01*
X106600082Y-59707215D01*
X106577523Y-59715287D01*
X106554281Y-59721109D01*
X106530581Y-59724624D01*
X106506650Y-59725800D01*
X106018350Y-59725800D01*
X105994419Y-59724624D01*
X105970719Y-59721109D01*
X105947477Y-59715287D01*
X105924918Y-59707215D01*
X105903258Y-59696971D01*
X105882708Y-59684653D01*
X105863463Y-59670381D01*
X105845710Y-59654290D01*
X105829619Y-59636537D01*
X105815347Y-59617292D01*
X105803029Y-59596742D01*
X105792785Y-59575082D01*
X105784713Y-59552523D01*
X105778891Y-59529281D01*
X105775376Y-59505581D01*
X105774200Y-59481650D01*
X105774200Y-58918350D01*
X105775376Y-58894419D01*
X105778891Y-58870719D01*
X105784713Y-58847477D01*
X105792785Y-58824918D01*
X105803029Y-58803258D01*
X105815347Y-58782708D01*
X105829619Y-58763463D01*
X105845710Y-58745710D01*
X105863463Y-58729619D01*
X105882708Y-58715347D01*
X105903258Y-58703029D01*
X105924918Y-58692785D01*
X105947477Y-58684713D01*
X105970719Y-58678891D01*
X105994419Y-58675376D01*
X106018350Y-58674200D01*
X106506650Y-58674200D01*
X106530581Y-58675376D01*
G37*
G36*
X108105581Y-58675376D02*
G01*
X108129281Y-58678891D01*
X108152523Y-58684713D01*
X108175082Y-58692785D01*
X108196742Y-58703029D01*
X108217292Y-58715347D01*
X108236537Y-58729619D01*
X108254290Y-58745710D01*
X108270381Y-58763463D01*
X108284653Y-58782708D01*
X108296971Y-58803258D01*
X108307215Y-58824918D01*
X108315287Y-58847477D01*
X108321109Y-58870719D01*
X108324624Y-58894419D01*
X108325800Y-58918350D01*
X108325800Y-59481650D01*
X108324624Y-59505581D01*
X108321109Y-59529281D01*
X108315287Y-59552523D01*
X108307215Y-59575082D01*
X108296971Y-59596742D01*
X108284653Y-59617292D01*
X108270381Y-59636537D01*
X108254290Y-59654290D01*
X108236537Y-59670381D01*
X108217292Y-59684653D01*
X108196742Y-59696971D01*
X108175082Y-59707215D01*
X108152523Y-59715287D01*
X108129281Y-59721109D01*
X108105581Y-59724624D01*
X108081650Y-59725800D01*
X107593350Y-59725800D01*
X107569419Y-59724624D01*
X107545719Y-59721109D01*
X107522477Y-59715287D01*
X107499918Y-59707215D01*
X107478258Y-59696971D01*
X107457708Y-59684653D01*
X107438463Y-59670381D01*
X107420710Y-59654290D01*
X107404619Y-59636537D01*
X107390347Y-59617292D01*
X107378029Y-59596742D01*
X107367785Y-59575082D01*
X107359713Y-59552523D01*
X107353891Y-59529281D01*
X107350376Y-59505581D01*
X107349200Y-59481650D01*
X107349200Y-58918350D01*
X107350376Y-58894419D01*
X107353891Y-58870719D01*
X107359713Y-58847477D01*
X107367785Y-58824918D01*
X107378029Y-58803258D01*
X107390347Y-58782708D01*
X107404619Y-58763463D01*
X107420710Y-58745710D01*
X107438463Y-58729619D01*
X107457708Y-58715347D01*
X107478258Y-58703029D01*
X107499918Y-58692785D01*
X107522477Y-58684713D01*
X107545719Y-58678891D01*
X107569419Y-58675376D01*
X107593350Y-58674200D01*
X108081650Y-58674200D01*
X108105581Y-58675376D01*
G37*
G36*
X108105581Y-57125376D02*
G01*
X108129281Y-57128891D01*
X108152523Y-57134713D01*
X108175082Y-57142785D01*
X108196742Y-57153029D01*
X108217292Y-57165347D01*
X108236537Y-57179619D01*
X108254290Y-57195710D01*
X108270381Y-57213463D01*
X108284653Y-57232708D01*
X108296971Y-57253258D01*
X108307215Y-57274918D01*
X108315287Y-57297477D01*
X108321109Y-57320719D01*
X108324624Y-57344419D01*
X108325800Y-57368350D01*
X108325800Y-57931650D01*
X108324624Y-57955581D01*
X108321109Y-57979281D01*
X108315287Y-58002523D01*
X108307215Y-58025082D01*
X108296971Y-58046742D01*
X108284653Y-58067292D01*
X108270381Y-58086537D01*
X108254290Y-58104290D01*
X108236537Y-58120381D01*
X108217292Y-58134653D01*
X108196742Y-58146971D01*
X108175082Y-58157215D01*
X108152523Y-58165287D01*
X108129281Y-58171109D01*
X108105581Y-58174624D01*
X108081650Y-58175800D01*
X107593350Y-58175800D01*
X107569419Y-58174624D01*
X107545719Y-58171109D01*
X107522477Y-58165287D01*
X107499918Y-58157215D01*
X107478258Y-58146971D01*
X107457708Y-58134653D01*
X107438463Y-58120381D01*
X107420710Y-58104290D01*
X107404619Y-58086537D01*
X107390347Y-58067292D01*
X107378029Y-58046742D01*
X107367785Y-58025082D01*
X107359713Y-58002523D01*
X107353891Y-57979281D01*
X107350376Y-57955581D01*
X107349200Y-57931650D01*
X107349200Y-57368350D01*
X107350376Y-57344419D01*
X107353891Y-57320719D01*
X107359713Y-57297477D01*
X107367785Y-57274918D01*
X107378029Y-57253258D01*
X107390347Y-57232708D01*
X107404619Y-57213463D01*
X107420710Y-57195710D01*
X107438463Y-57179619D01*
X107457708Y-57165347D01*
X107478258Y-57153029D01*
X107499918Y-57142785D01*
X107522477Y-57134713D01*
X107545719Y-57128891D01*
X107569419Y-57125376D01*
X107593350Y-57124200D01*
X108081650Y-57124200D01*
X108105581Y-57125376D01*
G37*
G36*
X106530581Y-57125376D02*
G01*
X106554281Y-57128891D01*
X106577523Y-57134713D01*
X106600082Y-57142785D01*
X106621742Y-57153029D01*
X106642292Y-57165347D01*
X106661537Y-57179619D01*
X106679290Y-57195710D01*
X106695381Y-57213463D01*
X106709653Y-57232708D01*
X106721971Y-57253258D01*
X106732215Y-57274918D01*
X106740287Y-57297477D01*
X106746109Y-57320719D01*
X106749624Y-57344419D01*
X106750800Y-57368350D01*
X106750800Y-57931650D01*
X106749624Y-57955581D01*
X106746109Y-57979281D01*
X106740287Y-58002523D01*
X106732215Y-58025082D01*
X106721971Y-58046742D01*
X106709653Y-58067292D01*
X106695381Y-58086537D01*
X106679290Y-58104290D01*
X106661537Y-58120381D01*
X106642292Y-58134653D01*
X106621742Y-58146971D01*
X106600082Y-58157215D01*
X106577523Y-58165287D01*
X106554281Y-58171109D01*
X106530581Y-58174624D01*
X106506650Y-58175800D01*
X106018350Y-58175800D01*
X105994419Y-58174624D01*
X105970719Y-58171109D01*
X105947477Y-58165287D01*
X105924918Y-58157215D01*
X105903258Y-58146971D01*
X105882708Y-58134653D01*
X105863463Y-58120381D01*
X105845710Y-58104290D01*
X105829619Y-58086537D01*
X105815347Y-58067292D01*
X105803029Y-58046742D01*
X105792785Y-58025082D01*
X105784713Y-58002523D01*
X105778891Y-57979281D01*
X105775376Y-57955581D01*
X105774200Y-57931650D01*
X105774200Y-57368350D01*
X105775376Y-57344419D01*
X105778891Y-57320719D01*
X105784713Y-57297477D01*
X105792785Y-57274918D01*
X105803029Y-57253258D01*
X105815347Y-57232708D01*
X105829619Y-57213463D01*
X105845710Y-57195710D01*
X105863463Y-57179619D01*
X105882708Y-57165347D01*
X105903258Y-57153029D01*
X105924918Y-57142785D01*
X105947477Y-57134713D01*
X105970719Y-57128891D01*
X105994419Y-57125376D01*
X106018350Y-57124200D01*
X106506650Y-57124200D01*
X106530581Y-57125376D01*
G37*
G36*
X112605581Y-62200376D02*
G01*
X112629281Y-62203891D01*
X112652523Y-62209713D01*
X112675082Y-62217785D01*
X112696742Y-62228029D01*
X112717292Y-62240347D01*
X112736537Y-62254619D01*
X112754290Y-62270710D01*
X112770381Y-62288463D01*
X112784653Y-62307708D01*
X112796971Y-62328258D01*
X112807215Y-62349918D01*
X112815287Y-62372477D01*
X112821109Y-62395719D01*
X112824624Y-62419419D01*
X112825800Y-62443350D01*
X112825800Y-62931650D01*
X112824624Y-62955581D01*
X112821109Y-62979281D01*
X112815287Y-63002523D01*
X112807215Y-63025082D01*
X112796971Y-63046742D01*
X112784653Y-63067292D01*
X112770381Y-63086537D01*
X112754290Y-63104290D01*
X112736537Y-63120381D01*
X112717292Y-63134653D01*
X112696742Y-63146971D01*
X112675082Y-63157215D01*
X112652523Y-63165287D01*
X112629281Y-63171109D01*
X112605581Y-63174624D01*
X112581650Y-63175800D01*
X112018350Y-63175800D01*
X111994419Y-63174624D01*
X111970719Y-63171109D01*
X111947477Y-63165287D01*
X111924918Y-63157215D01*
X111903258Y-63146971D01*
X111882708Y-63134653D01*
X111863463Y-63120381D01*
X111845710Y-63104290D01*
X111829619Y-63086537D01*
X111815347Y-63067292D01*
X111803029Y-63046742D01*
X111792785Y-63025082D01*
X111784713Y-63002523D01*
X111778891Y-62979281D01*
X111775376Y-62955581D01*
X111774200Y-62931650D01*
X111774200Y-62443350D01*
X111775376Y-62419419D01*
X111778891Y-62395719D01*
X111784713Y-62372477D01*
X111792785Y-62349918D01*
X111803029Y-62328258D01*
X111815347Y-62307708D01*
X111829619Y-62288463D01*
X111845710Y-62270710D01*
X111863463Y-62254619D01*
X111882708Y-62240347D01*
X111903258Y-62228029D01*
X111924918Y-62217785D01*
X111947477Y-62209713D01*
X111970719Y-62203891D01*
X111994419Y-62200376D01*
X112018350Y-62199200D01*
X112581650Y-62199200D01*
X112605581Y-62200376D01*
G37*
G36*
X112605581Y-60625376D02*
G01*
X112629281Y-60628891D01*
X112652523Y-60634713D01*
X112675082Y-60642785D01*
X112696742Y-60653029D01*
X112717292Y-60665347D01*
X112736537Y-60679619D01*
X112754290Y-60695710D01*
X112770381Y-60713463D01*
X112784653Y-60732708D01*
X112796971Y-60753258D01*
X112807215Y-60774918D01*
X112815287Y-60797477D01*
X112821109Y-60820719D01*
X112824624Y-60844419D01*
X112825800Y-60868350D01*
X112825800Y-61356650D01*
X112824624Y-61380581D01*
X112821109Y-61404281D01*
X112815287Y-61427523D01*
X112807215Y-61450082D01*
X112796971Y-61471742D01*
X112784653Y-61492292D01*
X112770381Y-61511537D01*
X112754290Y-61529290D01*
X112736537Y-61545381D01*
X112717292Y-61559653D01*
X112696742Y-61571971D01*
X112675082Y-61582215D01*
X112652523Y-61590287D01*
X112629281Y-61596109D01*
X112605581Y-61599624D01*
X112581650Y-61600800D01*
X112018350Y-61600800D01*
X111994419Y-61599624D01*
X111970719Y-61596109D01*
X111947477Y-61590287D01*
X111924918Y-61582215D01*
X111903258Y-61571971D01*
X111882708Y-61559653D01*
X111863463Y-61545381D01*
X111845710Y-61529290D01*
X111829619Y-61511537D01*
X111815347Y-61492292D01*
X111803029Y-61471742D01*
X111792785Y-61450082D01*
X111784713Y-61427523D01*
X111778891Y-61404281D01*
X111775376Y-61380581D01*
X111774200Y-61356650D01*
X111774200Y-60868350D01*
X111775376Y-60844419D01*
X111778891Y-60820719D01*
X111784713Y-60797477D01*
X111792785Y-60774918D01*
X111803029Y-60753258D01*
X111815347Y-60732708D01*
X111829619Y-60713463D01*
X111845710Y-60695710D01*
X111863463Y-60679619D01*
X111882708Y-60665347D01*
X111903258Y-60653029D01*
X111924918Y-60642785D01*
X111947477Y-60634713D01*
X111970719Y-60628891D01*
X111994419Y-60625376D01*
X112018350Y-60624200D01*
X112581650Y-60624200D01*
X112605581Y-60625376D01*
G37*
D13*
X106450000Y-64500000D03*
X106450000Y-61100000D03*
X109850000Y-61100000D03*
X109850000Y-64500000D03*
D14*
X104900000Y-48400000D03*
X104900000Y-46500000D03*
X107100000Y-46500000D03*
X107100000Y-47450000D03*
X107100000Y-48400000D03*
X130350000Y-54500000D03*
X130350000Y-53550000D03*
X130350000Y-52600000D03*
X128150000Y-52600000D03*
X128150000Y-54500000D03*
D15*
X118000000Y-43762500D03*
D16*
X121500000Y-46462500D03*
D17*
X119650000Y-46462500D03*
X120300000Y-46462500D03*
X117700000Y-46462500D03*
X118350000Y-46462500D03*
X119000000Y-46462500D03*
D16*
X116500000Y-46462500D03*
D15*
X120000000Y-43762500D03*
D18*
X122500000Y-43762500D03*
X115500000Y-43762500D03*
D19*
X116100000Y-43762500D03*
X121900000Y-43762500D03*
D20*
X111000000Y-44200000D03*
X135800000Y-62300000D03*
X127000000Y-44200000D03*
X102200000Y-62300000D03*
D21*
X123300000Y-63600000D03*
X114700000Y-63600000D03*
D22*
X121000000Y-60900000D03*
X120500000Y-60900000D03*
X120000000Y-60900000D03*
X119500000Y-60900000D03*
X119000000Y-60900000D03*
X118500000Y-60900000D03*
X118000000Y-60900000D03*
X117500000Y-60900000D03*
X117000000Y-60900000D03*
D12*
G36*
X102655581Y-58775376D02*
G01*
X102679281Y-58778891D01*
X102702523Y-58784713D01*
X102725082Y-58792785D01*
X102746742Y-58803029D01*
X102767292Y-58815347D01*
X102786537Y-58829619D01*
X102804290Y-58845710D01*
X102820381Y-58863463D01*
X102834653Y-58882708D01*
X102846971Y-58903258D01*
X102857215Y-58924918D01*
X102865287Y-58947477D01*
X102871109Y-58970719D01*
X102874624Y-58994419D01*
X102875800Y-59018350D01*
X102875800Y-59581650D01*
X102874624Y-59605581D01*
X102871109Y-59629281D01*
X102865287Y-59652523D01*
X102857215Y-59675082D01*
X102846971Y-59696742D01*
X102834653Y-59717292D01*
X102820381Y-59736537D01*
X102804290Y-59754290D01*
X102786537Y-59770381D01*
X102767292Y-59784653D01*
X102746742Y-59796971D01*
X102725082Y-59807215D01*
X102702523Y-59815287D01*
X102679281Y-59821109D01*
X102655581Y-59824624D01*
X102631650Y-59825800D01*
X102143350Y-59825800D01*
X102119419Y-59824624D01*
X102095719Y-59821109D01*
X102072477Y-59815287D01*
X102049918Y-59807215D01*
X102028258Y-59796971D01*
X102007708Y-59784653D01*
X101988463Y-59770381D01*
X101970710Y-59754290D01*
X101954619Y-59736537D01*
X101940347Y-59717292D01*
X101928029Y-59696742D01*
X101917785Y-59675082D01*
X101909713Y-59652523D01*
X101903891Y-59629281D01*
X101900376Y-59605581D01*
X101899200Y-59581650D01*
X101899200Y-59018350D01*
X101900376Y-58994419D01*
X101903891Y-58970719D01*
X101909713Y-58947477D01*
X101917785Y-58924918D01*
X101928029Y-58903258D01*
X101940347Y-58882708D01*
X101954619Y-58863463D01*
X101970710Y-58845710D01*
X101988463Y-58829619D01*
X102007708Y-58815347D01*
X102028258Y-58803029D01*
X102049918Y-58792785D01*
X102072477Y-58784713D01*
X102095719Y-58778891D01*
X102119419Y-58775376D01*
X102143350Y-58774200D01*
X102631650Y-58774200D01*
X102655581Y-58775376D01*
G37*
G36*
X101080581Y-58775376D02*
G01*
X101104281Y-58778891D01*
X101127523Y-58784713D01*
X101150082Y-58792785D01*
X101171742Y-58803029D01*
X101192292Y-58815347D01*
X101211537Y-58829619D01*
X101229290Y-58845710D01*
X101245381Y-58863463D01*
X101259653Y-58882708D01*
X101271971Y-58903258D01*
X101282215Y-58924918D01*
X101290287Y-58947477D01*
X101296109Y-58970719D01*
X101299624Y-58994419D01*
X101300800Y-59018350D01*
X101300800Y-59581650D01*
X101299624Y-59605581D01*
X101296109Y-59629281D01*
X101290287Y-59652523D01*
X101282215Y-59675082D01*
X101271971Y-59696742D01*
X101259653Y-59717292D01*
X101245381Y-59736537D01*
X101229290Y-59754290D01*
X101211537Y-59770381D01*
X101192292Y-59784653D01*
X101171742Y-59796971D01*
X101150082Y-59807215D01*
X101127523Y-59815287D01*
X101104281Y-59821109D01*
X101080581Y-59824624D01*
X101056650Y-59825800D01*
X100568350Y-59825800D01*
X100544419Y-59824624D01*
X100520719Y-59821109D01*
X100497477Y-59815287D01*
X100474918Y-59807215D01*
X100453258Y-59796971D01*
X100432708Y-59784653D01*
X100413463Y-59770381D01*
X100395710Y-59754290D01*
X100379619Y-59736537D01*
X100365347Y-59717292D01*
X100353029Y-59696742D01*
X100342785Y-59675082D01*
X100334713Y-59652523D01*
X100328891Y-59629281D01*
X100325376Y-59605581D01*
X100324200Y-59581650D01*
X100324200Y-59018350D01*
X100325376Y-58994419D01*
X100328891Y-58970719D01*
X100334713Y-58947477D01*
X100342785Y-58924918D01*
X100353029Y-58903258D01*
X100365347Y-58882708D01*
X100379619Y-58863463D01*
X100395710Y-58845710D01*
X100413463Y-58829619D01*
X100432708Y-58815347D01*
X100453258Y-58803029D01*
X100474918Y-58792785D01*
X100497477Y-58784713D01*
X100520719Y-58778891D01*
X100544419Y-58775376D01*
X100568350Y-58774200D01*
X101056650Y-58774200D01*
X101080581Y-58775376D01*
G37*
G36*
X101080581Y-57275376D02*
G01*
X101104281Y-57278891D01*
X101127523Y-57284713D01*
X101150082Y-57292785D01*
X101171742Y-57303029D01*
X101192292Y-57315347D01*
X101211537Y-57329619D01*
X101229290Y-57345710D01*
X101245381Y-57363463D01*
X101259653Y-57382708D01*
X101271971Y-57403258D01*
X101282215Y-57424918D01*
X101290287Y-57447477D01*
X101296109Y-57470719D01*
X101299624Y-57494419D01*
X101300800Y-57518350D01*
X101300800Y-58081650D01*
X101299624Y-58105581D01*
X101296109Y-58129281D01*
X101290287Y-58152523D01*
X101282215Y-58175082D01*
X101271971Y-58196742D01*
X101259653Y-58217292D01*
X101245381Y-58236537D01*
X101229290Y-58254290D01*
X101211537Y-58270381D01*
X101192292Y-58284653D01*
X101171742Y-58296971D01*
X101150082Y-58307215D01*
X101127523Y-58315287D01*
X101104281Y-58321109D01*
X101080581Y-58324624D01*
X101056650Y-58325800D01*
X100568350Y-58325800D01*
X100544419Y-58324624D01*
X100520719Y-58321109D01*
X100497477Y-58315287D01*
X100474918Y-58307215D01*
X100453258Y-58296971D01*
X100432708Y-58284653D01*
X100413463Y-58270381D01*
X100395710Y-58254290D01*
X100379619Y-58236537D01*
X100365347Y-58217292D01*
X100353029Y-58196742D01*
X100342785Y-58175082D01*
X100334713Y-58152523D01*
X100328891Y-58129281D01*
X100325376Y-58105581D01*
X100324200Y-58081650D01*
X100324200Y-57518350D01*
X100325376Y-57494419D01*
X100328891Y-57470719D01*
X100334713Y-57447477D01*
X100342785Y-57424918D01*
X100353029Y-57403258D01*
X100365347Y-57382708D01*
X100379619Y-57363463D01*
X100395710Y-57345710D01*
X100413463Y-57329619D01*
X100432708Y-57315347D01*
X100453258Y-57303029D01*
X100474918Y-57292785D01*
X100497477Y-57284713D01*
X100520719Y-57278891D01*
X100544419Y-57275376D01*
X100568350Y-57274200D01*
X101056650Y-57274200D01*
X101080581Y-57275376D01*
G37*
G36*
X102655581Y-57275376D02*
G01*
X102679281Y-57278891D01*
X102702523Y-57284713D01*
X102725082Y-57292785D01*
X102746742Y-57303029D01*
X102767292Y-57315347D01*
X102786537Y-57329619D01*
X102804290Y-57345710D01*
X102820381Y-57363463D01*
X102834653Y-57382708D01*
X102846971Y-57403258D01*
X102857215Y-57424918D01*
X102865287Y-57447477D01*
X102871109Y-57470719D01*
X102874624Y-57494419D01*
X102875800Y-57518350D01*
X102875800Y-58081650D01*
X102874624Y-58105581D01*
X102871109Y-58129281D01*
X102865287Y-58152523D01*
X102857215Y-58175082D01*
X102846971Y-58196742D01*
X102834653Y-58217292D01*
X102820381Y-58236537D01*
X102804290Y-58254290D01*
X102786537Y-58270381D01*
X102767292Y-58284653D01*
X102746742Y-58296971D01*
X102725082Y-58307215D01*
X102702523Y-58315287D01*
X102679281Y-58321109D01*
X102655581Y-58324624D01*
X102631650Y-58325800D01*
X102143350Y-58325800D01*
X102119419Y-58324624D01*
X102095719Y-58321109D01*
X102072477Y-58315287D01*
X102049918Y-58307215D01*
X102028258Y-58296971D01*
X102007708Y-58284653D01*
X101988463Y-58270381D01*
X101970710Y-58254290D01*
X101954619Y-58236537D01*
X101940347Y-58217292D01*
X101928029Y-58196742D01*
X101917785Y-58175082D01*
X101909713Y-58152523D01*
X101903891Y-58129281D01*
X101900376Y-58105581D01*
X101899200Y-58081650D01*
X101899200Y-57518350D01*
X101900376Y-57494419D01*
X101903891Y-57470719D01*
X101909713Y-57447477D01*
X101917785Y-57424918D01*
X101928029Y-57403258D01*
X101940347Y-57382708D01*
X101954619Y-57363463D01*
X101970710Y-57345710D01*
X101988463Y-57329619D01*
X102007708Y-57315347D01*
X102028258Y-57303029D01*
X102049918Y-57292785D01*
X102072477Y-57284713D01*
X102095719Y-57278891D01*
X102119419Y-57275376D01*
X102143350Y-57274200D01*
X102631650Y-57274200D01*
X102655581Y-57275376D01*
G37*
M02*
