M48
; DRILL file {KiCad (5.1.5-0-10_14)} date Saturday, 22 August 2020 at 00:11:14
; FORMAT={-:-/ absolute / inch / decimal}
; #@! TF.CreationDate,2020-08-22T00:11:14-07:00
; #@! TF.GenerationSoftware,Kicad,Pcbnew,(5.1.5-0-10_14)
; #@! TF.FileFunction,Plated,1,2,PTH
FMAT,2
INCH
T1C0.0157
T2C0.0236
T3C0.0335
T4C0.0866
%
G90
G05
T1
X3.9724Y-2.122
X3.9843Y-1.9488
X4.0118Y-2.1732
X4.0512Y-2.0276
X4.0551Y-1.9567
X4.0551Y-2.1762
X4.0669Y-1.8031
X4.0827Y-2.3346
X4.0984Y-2.5571
X4.1339Y-2.2638
X4.1693Y-1.8681
X4.1732Y-1.9291
X4.1909Y-2.498
X4.1988Y-2.1614
X4.2343Y-1.7657
X4.2362Y-1.7047
X4.2638Y-2.565
X4.2932Y-2.019
X4.314Y-2.2805
X4.315Y-1.878
X4.315Y-2.3622
X4.3425Y-1.9528
X4.3937Y-1.8661
X4.4016Y-1.9528
X4.4055Y-2.1949
X4.4154Y-2.3346
X4.4193Y-2.5157
X4.4644Y-2.2518
X4.4764Y-2.374
X4.4803Y-1.685
X4.4823Y-2.565
X4.4862Y-1.7618
X4.4941Y-1.874
X4.5039Y-2.4449
X4.5136Y-2.3327
X4.5138Y-2.2441
X4.5172Y-2.0954
X4.5197Y-2.0079
X4.5571Y-2.565
X4.5669Y-2.3524
X4.5787Y-1.9508
X4.6102Y-2.4961
X4.6181Y-2.0827
X4.6181Y-2.3465
X4.6319Y-2.1594
X4.6319Y-2.565
X4.6457Y-1.7205
X4.6575Y-1.9587
X4.685Y-2.4547
X4.6929Y-2.3268
X4.7008Y-2.0551
X4.7047Y-1.9961
X4.7185Y-2.565
X4.7244Y-1.7244
X4.7461Y-2.2185
X4.7598Y-2.5
X4.8031Y-2.3524
X4.813Y-2.565
X4.8504Y-1.9016
X4.8504Y-2.4488
X4.8593Y-2.3425
X4.8642Y-2.1004
X4.8701Y-2.2815
X4.874Y-2.3937
X4.9055Y-2.0571
X4.9075Y-2.563
X4.9291Y-2.3228
X4.9823Y-1.9902
X4.9843Y-2.1535
X5.0433Y-2.565
X5.0866Y-1.9646
X5.0866Y-2.1063
X5.0906Y-2.4173
X5.1043Y-2.2598
X5.126Y-1.7008
X5.1693Y-1.8661
X5.1969Y-2.1772
X5.2244Y-2.5374
X5.2992Y-1.8189
X5.3425Y-2.1457
X5.376Y-1.9587
X5.3976Y-2.3071
T3
X4.5866Y-1.8292
X4.7835Y-1.8292
T4
X5.3465Y-2.4528
X5.0Y-1.7402
X4.3701Y-1.7402
X4.0236Y-2.4528
T2
G00X4.5472Y-1.7367
M15
G01X4.5472Y-1.7092
M16
G05
G00X4.8228Y-1.7092
M15
G01X4.8228Y-1.7367
M16
G05
T0
M30
