G04 #@! TF.GenerationSoftware,KiCad,Pcbnew,(5.1.5-0-10_14)*
G04 #@! TF.CreationDate,2020-08-22T00:12:21-07:00*
G04 #@! TF.ProjectId,Sense_board,57726973-745f-4536-956e-73655f626f61,rev?*
G04 #@! TF.SameCoordinates,Original*
G04 #@! TF.FileFunction,Copper,L2,Bot*
G04 #@! TF.FilePolarity,Positive*
%FSLAX46Y46*%
G04 Gerber Fmt 4.6, Leading zero omitted, Abs format (unit mm)*
G04 Created by KiCad (PCBNEW (5.1.5-0-10_14)) date 2020-08-22 00:12:21*
%MOMM*%
%LPD*%
G04 APERTURE LIST*
%ADD10C,1.450000*%
%ADD11O,1.200000X1.900000*%
%ADD12C,3.800000*%
%ADD13R,0.300000X1.000000*%
%ADD14R,2.000000X1.300000*%
%ADD15R,1.000000X1.000000*%
%ADD16C,0.800000*%
%ADD17C,0.250000*%
%ADD18C,0.152400*%
G04 APERTURE END LIST*
D10*
X121500000Y-46462500D03*
X116500000Y-46462500D03*
D11*
X122500000Y-43762500D03*
X115500000Y-43762500D03*
D12*
X111000000Y-44200000D03*
X135800000Y-62300000D03*
X127000000Y-44200000D03*
X102200000Y-62300000D03*
D13*
X121000000Y-60900000D03*
X120500000Y-60900000D03*
X120000000Y-60900000D03*
X119500000Y-60900000D03*
X119000000Y-60900000D03*
X118500000Y-60900000D03*
X118000000Y-60900000D03*
X117500000Y-60900000D03*
X117000000Y-60900000D03*
D14*
X123300000Y-63600000D03*
X114700000Y-63600000D03*
D15*
X106100000Y-52300000D03*
X106100000Y-50300000D03*
X108100000Y-52300000D03*
X108100000Y-50300000D03*
D16*
X106000000Y-49000000D03*
X120000000Y-43800000D03*
X118000000Y-43700000D03*
X106450000Y-63450000D03*
X112250000Y-63900000D03*
X123700000Y-57950000D03*
X125200000Y-59000000D03*
X120550000Y-56350000D03*
X129200000Y-53500000D03*
X129650000Y-57400000D03*
X132000000Y-55300000D03*
X114736818Y-53222863D03*
X111900000Y-55750000D03*
X105900000Y-47450000D03*
X107550000Y-44850000D03*
X103300000Y-45800000D03*
X103000538Y-55275232D03*
X123200000Y-48300000D03*
X119500000Y-50700000D03*
X119400000Y-52200000D03*
X129200000Y-49900000D03*
X103000000Y-49700000D03*
X106650000Y-54900000D03*
X109600000Y-47700000D03*
X116300000Y-49550000D03*
X114800000Y-51000000D03*
X117300000Y-52900000D03*
X118300000Y-49750000D03*
X124600000Y-52250000D03*
X123550000Y-53350000D03*
X126600000Y-54700000D03*
X126550000Y-50550000D03*
X113850000Y-65150000D03*
X115750000Y-65150000D03*
X117650000Y-65150000D03*
X119850000Y-65150000D03*
X122250000Y-65150000D03*
X124650000Y-65100000D03*
X108300000Y-65150000D03*
X104100000Y-64950000D03*
X128100000Y-65150000D03*
X132700000Y-64450000D03*
X137100000Y-58600000D03*
X130200000Y-43200000D03*
X136550000Y-49750000D03*
X134600000Y-46200000D03*
X135700000Y-54500000D03*
X114150000Y-47600000D03*
X113950000Y-44750000D03*
X113800000Y-42800000D03*
X112150000Y-59300000D03*
X114650000Y-57000000D03*
X117650000Y-54850000D03*
X119000000Y-62350000D03*
X101200000Y-49500000D03*
X103700000Y-59300000D03*
X100900000Y-53900000D03*
X107600000Y-43300000D03*
X111600000Y-47400000D03*
X111800000Y-49600000D03*
X129300000Y-61400000D03*
X131300000Y-47400000D03*
X113700000Y-60300000D03*
X114400000Y-62100000D03*
X117100000Y-63400000D03*
X120900000Y-63500000D03*
X123200000Y-62200000D03*
X123800000Y-60800000D03*
X119200000Y-59100000D03*
X117300000Y-59600000D03*
X101900000Y-55200000D03*
X102900000Y-51500000D03*
X109575153Y-57924847D03*
X109600000Y-60000000D03*
X116000000Y-59750000D03*
X114645199Y-59250012D03*
X122000000Y-59750000D03*
X123427400Y-59500000D03*
X113395152Y-57195152D03*
X105000000Y-57500000D03*
X109048239Y-51283655D03*
X110300000Y-49600000D03*
D17*
X106100000Y-49100000D02*
X106000000Y-49000000D01*
X106100000Y-50300000D02*
X106100000Y-49100000D01*
X116461396Y-62079811D02*
X115597590Y-61216005D01*
X117639282Y-62079811D02*
X116461396Y-62079811D01*
X118000000Y-61719093D02*
X117639282Y-62079811D01*
X118000000Y-60900000D02*
X118000000Y-61719093D01*
X115597590Y-60350144D02*
X115322599Y-60075153D01*
X115597590Y-61216005D02*
X115597590Y-60350144D01*
X115322599Y-60075153D02*
X115322599Y-59072599D01*
X120000000Y-61719093D02*
X120360718Y-62079811D01*
X120000000Y-60900000D02*
X120000000Y-61719093D01*
X121538604Y-62079811D02*
X122402410Y-61216005D01*
X120360718Y-62079811D02*
X121538604Y-62079811D01*
X122402410Y-60350144D02*
X122750000Y-60002554D01*
X122402410Y-61216005D02*
X122402410Y-60350144D01*
X122750000Y-60002554D02*
X122750000Y-59250000D01*
X102900000Y-54200000D02*
X102900000Y-51500000D01*
X101900000Y-55200000D02*
X102900000Y-54200000D01*
X109575153Y-59975153D02*
X109600000Y-60000000D01*
X109575153Y-57924847D02*
X109575153Y-59975153D01*
X117500000Y-61650000D02*
X117500000Y-60900000D01*
X116628079Y-61677401D02*
X117472599Y-61677401D01*
X116000000Y-61049322D02*
X116628079Y-61677401D01*
X117472599Y-61677401D02*
X117500000Y-61650000D01*
X116000000Y-59750000D02*
X116000000Y-61049322D01*
X118500000Y-61500000D02*
X118500000Y-60900000D01*
X118402408Y-61597592D02*
X118500000Y-61500000D01*
X114645199Y-59250012D02*
X114645200Y-60832707D01*
X117805965Y-62482221D02*
X118402408Y-61885777D01*
X116294713Y-62482221D02*
X117805965Y-62482221D01*
X118402408Y-61885777D02*
X118402408Y-61597592D01*
X114645200Y-60832707D02*
X116294713Y-62482221D01*
X120500000Y-61650000D02*
X120500000Y-60900000D01*
X120527401Y-61677401D02*
X120500000Y-61650000D01*
X121371921Y-61677401D02*
X120527401Y-61677401D01*
X122000000Y-61049322D02*
X121371921Y-61677401D01*
X122000000Y-59750000D02*
X122000000Y-61049322D01*
X122804820Y-60516827D02*
X122804820Y-61445180D01*
X123427400Y-59894247D02*
X122804820Y-60516827D01*
X123427400Y-59500000D02*
X123427400Y-59894247D01*
X119500000Y-61788186D02*
X119500000Y-61650000D01*
X120194035Y-62482221D02*
X119500000Y-61788186D01*
X119500000Y-61650000D02*
X119500000Y-60900000D01*
X121767779Y-62482221D02*
X120194035Y-62482221D01*
X122804820Y-61445180D02*
X121767779Y-62482221D01*
X110500000Y-56800000D02*
X110895152Y-57195152D01*
X110895152Y-57195152D02*
X113395152Y-57195152D01*
X105700000Y-56800000D02*
X110500000Y-56800000D01*
X105000000Y-57500000D02*
X105700000Y-56800000D01*
X109048239Y-51351761D02*
X108100000Y-52300000D01*
X109048239Y-51283655D02*
X109048239Y-51351761D01*
X108800000Y-49600000D02*
X108100000Y-50300000D01*
X110300000Y-49600000D02*
X108800000Y-49600000D01*
D18*
G36*
X109882387Y-42376315D02*
G01*
X109742827Y-42469565D01*
X109528017Y-42727946D01*
X111000000Y-44199929D01*
X112471983Y-42727946D01*
X112257173Y-42469565D01*
X111895426Y-42257553D01*
X111884026Y-42253600D01*
X126135374Y-42253600D01*
X125882387Y-42376315D01*
X125742827Y-42469565D01*
X125528017Y-42727946D01*
X127000000Y-44199929D01*
X128471983Y-42727946D01*
X128257173Y-42469565D01*
X127895426Y-42257553D01*
X127884026Y-42253600D01*
X128991594Y-42253600D01*
X130156689Y-42330985D01*
X131293064Y-42560119D01*
X132389149Y-42937532D01*
X133425688Y-43456591D01*
X134384475Y-44108181D01*
X135248666Y-44880856D01*
X136003066Y-45761030D01*
X136634437Y-46733255D01*
X137131678Y-47780443D01*
X137486053Y-48884191D01*
X137691572Y-50026419D01*
X137746400Y-51007092D01*
X137746401Y-61435375D01*
X137623685Y-61182387D01*
X137530435Y-61042827D01*
X137272054Y-60828017D01*
X135800071Y-62300000D01*
X137272054Y-63771983D01*
X137530435Y-63557173D01*
X137742447Y-63195426D01*
X137746401Y-63184023D01*
X137746401Y-65746400D01*
X100253600Y-65746400D01*
X100253600Y-63772054D01*
X100728017Y-63772054D01*
X100942827Y-64030435D01*
X101304574Y-64242447D01*
X101700732Y-64379812D01*
X102116077Y-64437252D01*
X102534647Y-64412558D01*
X102940356Y-64306679D01*
X103057204Y-64250000D01*
X113470294Y-64250000D01*
X113474708Y-64294813D01*
X113487779Y-64337905D01*
X113509006Y-64377618D01*
X113537573Y-64412427D01*
X113572382Y-64440994D01*
X113612095Y-64462221D01*
X113655187Y-64475292D01*
X113700000Y-64479706D01*
X114642800Y-64478600D01*
X114699950Y-64421450D01*
X114699950Y-63600050D01*
X114700050Y-63600050D01*
X114700050Y-64421450D01*
X114757200Y-64478600D01*
X115700000Y-64479706D01*
X115744813Y-64475292D01*
X115787905Y-64462221D01*
X115827618Y-64440994D01*
X115862427Y-64412427D01*
X115890994Y-64377618D01*
X115912221Y-64337905D01*
X115925292Y-64294813D01*
X115929706Y-64250000D01*
X122070294Y-64250000D01*
X122074708Y-64294813D01*
X122087779Y-64337905D01*
X122109006Y-64377618D01*
X122137573Y-64412427D01*
X122172382Y-64440994D01*
X122212095Y-64462221D01*
X122255187Y-64475292D01*
X122300000Y-64479706D01*
X123242800Y-64478600D01*
X123299950Y-64421450D01*
X123299950Y-63600050D01*
X123300050Y-63600050D01*
X123300050Y-64421450D01*
X123357200Y-64478600D01*
X124300000Y-64479706D01*
X124344813Y-64475292D01*
X124387905Y-64462221D01*
X124427618Y-64440994D01*
X124462427Y-64412427D01*
X124490994Y-64377618D01*
X124512221Y-64337905D01*
X124525292Y-64294813D01*
X124529706Y-64250000D01*
X124528815Y-63772054D01*
X134328017Y-63772054D01*
X134542827Y-64030435D01*
X134904574Y-64242447D01*
X135300732Y-64379812D01*
X135716077Y-64437252D01*
X136134647Y-64412558D01*
X136540356Y-64306679D01*
X136917613Y-64123685D01*
X137057173Y-64030435D01*
X137271983Y-63772054D01*
X135800000Y-62300071D01*
X134328017Y-63772054D01*
X124528815Y-63772054D01*
X124528600Y-63657200D01*
X124471450Y-63600050D01*
X123300050Y-63600050D01*
X123299950Y-63600050D01*
X122128550Y-63600050D01*
X122071400Y-63657200D01*
X122070294Y-64250000D01*
X115929706Y-64250000D01*
X115928600Y-63657200D01*
X115871450Y-63600050D01*
X114700050Y-63600050D01*
X114699950Y-63600050D01*
X113528550Y-63600050D01*
X113471400Y-63657200D01*
X113470294Y-64250000D01*
X103057204Y-64250000D01*
X103317613Y-64123685D01*
X103457173Y-64030435D01*
X103671983Y-63772054D01*
X102200000Y-62300071D01*
X100728017Y-63772054D01*
X100253600Y-63772054D01*
X100253600Y-63164626D01*
X100376315Y-63417613D01*
X100469565Y-63557173D01*
X100727946Y-63771983D01*
X102199929Y-62300000D01*
X102200071Y-62300000D01*
X103672054Y-63771983D01*
X103930435Y-63557173D01*
X104142447Y-63195426D01*
X104227546Y-62950000D01*
X113470294Y-62950000D01*
X113471400Y-63542800D01*
X113528550Y-63599950D01*
X114699950Y-63599950D01*
X114699950Y-62778550D01*
X114700050Y-62778550D01*
X114700050Y-63599950D01*
X115871450Y-63599950D01*
X115928600Y-63542800D01*
X115929706Y-62950000D01*
X122070294Y-62950000D01*
X122071400Y-63542800D01*
X122128550Y-63599950D01*
X123299950Y-63599950D01*
X123299950Y-62778550D01*
X123300050Y-62778550D01*
X123300050Y-63599950D01*
X124471450Y-63599950D01*
X124528600Y-63542800D01*
X124529706Y-62950000D01*
X124525292Y-62905187D01*
X124512221Y-62862095D01*
X124490994Y-62822382D01*
X124462427Y-62787573D01*
X124427618Y-62759006D01*
X124387905Y-62737779D01*
X124344813Y-62724708D01*
X124300000Y-62720294D01*
X123357200Y-62721400D01*
X123300050Y-62778550D01*
X123299950Y-62778550D01*
X123242800Y-62721400D01*
X122300000Y-62720294D01*
X122255187Y-62724708D01*
X122212095Y-62737779D01*
X122172382Y-62759006D01*
X122137573Y-62787573D01*
X122109006Y-62822382D01*
X122087779Y-62862095D01*
X122074708Y-62905187D01*
X122070294Y-62950000D01*
X115929706Y-62950000D01*
X115925292Y-62905187D01*
X115912221Y-62862095D01*
X115890994Y-62822382D01*
X115862427Y-62787573D01*
X115827618Y-62759006D01*
X115787905Y-62737779D01*
X115744813Y-62724708D01*
X115700000Y-62720294D01*
X114757200Y-62721400D01*
X114700050Y-62778550D01*
X114699950Y-62778550D01*
X114642800Y-62721400D01*
X113700000Y-62720294D01*
X113655187Y-62724708D01*
X113612095Y-62737779D01*
X113572382Y-62759006D01*
X113537573Y-62787573D01*
X113509006Y-62822382D01*
X113487779Y-62862095D01*
X113474708Y-62905187D01*
X113470294Y-62950000D01*
X104227546Y-62950000D01*
X104279812Y-62799268D01*
X104337252Y-62383923D01*
X104312558Y-61965353D01*
X104206679Y-61559644D01*
X104023685Y-61182387D01*
X103930435Y-61042827D01*
X103672054Y-60828017D01*
X102200071Y-62300000D01*
X102199929Y-62300000D01*
X100727946Y-60828017D01*
X100469565Y-61042827D01*
X100257553Y-61404574D01*
X100253600Y-61415974D01*
X100253600Y-60827946D01*
X100728017Y-60827946D01*
X102200000Y-62299929D01*
X103671983Y-60827946D01*
X103457173Y-60569565D01*
X103095426Y-60357553D01*
X102699268Y-60220188D01*
X102283923Y-60162748D01*
X101865353Y-60187442D01*
X101459644Y-60293321D01*
X101082387Y-60476315D01*
X100942827Y-60569565D01*
X100728017Y-60827946D01*
X100253600Y-60827946D01*
X100253600Y-57438088D01*
X104371400Y-57438088D01*
X104371400Y-57561912D01*
X104395556Y-57683356D01*
X104442941Y-57797754D01*
X104511734Y-57900709D01*
X104599291Y-57988266D01*
X104702246Y-58057059D01*
X104816644Y-58104444D01*
X104938088Y-58128600D01*
X105061912Y-58128600D01*
X105183356Y-58104444D01*
X105297754Y-58057059D01*
X105400709Y-57988266D01*
X105488266Y-57900709D01*
X105513506Y-57862935D01*
X108946553Y-57862935D01*
X108946553Y-57986759D01*
X108970709Y-58108203D01*
X109018094Y-58222601D01*
X109086887Y-58325556D01*
X109174444Y-58413113D01*
X109221553Y-58444591D01*
X109221554Y-59496858D01*
X109199291Y-59511734D01*
X109111734Y-59599291D01*
X109042941Y-59702246D01*
X108995556Y-59816644D01*
X108971400Y-59938088D01*
X108971400Y-60061912D01*
X108995556Y-60183356D01*
X109042941Y-60297754D01*
X109111734Y-60400709D01*
X109199291Y-60488266D01*
X109302246Y-60557059D01*
X109416644Y-60604444D01*
X109538088Y-60628600D01*
X109661912Y-60628600D01*
X109783356Y-60604444D01*
X109897754Y-60557059D01*
X110000709Y-60488266D01*
X110088266Y-60400709D01*
X110157059Y-60297754D01*
X110204444Y-60183356D01*
X110228600Y-60061912D01*
X110228600Y-59938088D01*
X110204444Y-59816644D01*
X110157059Y-59702246D01*
X110088266Y-59599291D01*
X110000709Y-59511734D01*
X109928753Y-59463654D01*
X109928753Y-59188100D01*
X114016599Y-59188100D01*
X114016599Y-59311924D01*
X114040755Y-59433368D01*
X114088140Y-59547766D01*
X114156933Y-59650721D01*
X114244490Y-59738278D01*
X114291600Y-59769756D01*
X114291601Y-60815345D01*
X114289891Y-60832707D01*
X114291601Y-60850068D01*
X114291601Y-60850069D01*
X114296718Y-60902025D01*
X114300154Y-60913351D01*
X114316937Y-60968678D01*
X114322992Y-60980005D01*
X114349772Y-61030107D01*
X114393959Y-61083949D01*
X114407443Y-61095015D01*
X116032405Y-62719979D01*
X116043471Y-62733463D01*
X116097313Y-62777650D01*
X116158742Y-62810485D01*
X116225395Y-62830704D01*
X116277351Y-62835821D01*
X116277360Y-62835821D01*
X116294712Y-62837530D01*
X116312064Y-62835821D01*
X117788613Y-62835821D01*
X117805965Y-62837530D01*
X117823317Y-62835821D01*
X117823327Y-62835821D01*
X117875283Y-62830704D01*
X117941936Y-62810485D01*
X118003365Y-62777650D01*
X118057207Y-62733463D01*
X118068278Y-62719973D01*
X118640170Y-62148081D01*
X118653649Y-62137019D01*
X118664712Y-62123539D01*
X118664717Y-62123534D01*
X118697837Y-62083177D01*
X118697838Y-62083176D01*
X118730672Y-62021748D01*
X118750891Y-61955095D01*
X118756008Y-61903139D01*
X118756008Y-61903130D01*
X118757717Y-61885778D01*
X118756008Y-61868426D01*
X118756008Y-61745434D01*
X118795429Y-61697400D01*
X118828264Y-61635971D01*
X118830740Y-61627809D01*
X118850000Y-61629706D01*
X118942800Y-61628600D01*
X118999950Y-61571450D01*
X118999950Y-60900050D01*
X118979950Y-60900050D01*
X118979950Y-60899950D01*
X118999950Y-60899950D01*
X118999950Y-60228550D01*
X119000050Y-60228550D01*
X119000050Y-60899950D01*
X119020050Y-60899950D01*
X119020050Y-60900050D01*
X119000050Y-60900050D01*
X119000050Y-61571450D01*
X119057200Y-61628600D01*
X119146400Y-61629663D01*
X119146400Y-61770834D01*
X119144691Y-61788186D01*
X119146400Y-61805538D01*
X119146400Y-61805547D01*
X119151517Y-61857503D01*
X119171736Y-61924156D01*
X119193757Y-61965353D01*
X119204571Y-61985585D01*
X119237644Y-62025884D01*
X119248758Y-62039427D01*
X119262244Y-62050495D01*
X119931722Y-62719973D01*
X119942793Y-62733463D01*
X119972575Y-62757905D01*
X119996635Y-62777651D01*
X120037079Y-62799268D01*
X120058064Y-62810485D01*
X120124717Y-62830704D01*
X120176673Y-62835821D01*
X120176675Y-62835821D01*
X120194035Y-62837531D01*
X120211395Y-62835821D01*
X121750427Y-62835821D01*
X121767779Y-62837530D01*
X121785131Y-62835821D01*
X121785141Y-62835821D01*
X121837097Y-62830704D01*
X121903750Y-62810485D01*
X121965179Y-62777650D01*
X122019021Y-62733463D01*
X122030092Y-62719973D01*
X122533988Y-62216077D01*
X133662748Y-62216077D01*
X133687442Y-62634647D01*
X133793321Y-63040356D01*
X133976315Y-63417613D01*
X134069565Y-63557173D01*
X134327946Y-63771983D01*
X135799929Y-62300000D01*
X134327946Y-60828017D01*
X134069565Y-61042827D01*
X133857553Y-61404574D01*
X133720188Y-61800732D01*
X133662748Y-62216077D01*
X122533988Y-62216077D01*
X123042578Y-61707488D01*
X123056062Y-61696422D01*
X123100249Y-61642580D01*
X123110465Y-61623468D01*
X123133083Y-61581153D01*
X123133084Y-61581151D01*
X123153303Y-61514498D01*
X123158420Y-61462542D01*
X123158420Y-61462533D01*
X123160129Y-61445181D01*
X123158420Y-61427829D01*
X123158420Y-60827946D01*
X134328017Y-60827946D01*
X135800000Y-62299929D01*
X137271983Y-60827946D01*
X137057173Y-60569565D01*
X136695426Y-60357553D01*
X136299268Y-60220188D01*
X135883923Y-60162748D01*
X135465353Y-60187442D01*
X135059644Y-60293321D01*
X134682387Y-60476315D01*
X134542827Y-60569565D01*
X134328017Y-60827946D01*
X123158420Y-60827946D01*
X123158420Y-60663292D01*
X123665158Y-60156555D01*
X123678642Y-60145489D01*
X123692503Y-60128600D01*
X123722829Y-60091647D01*
X123741317Y-60057059D01*
X123750297Y-60040259D01*
X123828109Y-59988266D01*
X123915666Y-59900709D01*
X123984459Y-59797754D01*
X124031844Y-59683356D01*
X124056000Y-59561912D01*
X124056000Y-59438088D01*
X124031844Y-59316644D01*
X123984459Y-59202246D01*
X123915666Y-59099291D01*
X123828109Y-59011734D01*
X123725154Y-58942941D01*
X123610756Y-58895556D01*
X123489312Y-58871400D01*
X123365488Y-58871400D01*
X123244044Y-58895556D01*
X123129646Y-58942941D01*
X123026691Y-59011734D01*
X122939134Y-59099291D01*
X122870341Y-59202246D01*
X122822956Y-59316644D01*
X122798800Y-59438088D01*
X122798800Y-59561912D01*
X122822956Y-59683356D01*
X122870341Y-59797754D01*
X122931819Y-59889762D01*
X122567063Y-60254519D01*
X122553578Y-60265586D01*
X122509391Y-60319428D01*
X122476556Y-60380857D01*
X122456337Y-60447510D01*
X122451220Y-60499466D01*
X122451220Y-60499475D01*
X122449511Y-60516827D01*
X122451220Y-60534179D01*
X122451221Y-61298713D01*
X121621314Y-62128621D01*
X120340500Y-62128621D01*
X119853600Y-61641721D01*
X119853600Y-61629663D01*
X119942800Y-61628600D01*
X119999950Y-61571450D01*
X119999950Y-60900050D01*
X119979950Y-60900050D01*
X119979950Y-60899950D01*
X119999950Y-60899950D01*
X119999950Y-60228550D01*
X120000050Y-60228550D01*
X120000050Y-60899950D01*
X120020050Y-60899950D01*
X120020050Y-60900050D01*
X120000050Y-60900050D01*
X120000050Y-61571450D01*
X120057200Y-61628600D01*
X120146400Y-61629663D01*
X120146400Y-61632648D01*
X120144691Y-61650000D01*
X120146400Y-61667352D01*
X120146400Y-61667361D01*
X120151517Y-61719317D01*
X120171736Y-61785970D01*
X120204571Y-61847399D01*
X120248758Y-61901241D01*
X120262244Y-61912309D01*
X120265088Y-61915153D01*
X120276159Y-61928643D01*
X120308390Y-61955094D01*
X120330002Y-61972831D01*
X120340167Y-61978264D01*
X120391430Y-62005665D01*
X120458083Y-62025884D01*
X120510039Y-62031001D01*
X120510049Y-62031001D01*
X120527401Y-62032710D01*
X120544753Y-62031001D01*
X121354569Y-62031001D01*
X121371921Y-62032710D01*
X121389273Y-62031001D01*
X121389283Y-62031001D01*
X121441239Y-62025884D01*
X121507892Y-62005665D01*
X121569321Y-61972830D01*
X121623163Y-61928643D01*
X121634234Y-61915153D01*
X122237758Y-61311630D01*
X122251242Y-61300564D01*
X122276877Y-61269328D01*
X122295430Y-61246722D01*
X122317960Y-61204571D01*
X122328264Y-61185293D01*
X122348483Y-61118640D01*
X122353600Y-61066684D01*
X122353600Y-61066674D01*
X122355309Y-61049322D01*
X122353600Y-61031970D01*
X122353600Y-60269744D01*
X122400709Y-60238266D01*
X122488266Y-60150709D01*
X122557059Y-60047754D01*
X122604444Y-59933356D01*
X122628600Y-59811912D01*
X122628600Y-59688088D01*
X122604444Y-59566644D01*
X122557059Y-59452246D01*
X122488266Y-59349291D01*
X122400709Y-59261734D01*
X122297754Y-59192941D01*
X122183356Y-59145556D01*
X122061912Y-59121400D01*
X121938088Y-59121400D01*
X121816644Y-59145556D01*
X121702246Y-59192941D01*
X121599291Y-59261734D01*
X121511734Y-59349291D01*
X121442941Y-59452246D01*
X121395556Y-59566644D01*
X121371400Y-59688088D01*
X121371400Y-59811912D01*
X121395556Y-59933356D01*
X121442941Y-60047754D01*
X121511734Y-60150709D01*
X121599291Y-60238266D01*
X121646400Y-60269744D01*
X121646401Y-60902855D01*
X121379132Y-61170125D01*
X121378600Y-60957200D01*
X121321450Y-60900050D01*
X121000050Y-60900050D01*
X121000050Y-60920050D01*
X120999950Y-60920050D01*
X120999950Y-60900050D01*
X120979950Y-60900050D01*
X120979950Y-60899950D01*
X120999950Y-60899950D01*
X120999950Y-60228550D01*
X121000050Y-60228550D01*
X121000050Y-60899950D01*
X121321450Y-60899950D01*
X121378600Y-60842800D01*
X121379706Y-60400000D01*
X121375292Y-60355187D01*
X121362221Y-60312095D01*
X121340994Y-60272382D01*
X121312427Y-60237573D01*
X121277618Y-60209006D01*
X121237905Y-60187779D01*
X121194813Y-60174708D01*
X121150000Y-60170294D01*
X121057200Y-60171400D01*
X121000050Y-60228550D01*
X120999950Y-60228550D01*
X120942800Y-60171400D01*
X120850000Y-60170294D01*
X120805187Y-60174708D01*
X120762095Y-60187779D01*
X120750000Y-60194244D01*
X120737905Y-60187779D01*
X120694813Y-60174708D01*
X120650000Y-60170294D01*
X120350000Y-60170294D01*
X120305187Y-60174708D01*
X120262095Y-60187779D01*
X120250000Y-60194244D01*
X120237905Y-60187779D01*
X120194813Y-60174708D01*
X120150000Y-60170294D01*
X120057200Y-60171400D01*
X120000050Y-60228550D01*
X119999950Y-60228550D01*
X119942800Y-60171400D01*
X119850000Y-60170294D01*
X119805187Y-60174708D01*
X119762095Y-60187779D01*
X119750000Y-60194244D01*
X119737905Y-60187779D01*
X119694813Y-60174708D01*
X119650000Y-60170294D01*
X119350000Y-60170294D01*
X119305187Y-60174708D01*
X119262095Y-60187779D01*
X119250000Y-60194244D01*
X119237905Y-60187779D01*
X119194813Y-60174708D01*
X119150000Y-60170294D01*
X119057200Y-60171400D01*
X119000050Y-60228550D01*
X118999950Y-60228550D01*
X118942800Y-60171400D01*
X118850000Y-60170294D01*
X118805187Y-60174708D01*
X118762095Y-60187779D01*
X118750000Y-60194244D01*
X118737905Y-60187779D01*
X118694813Y-60174708D01*
X118650000Y-60170294D01*
X118350000Y-60170294D01*
X118305187Y-60174708D01*
X118262095Y-60187779D01*
X118250000Y-60194244D01*
X118237905Y-60187779D01*
X118194813Y-60174708D01*
X118150000Y-60170294D01*
X118057200Y-60171400D01*
X118000050Y-60228550D01*
X118000050Y-60899950D01*
X118020050Y-60899950D01*
X118020050Y-60900050D01*
X118000050Y-60900050D01*
X118000050Y-61571450D01*
X118048808Y-61620208D01*
X118048808Y-61739312D01*
X117659500Y-62128621D01*
X116441179Y-62128621D01*
X114998800Y-60686242D01*
X114998799Y-59769756D01*
X115045908Y-59738278D01*
X115096098Y-59688088D01*
X115371400Y-59688088D01*
X115371400Y-59811912D01*
X115395556Y-59933356D01*
X115442941Y-60047754D01*
X115511734Y-60150709D01*
X115599291Y-60238266D01*
X115646400Y-60269744D01*
X115646401Y-61031960D01*
X115644691Y-61049322D01*
X115646401Y-61066684D01*
X115651518Y-61118640D01*
X115664359Y-61160970D01*
X115671737Y-61185293D01*
X115702199Y-61242282D01*
X115704572Y-61246722D01*
X115748759Y-61300564D01*
X115762243Y-61311630D01*
X116365771Y-61915159D01*
X116376837Y-61928643D01*
X116390321Y-61939709D01*
X116390322Y-61939710D01*
X116430679Y-61972831D01*
X116454543Y-61985586D01*
X116492108Y-62005665D01*
X116558761Y-62025884D01*
X116610717Y-62031001D01*
X116610727Y-62031001D01*
X116628079Y-62032710D01*
X116645431Y-62031001D01*
X117455247Y-62031001D01*
X117472599Y-62032710D01*
X117489951Y-62031001D01*
X117489961Y-62031001D01*
X117541917Y-62025884D01*
X117608570Y-62005665D01*
X117669999Y-61972830D01*
X117723841Y-61928643D01*
X117734912Y-61915153D01*
X117737757Y-61912308D01*
X117751241Y-61901242D01*
X117772942Y-61874800D01*
X117795430Y-61847399D01*
X117811966Y-61816461D01*
X117828264Y-61785971D01*
X117848483Y-61719318D01*
X117853600Y-61667362D01*
X117853600Y-61667352D01*
X117855309Y-61650000D01*
X117853600Y-61632648D01*
X117853600Y-61629663D01*
X117942800Y-61628600D01*
X117999950Y-61571450D01*
X117999950Y-60900050D01*
X117979950Y-60900050D01*
X117979950Y-60899950D01*
X117999950Y-60899950D01*
X117999950Y-60228550D01*
X117942800Y-60171400D01*
X117850000Y-60170294D01*
X117805187Y-60174708D01*
X117762095Y-60187779D01*
X117750000Y-60194244D01*
X117737905Y-60187779D01*
X117694813Y-60174708D01*
X117650000Y-60170294D01*
X117350000Y-60170294D01*
X117305187Y-60174708D01*
X117262095Y-60187779D01*
X117250000Y-60194244D01*
X117237905Y-60187779D01*
X117194813Y-60174708D01*
X117150000Y-60170294D01*
X117057200Y-60171400D01*
X117000050Y-60228550D01*
X117000050Y-60899950D01*
X117020050Y-60899950D01*
X117020050Y-60900050D01*
X117000050Y-60900050D01*
X117000050Y-60920050D01*
X116999950Y-60920050D01*
X116999950Y-60900050D01*
X116678550Y-60900050D01*
X116621400Y-60957200D01*
X116620868Y-61170125D01*
X116353600Y-60902857D01*
X116353600Y-60400000D01*
X116620294Y-60400000D01*
X116621400Y-60842800D01*
X116678550Y-60899950D01*
X116999950Y-60899950D01*
X116999950Y-60228550D01*
X116942800Y-60171400D01*
X116850000Y-60170294D01*
X116805187Y-60174708D01*
X116762095Y-60187779D01*
X116722382Y-60209006D01*
X116687573Y-60237573D01*
X116659006Y-60272382D01*
X116637779Y-60312095D01*
X116624708Y-60355187D01*
X116620294Y-60400000D01*
X116353600Y-60400000D01*
X116353600Y-60269744D01*
X116400709Y-60238266D01*
X116488266Y-60150709D01*
X116557059Y-60047754D01*
X116604444Y-59933356D01*
X116628600Y-59811912D01*
X116628600Y-59688088D01*
X116604444Y-59566644D01*
X116557059Y-59452246D01*
X116488266Y-59349291D01*
X116400709Y-59261734D01*
X116297754Y-59192941D01*
X116183356Y-59145556D01*
X116061912Y-59121400D01*
X115938088Y-59121400D01*
X115816644Y-59145556D01*
X115702246Y-59192941D01*
X115599291Y-59261734D01*
X115511734Y-59349291D01*
X115442941Y-59452246D01*
X115395556Y-59566644D01*
X115371400Y-59688088D01*
X115096098Y-59688088D01*
X115133465Y-59650721D01*
X115202258Y-59547766D01*
X115249643Y-59433368D01*
X115273799Y-59311924D01*
X115273799Y-59188100D01*
X115249643Y-59066656D01*
X115202258Y-58952258D01*
X115133465Y-58849303D01*
X115045908Y-58761746D01*
X114942953Y-58692953D01*
X114828555Y-58645568D01*
X114707111Y-58621412D01*
X114583287Y-58621412D01*
X114461843Y-58645568D01*
X114347445Y-58692953D01*
X114244490Y-58761746D01*
X114156933Y-58849303D01*
X114088140Y-58952258D01*
X114040755Y-59066656D01*
X114016599Y-59188100D01*
X109928753Y-59188100D01*
X109928753Y-58444591D01*
X109975862Y-58413113D01*
X110063419Y-58325556D01*
X110132212Y-58222601D01*
X110179597Y-58108203D01*
X110203753Y-57986759D01*
X110203753Y-57862935D01*
X110179597Y-57741491D01*
X110132212Y-57627093D01*
X110063419Y-57524138D01*
X109975862Y-57436581D01*
X109872907Y-57367788D01*
X109758509Y-57320403D01*
X109637065Y-57296247D01*
X109513241Y-57296247D01*
X109391797Y-57320403D01*
X109277399Y-57367788D01*
X109174444Y-57436581D01*
X109086887Y-57524138D01*
X109018094Y-57627093D01*
X108970709Y-57741491D01*
X108946553Y-57862935D01*
X105513506Y-57862935D01*
X105557059Y-57797754D01*
X105604444Y-57683356D01*
X105628600Y-57561912D01*
X105628600Y-57438088D01*
X105617547Y-57382519D01*
X105846466Y-57153600D01*
X110353535Y-57153600D01*
X110632844Y-57432909D01*
X110643910Y-57446394D01*
X110697752Y-57490581D01*
X110759181Y-57523416D01*
X110825834Y-57543635D01*
X110877790Y-57548752D01*
X110877799Y-57548752D01*
X110895151Y-57550461D01*
X110912503Y-57548752D01*
X112875408Y-57548752D01*
X112906886Y-57595861D01*
X112994443Y-57683418D01*
X113097398Y-57752211D01*
X113211796Y-57799596D01*
X113333240Y-57823752D01*
X113457064Y-57823752D01*
X113578508Y-57799596D01*
X113692906Y-57752211D01*
X113795861Y-57683418D01*
X113883418Y-57595861D01*
X113952211Y-57492906D01*
X113999596Y-57378508D01*
X114023752Y-57257064D01*
X114023752Y-57133240D01*
X113999596Y-57011796D01*
X113952211Y-56897398D01*
X113883418Y-56794443D01*
X113795861Y-56706886D01*
X113692906Y-56638093D01*
X113578508Y-56590708D01*
X113457064Y-56566552D01*
X113333240Y-56566552D01*
X113211796Y-56590708D01*
X113097398Y-56638093D01*
X112994443Y-56706886D01*
X112906886Y-56794443D01*
X112875408Y-56841552D01*
X111041618Y-56841552D01*
X110762313Y-56562247D01*
X110751242Y-56548758D01*
X110697400Y-56504571D01*
X110635971Y-56471736D01*
X110569318Y-56451517D01*
X110517362Y-56446400D01*
X110517352Y-56446400D01*
X110500000Y-56444691D01*
X110482648Y-56446400D01*
X105717351Y-56446400D01*
X105699999Y-56444691D01*
X105682647Y-56446400D01*
X105682638Y-56446400D01*
X105630682Y-56451517D01*
X105564029Y-56471736D01*
X105502600Y-56504571D01*
X105448758Y-56548758D01*
X105437692Y-56562242D01*
X105117481Y-56882453D01*
X105061912Y-56871400D01*
X104938088Y-56871400D01*
X104816644Y-56895556D01*
X104702246Y-56942941D01*
X104599291Y-57011734D01*
X104511734Y-57099291D01*
X104442941Y-57202246D01*
X104395556Y-57316644D01*
X104371400Y-57438088D01*
X100253600Y-57438088D01*
X100253600Y-55138088D01*
X101271400Y-55138088D01*
X101271400Y-55261912D01*
X101295556Y-55383356D01*
X101342941Y-55497754D01*
X101411734Y-55600709D01*
X101499291Y-55688266D01*
X101602246Y-55757059D01*
X101716644Y-55804444D01*
X101838088Y-55828600D01*
X101961912Y-55828600D01*
X102083356Y-55804444D01*
X102197754Y-55757059D01*
X102300709Y-55688266D01*
X102388266Y-55600709D01*
X102457059Y-55497754D01*
X102504444Y-55383356D01*
X102528600Y-55261912D01*
X102528600Y-55138088D01*
X102517547Y-55082519D01*
X103137762Y-54462304D01*
X103151241Y-54451242D01*
X103162304Y-54437762D01*
X103162310Y-54437756D01*
X103195430Y-54397400D01*
X103228264Y-54335972D01*
X103248483Y-54269317D01*
X103255310Y-54200000D01*
X103253600Y-54182638D01*
X103253600Y-52800000D01*
X105370294Y-52800000D01*
X105374708Y-52844813D01*
X105387779Y-52887905D01*
X105409006Y-52927618D01*
X105437573Y-52962427D01*
X105472382Y-52990994D01*
X105512095Y-53012221D01*
X105555187Y-53025292D01*
X105600000Y-53029706D01*
X106042800Y-53028600D01*
X106099950Y-52971450D01*
X106099950Y-52300050D01*
X106100050Y-52300050D01*
X106100050Y-52971450D01*
X106157200Y-53028600D01*
X106600000Y-53029706D01*
X106644813Y-53025292D01*
X106687905Y-53012221D01*
X106727618Y-52990994D01*
X106762427Y-52962427D01*
X106790994Y-52927618D01*
X106812221Y-52887905D01*
X106825292Y-52844813D01*
X106829706Y-52800000D01*
X106828600Y-52357200D01*
X106771450Y-52300050D01*
X106100050Y-52300050D01*
X106099950Y-52300050D01*
X105428550Y-52300050D01*
X105371400Y-52357200D01*
X105370294Y-52800000D01*
X103253600Y-52800000D01*
X103253600Y-52019744D01*
X103300709Y-51988266D01*
X103388266Y-51900709D01*
X103455558Y-51800000D01*
X105370294Y-51800000D01*
X105371400Y-52242800D01*
X105428550Y-52299950D01*
X106099950Y-52299950D01*
X106099950Y-51628550D01*
X106100050Y-51628550D01*
X106100050Y-52299950D01*
X106771450Y-52299950D01*
X106828600Y-52242800D01*
X106829706Y-51800000D01*
X106825292Y-51755187D01*
X106812221Y-51712095D01*
X106790994Y-51672382D01*
X106762427Y-51637573D01*
X106727618Y-51609006D01*
X106687905Y-51587779D01*
X106644813Y-51574708D01*
X106600000Y-51570294D01*
X106157200Y-51571400D01*
X106100050Y-51628550D01*
X106099950Y-51628550D01*
X106042800Y-51571400D01*
X105600000Y-51570294D01*
X105555187Y-51574708D01*
X105512095Y-51587779D01*
X105472382Y-51609006D01*
X105437573Y-51637573D01*
X105409006Y-51672382D01*
X105387779Y-51712095D01*
X105374708Y-51755187D01*
X105370294Y-51800000D01*
X103455558Y-51800000D01*
X103457059Y-51797754D01*
X103504444Y-51683356D01*
X103528600Y-51561912D01*
X103528600Y-51438088D01*
X103504444Y-51316644D01*
X103457059Y-51202246D01*
X103388266Y-51099291D01*
X103300709Y-51011734D01*
X103197754Y-50942941D01*
X103083356Y-50895556D01*
X102961912Y-50871400D01*
X102838088Y-50871400D01*
X102716644Y-50895556D01*
X102602246Y-50942941D01*
X102499291Y-51011734D01*
X102411734Y-51099291D01*
X102342941Y-51202246D01*
X102295556Y-51316644D01*
X102271400Y-51438088D01*
X102271400Y-51561912D01*
X102295556Y-51683356D01*
X102342941Y-51797754D01*
X102411734Y-51900709D01*
X102499291Y-51988266D01*
X102546401Y-52019744D01*
X102546400Y-54053534D01*
X102017481Y-54582453D01*
X101961912Y-54571400D01*
X101838088Y-54571400D01*
X101716644Y-54595556D01*
X101602246Y-54642941D01*
X101499291Y-54711734D01*
X101411734Y-54799291D01*
X101342941Y-54902246D01*
X101295556Y-55016644D01*
X101271400Y-55138088D01*
X100253600Y-55138088D01*
X100253600Y-51008406D01*
X100330985Y-49843311D01*
X100339718Y-49800000D01*
X105370294Y-49800000D01*
X105370294Y-50800000D01*
X105374708Y-50844813D01*
X105387779Y-50887905D01*
X105409006Y-50927618D01*
X105437573Y-50962427D01*
X105472382Y-50990994D01*
X105512095Y-51012221D01*
X105555187Y-51025292D01*
X105600000Y-51029706D01*
X106600000Y-51029706D01*
X106644813Y-51025292D01*
X106687905Y-51012221D01*
X106727618Y-50990994D01*
X106762427Y-50962427D01*
X106790994Y-50927618D01*
X106812221Y-50887905D01*
X106825292Y-50844813D01*
X106829706Y-50800000D01*
X106829706Y-49800000D01*
X107370294Y-49800000D01*
X107370294Y-50800000D01*
X107374708Y-50844813D01*
X107387779Y-50887905D01*
X107409006Y-50927618D01*
X107437573Y-50962427D01*
X107472382Y-50990994D01*
X107512095Y-51012221D01*
X107555187Y-51025292D01*
X107600000Y-51029706D01*
X108473035Y-51029706D01*
X108443795Y-51100299D01*
X108419639Y-51221743D01*
X108419639Y-51345567D01*
X108441991Y-51457943D01*
X108329640Y-51570294D01*
X107600000Y-51570294D01*
X107555187Y-51574708D01*
X107512095Y-51587779D01*
X107472382Y-51609006D01*
X107437573Y-51637573D01*
X107409006Y-51672382D01*
X107387779Y-51712095D01*
X107374708Y-51755187D01*
X107370294Y-51800000D01*
X107370294Y-52800000D01*
X107374708Y-52844813D01*
X107387779Y-52887905D01*
X107409006Y-52927618D01*
X107437573Y-52962427D01*
X107472382Y-52990994D01*
X107512095Y-53012221D01*
X107555187Y-53025292D01*
X107600000Y-53029706D01*
X108600000Y-53029706D01*
X108644813Y-53025292D01*
X108687905Y-53012221D01*
X108727618Y-52990994D01*
X108762427Y-52962427D01*
X108790994Y-52927618D01*
X108812221Y-52887905D01*
X108825292Y-52844813D01*
X108829706Y-52800000D01*
X108829706Y-52070360D01*
X108987811Y-51912255D01*
X109110151Y-51912255D01*
X109231595Y-51888099D01*
X109345993Y-51840714D01*
X109448948Y-51771921D01*
X109536505Y-51684364D01*
X109605298Y-51581409D01*
X109652683Y-51467011D01*
X109676839Y-51345567D01*
X109676839Y-51221743D01*
X109652683Y-51100299D01*
X109605298Y-50985901D01*
X109536505Y-50882946D01*
X109448948Y-50795389D01*
X109345993Y-50726596D01*
X109231595Y-50679211D01*
X109110151Y-50655055D01*
X108986327Y-50655055D01*
X108864883Y-50679211D01*
X108829706Y-50693782D01*
X108829706Y-50070360D01*
X108946466Y-49953600D01*
X109780256Y-49953600D01*
X109811734Y-50000709D01*
X109899291Y-50088266D01*
X110002246Y-50157059D01*
X110116644Y-50204444D01*
X110238088Y-50228600D01*
X110361912Y-50228600D01*
X110483356Y-50204444D01*
X110597754Y-50157059D01*
X110700709Y-50088266D01*
X110788266Y-50000709D01*
X110857059Y-49897754D01*
X110904444Y-49783356D01*
X110928600Y-49661912D01*
X110928600Y-49538088D01*
X110904444Y-49416644D01*
X110857059Y-49302246D01*
X110788266Y-49199291D01*
X110700709Y-49111734D01*
X110597754Y-49042941D01*
X110483356Y-48995556D01*
X110361912Y-48971400D01*
X110238088Y-48971400D01*
X110116644Y-48995556D01*
X110002246Y-49042941D01*
X109899291Y-49111734D01*
X109811734Y-49199291D01*
X109780256Y-49246400D01*
X108817351Y-49246400D01*
X108799999Y-49244691D01*
X108782647Y-49246400D01*
X108782638Y-49246400D01*
X108730682Y-49251517D01*
X108664029Y-49271736D01*
X108664027Y-49271737D01*
X108606950Y-49302246D01*
X108602600Y-49304571D01*
X108548758Y-49348758D01*
X108537692Y-49362242D01*
X108329640Y-49570294D01*
X107600000Y-49570294D01*
X107555187Y-49574708D01*
X107512095Y-49587779D01*
X107472382Y-49609006D01*
X107437573Y-49637573D01*
X107409006Y-49672382D01*
X107387779Y-49712095D01*
X107374708Y-49755187D01*
X107370294Y-49800000D01*
X106829706Y-49800000D01*
X106825292Y-49755187D01*
X106812221Y-49712095D01*
X106790994Y-49672382D01*
X106762427Y-49637573D01*
X106727618Y-49609006D01*
X106687905Y-49587779D01*
X106644813Y-49574708D01*
X106600000Y-49570294D01*
X106453600Y-49570294D01*
X106453600Y-49435375D01*
X106488266Y-49400709D01*
X106557059Y-49297754D01*
X106604444Y-49183356D01*
X106628600Y-49061912D01*
X106628600Y-48938088D01*
X106604444Y-48816644D01*
X106557059Y-48702246D01*
X106488266Y-48599291D01*
X106400709Y-48511734D01*
X106297754Y-48442941D01*
X106183356Y-48395556D01*
X106061912Y-48371400D01*
X105938088Y-48371400D01*
X105816644Y-48395556D01*
X105702246Y-48442941D01*
X105599291Y-48511734D01*
X105511734Y-48599291D01*
X105442941Y-48702246D01*
X105395556Y-48816644D01*
X105371400Y-48938088D01*
X105371400Y-49061912D01*
X105395556Y-49183356D01*
X105442941Y-49297754D01*
X105511734Y-49400709D01*
X105599291Y-49488266D01*
X105702246Y-49557059D01*
X105734198Y-49570294D01*
X105600000Y-49570294D01*
X105555187Y-49574708D01*
X105512095Y-49587779D01*
X105472382Y-49609006D01*
X105437573Y-49637573D01*
X105409006Y-49672382D01*
X105387779Y-49712095D01*
X105374708Y-49755187D01*
X105370294Y-49800000D01*
X100339718Y-49800000D01*
X100560119Y-48706936D01*
X100937532Y-47610851D01*
X101193504Y-47099684D01*
X115862887Y-47099684D01*
X115936816Y-47237741D01*
X116098880Y-47332717D01*
X116276358Y-47394250D01*
X116462430Y-47419978D01*
X116649947Y-47408909D01*
X116831701Y-47361472D01*
X117000708Y-47279487D01*
X117063184Y-47237741D01*
X117137113Y-47099684D01*
X120862887Y-47099684D01*
X120936816Y-47237741D01*
X121098880Y-47332717D01*
X121276358Y-47394250D01*
X121462430Y-47419978D01*
X121649947Y-47408909D01*
X121831701Y-47361472D01*
X122000708Y-47279487D01*
X122063184Y-47237741D01*
X122137113Y-47099684D01*
X121500000Y-46462571D01*
X120862887Y-47099684D01*
X117137113Y-47099684D01*
X116500000Y-46462571D01*
X115862887Y-47099684D01*
X101193504Y-47099684D01*
X101456591Y-46574312D01*
X101558110Y-46424930D01*
X115542522Y-46424930D01*
X115553591Y-46612447D01*
X115601028Y-46794201D01*
X115683013Y-46963208D01*
X115724759Y-47025684D01*
X115862816Y-47099613D01*
X116499929Y-46462500D01*
X116500071Y-46462500D01*
X117137184Y-47099613D01*
X117275241Y-47025684D01*
X117370217Y-46863620D01*
X117431750Y-46686142D01*
X117457478Y-46500070D01*
X117453043Y-46424930D01*
X120542522Y-46424930D01*
X120553591Y-46612447D01*
X120601028Y-46794201D01*
X120683013Y-46963208D01*
X120724759Y-47025684D01*
X120862816Y-47099613D01*
X121499929Y-46462500D01*
X121500071Y-46462500D01*
X122137184Y-47099613D01*
X122275241Y-47025684D01*
X122370217Y-46863620D01*
X122431750Y-46686142D01*
X122457478Y-46500070D01*
X122446409Y-46312553D01*
X122398972Y-46130799D01*
X122316987Y-45961792D01*
X122275241Y-45899316D01*
X122137184Y-45825387D01*
X121500071Y-46462500D01*
X121499929Y-46462500D01*
X120862816Y-45825387D01*
X120724759Y-45899316D01*
X120629783Y-46061380D01*
X120568250Y-46238858D01*
X120542522Y-46424930D01*
X117453043Y-46424930D01*
X117446409Y-46312553D01*
X117398972Y-46130799D01*
X117316987Y-45961792D01*
X117275241Y-45899316D01*
X117137184Y-45825387D01*
X116500071Y-46462500D01*
X116499929Y-46462500D01*
X115862816Y-45825387D01*
X115724759Y-45899316D01*
X115629783Y-46061380D01*
X115568250Y-46238858D01*
X115542522Y-46424930D01*
X101558110Y-46424930D01*
X102069763Y-45672054D01*
X109528017Y-45672054D01*
X109742827Y-45930435D01*
X110104574Y-46142447D01*
X110500732Y-46279812D01*
X110916077Y-46337252D01*
X111334647Y-46312558D01*
X111740356Y-46206679D01*
X112117613Y-46023685D01*
X112257173Y-45930435D01*
X112344565Y-45825316D01*
X115862887Y-45825316D01*
X116500000Y-46462429D01*
X117137113Y-45825316D01*
X120862887Y-45825316D01*
X121500000Y-46462429D01*
X122137113Y-45825316D01*
X122063184Y-45687259D01*
X122037239Y-45672054D01*
X125528017Y-45672054D01*
X125742827Y-45930435D01*
X126104574Y-46142447D01*
X126500732Y-46279812D01*
X126916077Y-46337252D01*
X127334647Y-46312558D01*
X127740356Y-46206679D01*
X128117613Y-46023685D01*
X128257173Y-45930435D01*
X128471983Y-45672054D01*
X127000000Y-44200071D01*
X125528017Y-45672054D01*
X122037239Y-45672054D01*
X121901120Y-45592283D01*
X121723642Y-45530750D01*
X121537570Y-45505022D01*
X121350053Y-45516091D01*
X121168299Y-45563528D01*
X120999292Y-45645513D01*
X120936816Y-45687259D01*
X120862887Y-45825316D01*
X117137113Y-45825316D01*
X117063184Y-45687259D01*
X116901120Y-45592283D01*
X116723642Y-45530750D01*
X116537570Y-45505022D01*
X116350053Y-45516091D01*
X116168299Y-45563528D01*
X115999292Y-45645513D01*
X115936816Y-45687259D01*
X115862887Y-45825316D01*
X112344565Y-45825316D01*
X112471983Y-45672054D01*
X111000000Y-44200071D01*
X109528017Y-45672054D01*
X102069763Y-45672054D01*
X102108181Y-45615525D01*
X102880856Y-44751334D01*
X103622023Y-44116077D01*
X108862748Y-44116077D01*
X108887442Y-44534647D01*
X108993321Y-44940356D01*
X109176315Y-45317613D01*
X109269565Y-45457173D01*
X109527946Y-45671983D01*
X110999929Y-44200000D01*
X111000071Y-44200000D01*
X112472054Y-45671983D01*
X112730435Y-45457173D01*
X112942447Y-45095426D01*
X113079812Y-44699268D01*
X113137252Y-44283923D01*
X113112558Y-43865353D01*
X113085730Y-43762550D01*
X114671400Y-43762550D01*
X114671400Y-44112550D01*
X114687331Y-44274201D01*
X114734493Y-44429638D01*
X114811073Y-44572887D01*
X114914128Y-44698444D01*
X115039697Y-44801483D01*
X115182956Y-44878045D01*
X115338398Y-44925187D01*
X115370329Y-44930891D01*
X115499950Y-44883950D01*
X115499950Y-43762550D01*
X115500050Y-43762550D01*
X115500050Y-44883950D01*
X115629671Y-44930891D01*
X115661602Y-44925187D01*
X115817044Y-44878045D01*
X115960303Y-44801483D01*
X116085872Y-44698444D01*
X116188927Y-44572887D01*
X116265507Y-44429638D01*
X116312669Y-44274201D01*
X116328600Y-44112550D01*
X116328600Y-43762550D01*
X121671400Y-43762550D01*
X121671400Y-44112550D01*
X121687331Y-44274201D01*
X121734493Y-44429638D01*
X121811073Y-44572887D01*
X121914128Y-44698444D01*
X122039697Y-44801483D01*
X122182956Y-44878045D01*
X122338398Y-44925187D01*
X122370329Y-44930891D01*
X122499950Y-44883950D01*
X122499950Y-43762550D01*
X122500050Y-43762550D01*
X122500050Y-44883950D01*
X122629671Y-44930891D01*
X122661602Y-44925187D01*
X122817044Y-44878045D01*
X122960303Y-44801483D01*
X123085872Y-44698444D01*
X123188927Y-44572887D01*
X123265507Y-44429638D01*
X123312669Y-44274201D01*
X123328252Y-44116077D01*
X124862748Y-44116077D01*
X124887442Y-44534647D01*
X124993321Y-44940356D01*
X125176315Y-45317613D01*
X125269565Y-45457173D01*
X125527946Y-45671983D01*
X126999929Y-44200000D01*
X127000071Y-44200000D01*
X128472054Y-45671983D01*
X128730435Y-45457173D01*
X128942447Y-45095426D01*
X129079812Y-44699268D01*
X129137252Y-44283923D01*
X129112558Y-43865353D01*
X129006679Y-43459644D01*
X128823685Y-43082387D01*
X128730435Y-42942827D01*
X128472054Y-42728017D01*
X127000071Y-44200000D01*
X126999929Y-44200000D01*
X125527946Y-42728017D01*
X125269565Y-42942827D01*
X125057553Y-43304574D01*
X124920188Y-43700732D01*
X124862748Y-44116077D01*
X123328252Y-44116077D01*
X123328600Y-44112550D01*
X123328600Y-43762550D01*
X122500050Y-43762550D01*
X122499950Y-43762550D01*
X121671400Y-43762550D01*
X116328600Y-43762550D01*
X115500050Y-43762550D01*
X115499950Y-43762550D01*
X114671400Y-43762550D01*
X113085730Y-43762550D01*
X113006679Y-43459644D01*
X112983787Y-43412450D01*
X114671400Y-43412450D01*
X114671400Y-43762450D01*
X115499950Y-43762450D01*
X115499950Y-42641050D01*
X115500050Y-42641050D01*
X115500050Y-43762450D01*
X116328600Y-43762450D01*
X116328600Y-43412450D01*
X121671400Y-43412450D01*
X121671400Y-43762450D01*
X122499950Y-43762450D01*
X122499950Y-42641050D01*
X122500050Y-42641050D01*
X122500050Y-43762450D01*
X123328600Y-43762450D01*
X123328600Y-43412450D01*
X123312669Y-43250799D01*
X123265507Y-43095362D01*
X123188927Y-42952113D01*
X123085872Y-42826556D01*
X122960303Y-42723517D01*
X122817044Y-42646955D01*
X122661602Y-42599813D01*
X122629671Y-42594109D01*
X122500050Y-42641050D01*
X122499950Y-42641050D01*
X122370329Y-42594109D01*
X122338398Y-42599813D01*
X122182956Y-42646955D01*
X122039697Y-42723517D01*
X121914128Y-42826556D01*
X121811073Y-42952113D01*
X121734493Y-43095362D01*
X121687331Y-43250799D01*
X121671400Y-43412450D01*
X116328600Y-43412450D01*
X116312669Y-43250799D01*
X116265507Y-43095362D01*
X116188927Y-42952113D01*
X116085872Y-42826556D01*
X115960303Y-42723517D01*
X115817044Y-42646955D01*
X115661602Y-42599813D01*
X115629671Y-42594109D01*
X115500050Y-42641050D01*
X115499950Y-42641050D01*
X115370329Y-42594109D01*
X115338398Y-42599813D01*
X115182956Y-42646955D01*
X115039697Y-42723517D01*
X114914128Y-42826556D01*
X114811073Y-42952113D01*
X114734493Y-43095362D01*
X114687331Y-43250799D01*
X114671400Y-43412450D01*
X112983787Y-43412450D01*
X112823685Y-43082387D01*
X112730435Y-42942827D01*
X112472054Y-42728017D01*
X111000071Y-44200000D01*
X110999929Y-44200000D01*
X109527946Y-42728017D01*
X109269565Y-42942827D01*
X109057553Y-43304574D01*
X108920188Y-43700732D01*
X108862748Y-44116077D01*
X103622023Y-44116077D01*
X103761030Y-43996934D01*
X104733255Y-43365563D01*
X105780443Y-42868322D01*
X106884191Y-42513947D01*
X108026419Y-42308428D01*
X109007092Y-42253600D01*
X110135374Y-42253600D01*
X109882387Y-42376315D01*
G37*
X109882387Y-42376315D02*
X109742827Y-42469565D01*
X109528017Y-42727946D01*
X111000000Y-44199929D01*
X112471983Y-42727946D01*
X112257173Y-42469565D01*
X111895426Y-42257553D01*
X111884026Y-42253600D01*
X126135374Y-42253600D01*
X125882387Y-42376315D01*
X125742827Y-42469565D01*
X125528017Y-42727946D01*
X127000000Y-44199929D01*
X128471983Y-42727946D01*
X128257173Y-42469565D01*
X127895426Y-42257553D01*
X127884026Y-42253600D01*
X128991594Y-42253600D01*
X130156689Y-42330985D01*
X131293064Y-42560119D01*
X132389149Y-42937532D01*
X133425688Y-43456591D01*
X134384475Y-44108181D01*
X135248666Y-44880856D01*
X136003066Y-45761030D01*
X136634437Y-46733255D01*
X137131678Y-47780443D01*
X137486053Y-48884191D01*
X137691572Y-50026419D01*
X137746400Y-51007092D01*
X137746401Y-61435375D01*
X137623685Y-61182387D01*
X137530435Y-61042827D01*
X137272054Y-60828017D01*
X135800071Y-62300000D01*
X137272054Y-63771983D01*
X137530435Y-63557173D01*
X137742447Y-63195426D01*
X137746401Y-63184023D01*
X137746401Y-65746400D01*
X100253600Y-65746400D01*
X100253600Y-63772054D01*
X100728017Y-63772054D01*
X100942827Y-64030435D01*
X101304574Y-64242447D01*
X101700732Y-64379812D01*
X102116077Y-64437252D01*
X102534647Y-64412558D01*
X102940356Y-64306679D01*
X103057204Y-64250000D01*
X113470294Y-64250000D01*
X113474708Y-64294813D01*
X113487779Y-64337905D01*
X113509006Y-64377618D01*
X113537573Y-64412427D01*
X113572382Y-64440994D01*
X113612095Y-64462221D01*
X113655187Y-64475292D01*
X113700000Y-64479706D01*
X114642800Y-64478600D01*
X114699950Y-64421450D01*
X114699950Y-63600050D01*
X114700050Y-63600050D01*
X114700050Y-64421450D01*
X114757200Y-64478600D01*
X115700000Y-64479706D01*
X115744813Y-64475292D01*
X115787905Y-64462221D01*
X115827618Y-64440994D01*
X115862427Y-64412427D01*
X115890994Y-64377618D01*
X115912221Y-64337905D01*
X115925292Y-64294813D01*
X115929706Y-64250000D01*
X122070294Y-64250000D01*
X122074708Y-64294813D01*
X122087779Y-64337905D01*
X122109006Y-64377618D01*
X122137573Y-64412427D01*
X122172382Y-64440994D01*
X122212095Y-64462221D01*
X122255187Y-64475292D01*
X122300000Y-64479706D01*
X123242800Y-64478600D01*
X123299950Y-64421450D01*
X123299950Y-63600050D01*
X123300050Y-63600050D01*
X123300050Y-64421450D01*
X123357200Y-64478600D01*
X124300000Y-64479706D01*
X124344813Y-64475292D01*
X124387905Y-64462221D01*
X124427618Y-64440994D01*
X124462427Y-64412427D01*
X124490994Y-64377618D01*
X124512221Y-64337905D01*
X124525292Y-64294813D01*
X124529706Y-64250000D01*
X124528815Y-63772054D01*
X134328017Y-63772054D01*
X134542827Y-64030435D01*
X134904574Y-64242447D01*
X135300732Y-64379812D01*
X135716077Y-64437252D01*
X136134647Y-64412558D01*
X136540356Y-64306679D01*
X136917613Y-64123685D01*
X137057173Y-64030435D01*
X137271983Y-63772054D01*
X135800000Y-62300071D01*
X134328017Y-63772054D01*
X124528815Y-63772054D01*
X124528600Y-63657200D01*
X124471450Y-63600050D01*
X123300050Y-63600050D01*
X123299950Y-63600050D01*
X122128550Y-63600050D01*
X122071400Y-63657200D01*
X122070294Y-64250000D01*
X115929706Y-64250000D01*
X115928600Y-63657200D01*
X115871450Y-63600050D01*
X114700050Y-63600050D01*
X114699950Y-63600050D01*
X113528550Y-63600050D01*
X113471400Y-63657200D01*
X113470294Y-64250000D01*
X103057204Y-64250000D01*
X103317613Y-64123685D01*
X103457173Y-64030435D01*
X103671983Y-63772054D01*
X102200000Y-62300071D01*
X100728017Y-63772054D01*
X100253600Y-63772054D01*
X100253600Y-63164626D01*
X100376315Y-63417613D01*
X100469565Y-63557173D01*
X100727946Y-63771983D01*
X102199929Y-62300000D01*
X102200071Y-62300000D01*
X103672054Y-63771983D01*
X103930435Y-63557173D01*
X104142447Y-63195426D01*
X104227546Y-62950000D01*
X113470294Y-62950000D01*
X113471400Y-63542800D01*
X113528550Y-63599950D01*
X114699950Y-63599950D01*
X114699950Y-62778550D01*
X114700050Y-62778550D01*
X114700050Y-63599950D01*
X115871450Y-63599950D01*
X115928600Y-63542800D01*
X115929706Y-62950000D01*
X122070294Y-62950000D01*
X122071400Y-63542800D01*
X122128550Y-63599950D01*
X123299950Y-63599950D01*
X123299950Y-62778550D01*
X123300050Y-62778550D01*
X123300050Y-63599950D01*
X124471450Y-63599950D01*
X124528600Y-63542800D01*
X124529706Y-62950000D01*
X124525292Y-62905187D01*
X124512221Y-62862095D01*
X124490994Y-62822382D01*
X124462427Y-62787573D01*
X124427618Y-62759006D01*
X124387905Y-62737779D01*
X124344813Y-62724708D01*
X124300000Y-62720294D01*
X123357200Y-62721400D01*
X123300050Y-62778550D01*
X123299950Y-62778550D01*
X123242800Y-62721400D01*
X122300000Y-62720294D01*
X122255187Y-62724708D01*
X122212095Y-62737779D01*
X122172382Y-62759006D01*
X122137573Y-62787573D01*
X122109006Y-62822382D01*
X122087779Y-62862095D01*
X122074708Y-62905187D01*
X122070294Y-62950000D01*
X115929706Y-62950000D01*
X115925292Y-62905187D01*
X115912221Y-62862095D01*
X115890994Y-62822382D01*
X115862427Y-62787573D01*
X115827618Y-62759006D01*
X115787905Y-62737779D01*
X115744813Y-62724708D01*
X115700000Y-62720294D01*
X114757200Y-62721400D01*
X114700050Y-62778550D01*
X114699950Y-62778550D01*
X114642800Y-62721400D01*
X113700000Y-62720294D01*
X113655187Y-62724708D01*
X113612095Y-62737779D01*
X113572382Y-62759006D01*
X113537573Y-62787573D01*
X113509006Y-62822382D01*
X113487779Y-62862095D01*
X113474708Y-62905187D01*
X113470294Y-62950000D01*
X104227546Y-62950000D01*
X104279812Y-62799268D01*
X104337252Y-62383923D01*
X104312558Y-61965353D01*
X104206679Y-61559644D01*
X104023685Y-61182387D01*
X103930435Y-61042827D01*
X103672054Y-60828017D01*
X102200071Y-62300000D01*
X102199929Y-62300000D01*
X100727946Y-60828017D01*
X100469565Y-61042827D01*
X100257553Y-61404574D01*
X100253600Y-61415974D01*
X100253600Y-60827946D01*
X100728017Y-60827946D01*
X102200000Y-62299929D01*
X103671983Y-60827946D01*
X103457173Y-60569565D01*
X103095426Y-60357553D01*
X102699268Y-60220188D01*
X102283923Y-60162748D01*
X101865353Y-60187442D01*
X101459644Y-60293321D01*
X101082387Y-60476315D01*
X100942827Y-60569565D01*
X100728017Y-60827946D01*
X100253600Y-60827946D01*
X100253600Y-57438088D01*
X104371400Y-57438088D01*
X104371400Y-57561912D01*
X104395556Y-57683356D01*
X104442941Y-57797754D01*
X104511734Y-57900709D01*
X104599291Y-57988266D01*
X104702246Y-58057059D01*
X104816644Y-58104444D01*
X104938088Y-58128600D01*
X105061912Y-58128600D01*
X105183356Y-58104444D01*
X105297754Y-58057059D01*
X105400709Y-57988266D01*
X105488266Y-57900709D01*
X105513506Y-57862935D01*
X108946553Y-57862935D01*
X108946553Y-57986759D01*
X108970709Y-58108203D01*
X109018094Y-58222601D01*
X109086887Y-58325556D01*
X109174444Y-58413113D01*
X109221553Y-58444591D01*
X109221554Y-59496858D01*
X109199291Y-59511734D01*
X109111734Y-59599291D01*
X109042941Y-59702246D01*
X108995556Y-59816644D01*
X108971400Y-59938088D01*
X108971400Y-60061912D01*
X108995556Y-60183356D01*
X109042941Y-60297754D01*
X109111734Y-60400709D01*
X109199291Y-60488266D01*
X109302246Y-60557059D01*
X109416644Y-60604444D01*
X109538088Y-60628600D01*
X109661912Y-60628600D01*
X109783356Y-60604444D01*
X109897754Y-60557059D01*
X110000709Y-60488266D01*
X110088266Y-60400709D01*
X110157059Y-60297754D01*
X110204444Y-60183356D01*
X110228600Y-60061912D01*
X110228600Y-59938088D01*
X110204444Y-59816644D01*
X110157059Y-59702246D01*
X110088266Y-59599291D01*
X110000709Y-59511734D01*
X109928753Y-59463654D01*
X109928753Y-59188100D01*
X114016599Y-59188100D01*
X114016599Y-59311924D01*
X114040755Y-59433368D01*
X114088140Y-59547766D01*
X114156933Y-59650721D01*
X114244490Y-59738278D01*
X114291600Y-59769756D01*
X114291601Y-60815345D01*
X114289891Y-60832707D01*
X114291601Y-60850068D01*
X114291601Y-60850069D01*
X114296718Y-60902025D01*
X114300154Y-60913351D01*
X114316937Y-60968678D01*
X114322992Y-60980005D01*
X114349772Y-61030107D01*
X114393959Y-61083949D01*
X114407443Y-61095015D01*
X116032405Y-62719979D01*
X116043471Y-62733463D01*
X116097313Y-62777650D01*
X116158742Y-62810485D01*
X116225395Y-62830704D01*
X116277351Y-62835821D01*
X116277360Y-62835821D01*
X116294712Y-62837530D01*
X116312064Y-62835821D01*
X117788613Y-62835821D01*
X117805965Y-62837530D01*
X117823317Y-62835821D01*
X117823327Y-62835821D01*
X117875283Y-62830704D01*
X117941936Y-62810485D01*
X118003365Y-62777650D01*
X118057207Y-62733463D01*
X118068278Y-62719973D01*
X118640170Y-62148081D01*
X118653649Y-62137019D01*
X118664712Y-62123539D01*
X118664717Y-62123534D01*
X118697837Y-62083177D01*
X118697838Y-62083176D01*
X118730672Y-62021748D01*
X118750891Y-61955095D01*
X118756008Y-61903139D01*
X118756008Y-61903130D01*
X118757717Y-61885778D01*
X118756008Y-61868426D01*
X118756008Y-61745434D01*
X118795429Y-61697400D01*
X118828264Y-61635971D01*
X118830740Y-61627809D01*
X118850000Y-61629706D01*
X118942800Y-61628600D01*
X118999950Y-61571450D01*
X118999950Y-60900050D01*
X118979950Y-60900050D01*
X118979950Y-60899950D01*
X118999950Y-60899950D01*
X118999950Y-60228550D01*
X119000050Y-60228550D01*
X119000050Y-60899950D01*
X119020050Y-60899950D01*
X119020050Y-60900050D01*
X119000050Y-60900050D01*
X119000050Y-61571450D01*
X119057200Y-61628600D01*
X119146400Y-61629663D01*
X119146400Y-61770834D01*
X119144691Y-61788186D01*
X119146400Y-61805538D01*
X119146400Y-61805547D01*
X119151517Y-61857503D01*
X119171736Y-61924156D01*
X119193757Y-61965353D01*
X119204571Y-61985585D01*
X119237644Y-62025884D01*
X119248758Y-62039427D01*
X119262244Y-62050495D01*
X119931722Y-62719973D01*
X119942793Y-62733463D01*
X119972575Y-62757905D01*
X119996635Y-62777651D01*
X120037079Y-62799268D01*
X120058064Y-62810485D01*
X120124717Y-62830704D01*
X120176673Y-62835821D01*
X120176675Y-62835821D01*
X120194035Y-62837531D01*
X120211395Y-62835821D01*
X121750427Y-62835821D01*
X121767779Y-62837530D01*
X121785131Y-62835821D01*
X121785141Y-62835821D01*
X121837097Y-62830704D01*
X121903750Y-62810485D01*
X121965179Y-62777650D01*
X122019021Y-62733463D01*
X122030092Y-62719973D01*
X122533988Y-62216077D01*
X133662748Y-62216077D01*
X133687442Y-62634647D01*
X133793321Y-63040356D01*
X133976315Y-63417613D01*
X134069565Y-63557173D01*
X134327946Y-63771983D01*
X135799929Y-62300000D01*
X134327946Y-60828017D01*
X134069565Y-61042827D01*
X133857553Y-61404574D01*
X133720188Y-61800732D01*
X133662748Y-62216077D01*
X122533988Y-62216077D01*
X123042578Y-61707488D01*
X123056062Y-61696422D01*
X123100249Y-61642580D01*
X123110465Y-61623468D01*
X123133083Y-61581153D01*
X123133084Y-61581151D01*
X123153303Y-61514498D01*
X123158420Y-61462542D01*
X123158420Y-61462533D01*
X123160129Y-61445181D01*
X123158420Y-61427829D01*
X123158420Y-60827946D01*
X134328017Y-60827946D01*
X135800000Y-62299929D01*
X137271983Y-60827946D01*
X137057173Y-60569565D01*
X136695426Y-60357553D01*
X136299268Y-60220188D01*
X135883923Y-60162748D01*
X135465353Y-60187442D01*
X135059644Y-60293321D01*
X134682387Y-60476315D01*
X134542827Y-60569565D01*
X134328017Y-60827946D01*
X123158420Y-60827946D01*
X123158420Y-60663292D01*
X123665158Y-60156555D01*
X123678642Y-60145489D01*
X123692503Y-60128600D01*
X123722829Y-60091647D01*
X123741317Y-60057059D01*
X123750297Y-60040259D01*
X123828109Y-59988266D01*
X123915666Y-59900709D01*
X123984459Y-59797754D01*
X124031844Y-59683356D01*
X124056000Y-59561912D01*
X124056000Y-59438088D01*
X124031844Y-59316644D01*
X123984459Y-59202246D01*
X123915666Y-59099291D01*
X123828109Y-59011734D01*
X123725154Y-58942941D01*
X123610756Y-58895556D01*
X123489312Y-58871400D01*
X123365488Y-58871400D01*
X123244044Y-58895556D01*
X123129646Y-58942941D01*
X123026691Y-59011734D01*
X122939134Y-59099291D01*
X122870341Y-59202246D01*
X122822956Y-59316644D01*
X122798800Y-59438088D01*
X122798800Y-59561912D01*
X122822956Y-59683356D01*
X122870341Y-59797754D01*
X122931819Y-59889762D01*
X122567063Y-60254519D01*
X122553578Y-60265586D01*
X122509391Y-60319428D01*
X122476556Y-60380857D01*
X122456337Y-60447510D01*
X122451220Y-60499466D01*
X122451220Y-60499475D01*
X122449511Y-60516827D01*
X122451220Y-60534179D01*
X122451221Y-61298713D01*
X121621314Y-62128621D01*
X120340500Y-62128621D01*
X119853600Y-61641721D01*
X119853600Y-61629663D01*
X119942800Y-61628600D01*
X119999950Y-61571450D01*
X119999950Y-60900050D01*
X119979950Y-60900050D01*
X119979950Y-60899950D01*
X119999950Y-60899950D01*
X119999950Y-60228550D01*
X120000050Y-60228550D01*
X120000050Y-60899950D01*
X120020050Y-60899950D01*
X120020050Y-60900050D01*
X120000050Y-60900050D01*
X120000050Y-61571450D01*
X120057200Y-61628600D01*
X120146400Y-61629663D01*
X120146400Y-61632648D01*
X120144691Y-61650000D01*
X120146400Y-61667352D01*
X120146400Y-61667361D01*
X120151517Y-61719317D01*
X120171736Y-61785970D01*
X120204571Y-61847399D01*
X120248758Y-61901241D01*
X120262244Y-61912309D01*
X120265088Y-61915153D01*
X120276159Y-61928643D01*
X120308390Y-61955094D01*
X120330002Y-61972831D01*
X120340167Y-61978264D01*
X120391430Y-62005665D01*
X120458083Y-62025884D01*
X120510039Y-62031001D01*
X120510049Y-62031001D01*
X120527401Y-62032710D01*
X120544753Y-62031001D01*
X121354569Y-62031001D01*
X121371921Y-62032710D01*
X121389273Y-62031001D01*
X121389283Y-62031001D01*
X121441239Y-62025884D01*
X121507892Y-62005665D01*
X121569321Y-61972830D01*
X121623163Y-61928643D01*
X121634234Y-61915153D01*
X122237758Y-61311630D01*
X122251242Y-61300564D01*
X122276877Y-61269328D01*
X122295430Y-61246722D01*
X122317960Y-61204571D01*
X122328264Y-61185293D01*
X122348483Y-61118640D01*
X122353600Y-61066684D01*
X122353600Y-61066674D01*
X122355309Y-61049322D01*
X122353600Y-61031970D01*
X122353600Y-60269744D01*
X122400709Y-60238266D01*
X122488266Y-60150709D01*
X122557059Y-60047754D01*
X122604444Y-59933356D01*
X122628600Y-59811912D01*
X122628600Y-59688088D01*
X122604444Y-59566644D01*
X122557059Y-59452246D01*
X122488266Y-59349291D01*
X122400709Y-59261734D01*
X122297754Y-59192941D01*
X122183356Y-59145556D01*
X122061912Y-59121400D01*
X121938088Y-59121400D01*
X121816644Y-59145556D01*
X121702246Y-59192941D01*
X121599291Y-59261734D01*
X121511734Y-59349291D01*
X121442941Y-59452246D01*
X121395556Y-59566644D01*
X121371400Y-59688088D01*
X121371400Y-59811912D01*
X121395556Y-59933356D01*
X121442941Y-60047754D01*
X121511734Y-60150709D01*
X121599291Y-60238266D01*
X121646400Y-60269744D01*
X121646401Y-60902855D01*
X121379132Y-61170125D01*
X121378600Y-60957200D01*
X121321450Y-60900050D01*
X121000050Y-60900050D01*
X121000050Y-60920050D01*
X120999950Y-60920050D01*
X120999950Y-60900050D01*
X120979950Y-60900050D01*
X120979950Y-60899950D01*
X120999950Y-60899950D01*
X120999950Y-60228550D01*
X121000050Y-60228550D01*
X121000050Y-60899950D01*
X121321450Y-60899950D01*
X121378600Y-60842800D01*
X121379706Y-60400000D01*
X121375292Y-60355187D01*
X121362221Y-60312095D01*
X121340994Y-60272382D01*
X121312427Y-60237573D01*
X121277618Y-60209006D01*
X121237905Y-60187779D01*
X121194813Y-60174708D01*
X121150000Y-60170294D01*
X121057200Y-60171400D01*
X121000050Y-60228550D01*
X120999950Y-60228550D01*
X120942800Y-60171400D01*
X120850000Y-60170294D01*
X120805187Y-60174708D01*
X120762095Y-60187779D01*
X120750000Y-60194244D01*
X120737905Y-60187779D01*
X120694813Y-60174708D01*
X120650000Y-60170294D01*
X120350000Y-60170294D01*
X120305187Y-60174708D01*
X120262095Y-60187779D01*
X120250000Y-60194244D01*
X120237905Y-60187779D01*
X120194813Y-60174708D01*
X120150000Y-60170294D01*
X120057200Y-60171400D01*
X120000050Y-60228550D01*
X119999950Y-60228550D01*
X119942800Y-60171400D01*
X119850000Y-60170294D01*
X119805187Y-60174708D01*
X119762095Y-60187779D01*
X119750000Y-60194244D01*
X119737905Y-60187779D01*
X119694813Y-60174708D01*
X119650000Y-60170294D01*
X119350000Y-60170294D01*
X119305187Y-60174708D01*
X119262095Y-60187779D01*
X119250000Y-60194244D01*
X119237905Y-60187779D01*
X119194813Y-60174708D01*
X119150000Y-60170294D01*
X119057200Y-60171400D01*
X119000050Y-60228550D01*
X118999950Y-60228550D01*
X118942800Y-60171400D01*
X118850000Y-60170294D01*
X118805187Y-60174708D01*
X118762095Y-60187779D01*
X118750000Y-60194244D01*
X118737905Y-60187779D01*
X118694813Y-60174708D01*
X118650000Y-60170294D01*
X118350000Y-60170294D01*
X118305187Y-60174708D01*
X118262095Y-60187779D01*
X118250000Y-60194244D01*
X118237905Y-60187779D01*
X118194813Y-60174708D01*
X118150000Y-60170294D01*
X118057200Y-60171400D01*
X118000050Y-60228550D01*
X118000050Y-60899950D01*
X118020050Y-60899950D01*
X118020050Y-60900050D01*
X118000050Y-60900050D01*
X118000050Y-61571450D01*
X118048808Y-61620208D01*
X118048808Y-61739312D01*
X117659500Y-62128621D01*
X116441179Y-62128621D01*
X114998800Y-60686242D01*
X114998799Y-59769756D01*
X115045908Y-59738278D01*
X115096098Y-59688088D01*
X115371400Y-59688088D01*
X115371400Y-59811912D01*
X115395556Y-59933356D01*
X115442941Y-60047754D01*
X115511734Y-60150709D01*
X115599291Y-60238266D01*
X115646400Y-60269744D01*
X115646401Y-61031960D01*
X115644691Y-61049322D01*
X115646401Y-61066684D01*
X115651518Y-61118640D01*
X115664359Y-61160970D01*
X115671737Y-61185293D01*
X115702199Y-61242282D01*
X115704572Y-61246722D01*
X115748759Y-61300564D01*
X115762243Y-61311630D01*
X116365771Y-61915159D01*
X116376837Y-61928643D01*
X116390321Y-61939709D01*
X116390322Y-61939710D01*
X116430679Y-61972831D01*
X116454543Y-61985586D01*
X116492108Y-62005665D01*
X116558761Y-62025884D01*
X116610717Y-62031001D01*
X116610727Y-62031001D01*
X116628079Y-62032710D01*
X116645431Y-62031001D01*
X117455247Y-62031001D01*
X117472599Y-62032710D01*
X117489951Y-62031001D01*
X117489961Y-62031001D01*
X117541917Y-62025884D01*
X117608570Y-62005665D01*
X117669999Y-61972830D01*
X117723841Y-61928643D01*
X117734912Y-61915153D01*
X117737757Y-61912308D01*
X117751241Y-61901242D01*
X117772942Y-61874800D01*
X117795430Y-61847399D01*
X117811966Y-61816461D01*
X117828264Y-61785971D01*
X117848483Y-61719318D01*
X117853600Y-61667362D01*
X117853600Y-61667352D01*
X117855309Y-61650000D01*
X117853600Y-61632648D01*
X117853600Y-61629663D01*
X117942800Y-61628600D01*
X117999950Y-61571450D01*
X117999950Y-60900050D01*
X117979950Y-60900050D01*
X117979950Y-60899950D01*
X117999950Y-60899950D01*
X117999950Y-60228550D01*
X117942800Y-60171400D01*
X117850000Y-60170294D01*
X117805187Y-60174708D01*
X117762095Y-60187779D01*
X117750000Y-60194244D01*
X117737905Y-60187779D01*
X117694813Y-60174708D01*
X117650000Y-60170294D01*
X117350000Y-60170294D01*
X117305187Y-60174708D01*
X117262095Y-60187779D01*
X117250000Y-60194244D01*
X117237905Y-60187779D01*
X117194813Y-60174708D01*
X117150000Y-60170294D01*
X117057200Y-60171400D01*
X117000050Y-60228550D01*
X117000050Y-60899950D01*
X117020050Y-60899950D01*
X117020050Y-60900050D01*
X117000050Y-60900050D01*
X117000050Y-60920050D01*
X116999950Y-60920050D01*
X116999950Y-60900050D01*
X116678550Y-60900050D01*
X116621400Y-60957200D01*
X116620868Y-61170125D01*
X116353600Y-60902857D01*
X116353600Y-60400000D01*
X116620294Y-60400000D01*
X116621400Y-60842800D01*
X116678550Y-60899950D01*
X116999950Y-60899950D01*
X116999950Y-60228550D01*
X116942800Y-60171400D01*
X116850000Y-60170294D01*
X116805187Y-60174708D01*
X116762095Y-60187779D01*
X116722382Y-60209006D01*
X116687573Y-60237573D01*
X116659006Y-60272382D01*
X116637779Y-60312095D01*
X116624708Y-60355187D01*
X116620294Y-60400000D01*
X116353600Y-60400000D01*
X116353600Y-60269744D01*
X116400709Y-60238266D01*
X116488266Y-60150709D01*
X116557059Y-60047754D01*
X116604444Y-59933356D01*
X116628600Y-59811912D01*
X116628600Y-59688088D01*
X116604444Y-59566644D01*
X116557059Y-59452246D01*
X116488266Y-59349291D01*
X116400709Y-59261734D01*
X116297754Y-59192941D01*
X116183356Y-59145556D01*
X116061912Y-59121400D01*
X115938088Y-59121400D01*
X115816644Y-59145556D01*
X115702246Y-59192941D01*
X115599291Y-59261734D01*
X115511734Y-59349291D01*
X115442941Y-59452246D01*
X115395556Y-59566644D01*
X115371400Y-59688088D01*
X115096098Y-59688088D01*
X115133465Y-59650721D01*
X115202258Y-59547766D01*
X115249643Y-59433368D01*
X115273799Y-59311924D01*
X115273799Y-59188100D01*
X115249643Y-59066656D01*
X115202258Y-58952258D01*
X115133465Y-58849303D01*
X115045908Y-58761746D01*
X114942953Y-58692953D01*
X114828555Y-58645568D01*
X114707111Y-58621412D01*
X114583287Y-58621412D01*
X114461843Y-58645568D01*
X114347445Y-58692953D01*
X114244490Y-58761746D01*
X114156933Y-58849303D01*
X114088140Y-58952258D01*
X114040755Y-59066656D01*
X114016599Y-59188100D01*
X109928753Y-59188100D01*
X109928753Y-58444591D01*
X109975862Y-58413113D01*
X110063419Y-58325556D01*
X110132212Y-58222601D01*
X110179597Y-58108203D01*
X110203753Y-57986759D01*
X110203753Y-57862935D01*
X110179597Y-57741491D01*
X110132212Y-57627093D01*
X110063419Y-57524138D01*
X109975862Y-57436581D01*
X109872907Y-57367788D01*
X109758509Y-57320403D01*
X109637065Y-57296247D01*
X109513241Y-57296247D01*
X109391797Y-57320403D01*
X109277399Y-57367788D01*
X109174444Y-57436581D01*
X109086887Y-57524138D01*
X109018094Y-57627093D01*
X108970709Y-57741491D01*
X108946553Y-57862935D01*
X105513506Y-57862935D01*
X105557059Y-57797754D01*
X105604444Y-57683356D01*
X105628600Y-57561912D01*
X105628600Y-57438088D01*
X105617547Y-57382519D01*
X105846466Y-57153600D01*
X110353535Y-57153600D01*
X110632844Y-57432909D01*
X110643910Y-57446394D01*
X110697752Y-57490581D01*
X110759181Y-57523416D01*
X110825834Y-57543635D01*
X110877790Y-57548752D01*
X110877799Y-57548752D01*
X110895151Y-57550461D01*
X110912503Y-57548752D01*
X112875408Y-57548752D01*
X112906886Y-57595861D01*
X112994443Y-57683418D01*
X113097398Y-57752211D01*
X113211796Y-57799596D01*
X113333240Y-57823752D01*
X113457064Y-57823752D01*
X113578508Y-57799596D01*
X113692906Y-57752211D01*
X113795861Y-57683418D01*
X113883418Y-57595861D01*
X113952211Y-57492906D01*
X113999596Y-57378508D01*
X114023752Y-57257064D01*
X114023752Y-57133240D01*
X113999596Y-57011796D01*
X113952211Y-56897398D01*
X113883418Y-56794443D01*
X113795861Y-56706886D01*
X113692906Y-56638093D01*
X113578508Y-56590708D01*
X113457064Y-56566552D01*
X113333240Y-56566552D01*
X113211796Y-56590708D01*
X113097398Y-56638093D01*
X112994443Y-56706886D01*
X112906886Y-56794443D01*
X112875408Y-56841552D01*
X111041618Y-56841552D01*
X110762313Y-56562247D01*
X110751242Y-56548758D01*
X110697400Y-56504571D01*
X110635971Y-56471736D01*
X110569318Y-56451517D01*
X110517362Y-56446400D01*
X110517352Y-56446400D01*
X110500000Y-56444691D01*
X110482648Y-56446400D01*
X105717351Y-56446400D01*
X105699999Y-56444691D01*
X105682647Y-56446400D01*
X105682638Y-56446400D01*
X105630682Y-56451517D01*
X105564029Y-56471736D01*
X105502600Y-56504571D01*
X105448758Y-56548758D01*
X105437692Y-56562242D01*
X105117481Y-56882453D01*
X105061912Y-56871400D01*
X104938088Y-56871400D01*
X104816644Y-56895556D01*
X104702246Y-56942941D01*
X104599291Y-57011734D01*
X104511734Y-57099291D01*
X104442941Y-57202246D01*
X104395556Y-57316644D01*
X104371400Y-57438088D01*
X100253600Y-57438088D01*
X100253600Y-55138088D01*
X101271400Y-55138088D01*
X101271400Y-55261912D01*
X101295556Y-55383356D01*
X101342941Y-55497754D01*
X101411734Y-55600709D01*
X101499291Y-55688266D01*
X101602246Y-55757059D01*
X101716644Y-55804444D01*
X101838088Y-55828600D01*
X101961912Y-55828600D01*
X102083356Y-55804444D01*
X102197754Y-55757059D01*
X102300709Y-55688266D01*
X102388266Y-55600709D01*
X102457059Y-55497754D01*
X102504444Y-55383356D01*
X102528600Y-55261912D01*
X102528600Y-55138088D01*
X102517547Y-55082519D01*
X103137762Y-54462304D01*
X103151241Y-54451242D01*
X103162304Y-54437762D01*
X103162310Y-54437756D01*
X103195430Y-54397400D01*
X103228264Y-54335972D01*
X103248483Y-54269317D01*
X103255310Y-54200000D01*
X103253600Y-54182638D01*
X103253600Y-52800000D01*
X105370294Y-52800000D01*
X105374708Y-52844813D01*
X105387779Y-52887905D01*
X105409006Y-52927618D01*
X105437573Y-52962427D01*
X105472382Y-52990994D01*
X105512095Y-53012221D01*
X105555187Y-53025292D01*
X105600000Y-53029706D01*
X106042800Y-53028600D01*
X106099950Y-52971450D01*
X106099950Y-52300050D01*
X106100050Y-52300050D01*
X106100050Y-52971450D01*
X106157200Y-53028600D01*
X106600000Y-53029706D01*
X106644813Y-53025292D01*
X106687905Y-53012221D01*
X106727618Y-52990994D01*
X106762427Y-52962427D01*
X106790994Y-52927618D01*
X106812221Y-52887905D01*
X106825292Y-52844813D01*
X106829706Y-52800000D01*
X106828600Y-52357200D01*
X106771450Y-52300050D01*
X106100050Y-52300050D01*
X106099950Y-52300050D01*
X105428550Y-52300050D01*
X105371400Y-52357200D01*
X105370294Y-52800000D01*
X103253600Y-52800000D01*
X103253600Y-52019744D01*
X103300709Y-51988266D01*
X103388266Y-51900709D01*
X103455558Y-51800000D01*
X105370294Y-51800000D01*
X105371400Y-52242800D01*
X105428550Y-52299950D01*
X106099950Y-52299950D01*
X106099950Y-51628550D01*
X106100050Y-51628550D01*
X106100050Y-52299950D01*
X106771450Y-52299950D01*
X106828600Y-52242800D01*
X106829706Y-51800000D01*
X106825292Y-51755187D01*
X106812221Y-51712095D01*
X106790994Y-51672382D01*
X106762427Y-51637573D01*
X106727618Y-51609006D01*
X106687905Y-51587779D01*
X106644813Y-51574708D01*
X106600000Y-51570294D01*
X106157200Y-51571400D01*
X106100050Y-51628550D01*
X106099950Y-51628550D01*
X106042800Y-51571400D01*
X105600000Y-51570294D01*
X105555187Y-51574708D01*
X105512095Y-51587779D01*
X105472382Y-51609006D01*
X105437573Y-51637573D01*
X105409006Y-51672382D01*
X105387779Y-51712095D01*
X105374708Y-51755187D01*
X105370294Y-51800000D01*
X103455558Y-51800000D01*
X103457059Y-51797754D01*
X103504444Y-51683356D01*
X103528600Y-51561912D01*
X103528600Y-51438088D01*
X103504444Y-51316644D01*
X103457059Y-51202246D01*
X103388266Y-51099291D01*
X103300709Y-51011734D01*
X103197754Y-50942941D01*
X103083356Y-50895556D01*
X102961912Y-50871400D01*
X102838088Y-50871400D01*
X102716644Y-50895556D01*
X102602246Y-50942941D01*
X102499291Y-51011734D01*
X102411734Y-51099291D01*
X102342941Y-51202246D01*
X102295556Y-51316644D01*
X102271400Y-51438088D01*
X102271400Y-51561912D01*
X102295556Y-51683356D01*
X102342941Y-51797754D01*
X102411734Y-51900709D01*
X102499291Y-51988266D01*
X102546401Y-52019744D01*
X102546400Y-54053534D01*
X102017481Y-54582453D01*
X101961912Y-54571400D01*
X101838088Y-54571400D01*
X101716644Y-54595556D01*
X101602246Y-54642941D01*
X101499291Y-54711734D01*
X101411734Y-54799291D01*
X101342941Y-54902246D01*
X101295556Y-55016644D01*
X101271400Y-55138088D01*
X100253600Y-55138088D01*
X100253600Y-51008406D01*
X100330985Y-49843311D01*
X100339718Y-49800000D01*
X105370294Y-49800000D01*
X105370294Y-50800000D01*
X105374708Y-50844813D01*
X105387779Y-50887905D01*
X105409006Y-50927618D01*
X105437573Y-50962427D01*
X105472382Y-50990994D01*
X105512095Y-51012221D01*
X105555187Y-51025292D01*
X105600000Y-51029706D01*
X106600000Y-51029706D01*
X106644813Y-51025292D01*
X106687905Y-51012221D01*
X106727618Y-50990994D01*
X106762427Y-50962427D01*
X106790994Y-50927618D01*
X106812221Y-50887905D01*
X106825292Y-50844813D01*
X106829706Y-50800000D01*
X106829706Y-49800000D01*
X107370294Y-49800000D01*
X107370294Y-50800000D01*
X107374708Y-50844813D01*
X107387779Y-50887905D01*
X107409006Y-50927618D01*
X107437573Y-50962427D01*
X107472382Y-50990994D01*
X107512095Y-51012221D01*
X107555187Y-51025292D01*
X107600000Y-51029706D01*
X108473035Y-51029706D01*
X108443795Y-51100299D01*
X108419639Y-51221743D01*
X108419639Y-51345567D01*
X108441991Y-51457943D01*
X108329640Y-51570294D01*
X107600000Y-51570294D01*
X107555187Y-51574708D01*
X107512095Y-51587779D01*
X107472382Y-51609006D01*
X107437573Y-51637573D01*
X107409006Y-51672382D01*
X107387779Y-51712095D01*
X107374708Y-51755187D01*
X107370294Y-51800000D01*
X107370294Y-52800000D01*
X107374708Y-52844813D01*
X107387779Y-52887905D01*
X107409006Y-52927618D01*
X107437573Y-52962427D01*
X107472382Y-52990994D01*
X107512095Y-53012221D01*
X107555187Y-53025292D01*
X107600000Y-53029706D01*
X108600000Y-53029706D01*
X108644813Y-53025292D01*
X108687905Y-53012221D01*
X108727618Y-52990994D01*
X108762427Y-52962427D01*
X108790994Y-52927618D01*
X108812221Y-52887905D01*
X108825292Y-52844813D01*
X108829706Y-52800000D01*
X108829706Y-52070360D01*
X108987811Y-51912255D01*
X109110151Y-51912255D01*
X109231595Y-51888099D01*
X109345993Y-51840714D01*
X109448948Y-51771921D01*
X109536505Y-51684364D01*
X109605298Y-51581409D01*
X109652683Y-51467011D01*
X109676839Y-51345567D01*
X109676839Y-51221743D01*
X109652683Y-51100299D01*
X109605298Y-50985901D01*
X109536505Y-50882946D01*
X109448948Y-50795389D01*
X109345993Y-50726596D01*
X109231595Y-50679211D01*
X109110151Y-50655055D01*
X108986327Y-50655055D01*
X108864883Y-50679211D01*
X108829706Y-50693782D01*
X108829706Y-50070360D01*
X108946466Y-49953600D01*
X109780256Y-49953600D01*
X109811734Y-50000709D01*
X109899291Y-50088266D01*
X110002246Y-50157059D01*
X110116644Y-50204444D01*
X110238088Y-50228600D01*
X110361912Y-50228600D01*
X110483356Y-50204444D01*
X110597754Y-50157059D01*
X110700709Y-50088266D01*
X110788266Y-50000709D01*
X110857059Y-49897754D01*
X110904444Y-49783356D01*
X110928600Y-49661912D01*
X110928600Y-49538088D01*
X110904444Y-49416644D01*
X110857059Y-49302246D01*
X110788266Y-49199291D01*
X110700709Y-49111734D01*
X110597754Y-49042941D01*
X110483356Y-48995556D01*
X110361912Y-48971400D01*
X110238088Y-48971400D01*
X110116644Y-48995556D01*
X110002246Y-49042941D01*
X109899291Y-49111734D01*
X109811734Y-49199291D01*
X109780256Y-49246400D01*
X108817351Y-49246400D01*
X108799999Y-49244691D01*
X108782647Y-49246400D01*
X108782638Y-49246400D01*
X108730682Y-49251517D01*
X108664029Y-49271736D01*
X108664027Y-49271737D01*
X108606950Y-49302246D01*
X108602600Y-49304571D01*
X108548758Y-49348758D01*
X108537692Y-49362242D01*
X108329640Y-49570294D01*
X107600000Y-49570294D01*
X107555187Y-49574708D01*
X107512095Y-49587779D01*
X107472382Y-49609006D01*
X107437573Y-49637573D01*
X107409006Y-49672382D01*
X107387779Y-49712095D01*
X107374708Y-49755187D01*
X107370294Y-49800000D01*
X106829706Y-49800000D01*
X106825292Y-49755187D01*
X106812221Y-49712095D01*
X106790994Y-49672382D01*
X106762427Y-49637573D01*
X106727618Y-49609006D01*
X106687905Y-49587779D01*
X106644813Y-49574708D01*
X106600000Y-49570294D01*
X106453600Y-49570294D01*
X106453600Y-49435375D01*
X106488266Y-49400709D01*
X106557059Y-49297754D01*
X106604444Y-49183356D01*
X106628600Y-49061912D01*
X106628600Y-48938088D01*
X106604444Y-48816644D01*
X106557059Y-48702246D01*
X106488266Y-48599291D01*
X106400709Y-48511734D01*
X106297754Y-48442941D01*
X106183356Y-48395556D01*
X106061912Y-48371400D01*
X105938088Y-48371400D01*
X105816644Y-48395556D01*
X105702246Y-48442941D01*
X105599291Y-48511734D01*
X105511734Y-48599291D01*
X105442941Y-48702246D01*
X105395556Y-48816644D01*
X105371400Y-48938088D01*
X105371400Y-49061912D01*
X105395556Y-49183356D01*
X105442941Y-49297754D01*
X105511734Y-49400709D01*
X105599291Y-49488266D01*
X105702246Y-49557059D01*
X105734198Y-49570294D01*
X105600000Y-49570294D01*
X105555187Y-49574708D01*
X105512095Y-49587779D01*
X105472382Y-49609006D01*
X105437573Y-49637573D01*
X105409006Y-49672382D01*
X105387779Y-49712095D01*
X105374708Y-49755187D01*
X105370294Y-49800000D01*
X100339718Y-49800000D01*
X100560119Y-48706936D01*
X100937532Y-47610851D01*
X101193504Y-47099684D01*
X115862887Y-47099684D01*
X115936816Y-47237741D01*
X116098880Y-47332717D01*
X116276358Y-47394250D01*
X116462430Y-47419978D01*
X116649947Y-47408909D01*
X116831701Y-47361472D01*
X117000708Y-47279487D01*
X117063184Y-47237741D01*
X117137113Y-47099684D01*
X120862887Y-47099684D01*
X120936816Y-47237741D01*
X121098880Y-47332717D01*
X121276358Y-47394250D01*
X121462430Y-47419978D01*
X121649947Y-47408909D01*
X121831701Y-47361472D01*
X122000708Y-47279487D01*
X122063184Y-47237741D01*
X122137113Y-47099684D01*
X121500000Y-46462571D01*
X120862887Y-47099684D01*
X117137113Y-47099684D01*
X116500000Y-46462571D01*
X115862887Y-47099684D01*
X101193504Y-47099684D01*
X101456591Y-46574312D01*
X101558110Y-46424930D01*
X115542522Y-46424930D01*
X115553591Y-46612447D01*
X115601028Y-46794201D01*
X115683013Y-46963208D01*
X115724759Y-47025684D01*
X115862816Y-47099613D01*
X116499929Y-46462500D01*
X116500071Y-46462500D01*
X117137184Y-47099613D01*
X117275241Y-47025684D01*
X117370217Y-46863620D01*
X117431750Y-46686142D01*
X117457478Y-46500070D01*
X117453043Y-46424930D01*
X120542522Y-46424930D01*
X120553591Y-46612447D01*
X120601028Y-46794201D01*
X120683013Y-46963208D01*
X120724759Y-47025684D01*
X120862816Y-47099613D01*
X121499929Y-46462500D01*
X121500071Y-46462500D01*
X122137184Y-47099613D01*
X122275241Y-47025684D01*
X122370217Y-46863620D01*
X122431750Y-46686142D01*
X122457478Y-46500070D01*
X122446409Y-46312553D01*
X122398972Y-46130799D01*
X122316987Y-45961792D01*
X122275241Y-45899316D01*
X122137184Y-45825387D01*
X121500071Y-46462500D01*
X121499929Y-46462500D01*
X120862816Y-45825387D01*
X120724759Y-45899316D01*
X120629783Y-46061380D01*
X120568250Y-46238858D01*
X120542522Y-46424930D01*
X117453043Y-46424930D01*
X117446409Y-46312553D01*
X117398972Y-46130799D01*
X117316987Y-45961792D01*
X117275241Y-45899316D01*
X117137184Y-45825387D01*
X116500071Y-46462500D01*
X116499929Y-46462500D01*
X115862816Y-45825387D01*
X115724759Y-45899316D01*
X115629783Y-46061380D01*
X115568250Y-46238858D01*
X115542522Y-46424930D01*
X101558110Y-46424930D01*
X102069763Y-45672054D01*
X109528017Y-45672054D01*
X109742827Y-45930435D01*
X110104574Y-46142447D01*
X110500732Y-46279812D01*
X110916077Y-46337252D01*
X111334647Y-46312558D01*
X111740356Y-46206679D01*
X112117613Y-46023685D01*
X112257173Y-45930435D01*
X112344565Y-45825316D01*
X115862887Y-45825316D01*
X116500000Y-46462429D01*
X117137113Y-45825316D01*
X120862887Y-45825316D01*
X121500000Y-46462429D01*
X122137113Y-45825316D01*
X122063184Y-45687259D01*
X122037239Y-45672054D01*
X125528017Y-45672054D01*
X125742827Y-45930435D01*
X126104574Y-46142447D01*
X126500732Y-46279812D01*
X126916077Y-46337252D01*
X127334647Y-46312558D01*
X127740356Y-46206679D01*
X128117613Y-46023685D01*
X128257173Y-45930435D01*
X128471983Y-45672054D01*
X127000000Y-44200071D01*
X125528017Y-45672054D01*
X122037239Y-45672054D01*
X121901120Y-45592283D01*
X121723642Y-45530750D01*
X121537570Y-45505022D01*
X121350053Y-45516091D01*
X121168299Y-45563528D01*
X120999292Y-45645513D01*
X120936816Y-45687259D01*
X120862887Y-45825316D01*
X117137113Y-45825316D01*
X117063184Y-45687259D01*
X116901120Y-45592283D01*
X116723642Y-45530750D01*
X116537570Y-45505022D01*
X116350053Y-45516091D01*
X116168299Y-45563528D01*
X115999292Y-45645513D01*
X115936816Y-45687259D01*
X115862887Y-45825316D01*
X112344565Y-45825316D01*
X112471983Y-45672054D01*
X111000000Y-44200071D01*
X109528017Y-45672054D01*
X102069763Y-45672054D01*
X102108181Y-45615525D01*
X102880856Y-44751334D01*
X103622023Y-44116077D01*
X108862748Y-44116077D01*
X108887442Y-44534647D01*
X108993321Y-44940356D01*
X109176315Y-45317613D01*
X109269565Y-45457173D01*
X109527946Y-45671983D01*
X110999929Y-44200000D01*
X111000071Y-44200000D01*
X112472054Y-45671983D01*
X112730435Y-45457173D01*
X112942447Y-45095426D01*
X113079812Y-44699268D01*
X113137252Y-44283923D01*
X113112558Y-43865353D01*
X113085730Y-43762550D01*
X114671400Y-43762550D01*
X114671400Y-44112550D01*
X114687331Y-44274201D01*
X114734493Y-44429638D01*
X114811073Y-44572887D01*
X114914128Y-44698444D01*
X115039697Y-44801483D01*
X115182956Y-44878045D01*
X115338398Y-44925187D01*
X115370329Y-44930891D01*
X115499950Y-44883950D01*
X115499950Y-43762550D01*
X115500050Y-43762550D01*
X115500050Y-44883950D01*
X115629671Y-44930891D01*
X115661602Y-44925187D01*
X115817044Y-44878045D01*
X115960303Y-44801483D01*
X116085872Y-44698444D01*
X116188927Y-44572887D01*
X116265507Y-44429638D01*
X116312669Y-44274201D01*
X116328600Y-44112550D01*
X116328600Y-43762550D01*
X121671400Y-43762550D01*
X121671400Y-44112550D01*
X121687331Y-44274201D01*
X121734493Y-44429638D01*
X121811073Y-44572887D01*
X121914128Y-44698444D01*
X122039697Y-44801483D01*
X122182956Y-44878045D01*
X122338398Y-44925187D01*
X122370329Y-44930891D01*
X122499950Y-44883950D01*
X122499950Y-43762550D01*
X122500050Y-43762550D01*
X122500050Y-44883950D01*
X122629671Y-44930891D01*
X122661602Y-44925187D01*
X122817044Y-44878045D01*
X122960303Y-44801483D01*
X123085872Y-44698444D01*
X123188927Y-44572887D01*
X123265507Y-44429638D01*
X123312669Y-44274201D01*
X123328252Y-44116077D01*
X124862748Y-44116077D01*
X124887442Y-44534647D01*
X124993321Y-44940356D01*
X125176315Y-45317613D01*
X125269565Y-45457173D01*
X125527946Y-45671983D01*
X126999929Y-44200000D01*
X127000071Y-44200000D01*
X128472054Y-45671983D01*
X128730435Y-45457173D01*
X128942447Y-45095426D01*
X129079812Y-44699268D01*
X129137252Y-44283923D01*
X129112558Y-43865353D01*
X129006679Y-43459644D01*
X128823685Y-43082387D01*
X128730435Y-42942827D01*
X128472054Y-42728017D01*
X127000071Y-44200000D01*
X126999929Y-44200000D01*
X125527946Y-42728017D01*
X125269565Y-42942827D01*
X125057553Y-43304574D01*
X124920188Y-43700732D01*
X124862748Y-44116077D01*
X123328252Y-44116077D01*
X123328600Y-44112550D01*
X123328600Y-43762550D01*
X122500050Y-43762550D01*
X122499950Y-43762550D01*
X121671400Y-43762550D01*
X116328600Y-43762550D01*
X115500050Y-43762550D01*
X115499950Y-43762550D01*
X114671400Y-43762550D01*
X113085730Y-43762550D01*
X113006679Y-43459644D01*
X112983787Y-43412450D01*
X114671400Y-43412450D01*
X114671400Y-43762450D01*
X115499950Y-43762450D01*
X115499950Y-42641050D01*
X115500050Y-42641050D01*
X115500050Y-43762450D01*
X116328600Y-43762450D01*
X116328600Y-43412450D01*
X121671400Y-43412450D01*
X121671400Y-43762450D01*
X122499950Y-43762450D01*
X122499950Y-42641050D01*
X122500050Y-42641050D01*
X122500050Y-43762450D01*
X123328600Y-43762450D01*
X123328600Y-43412450D01*
X123312669Y-43250799D01*
X123265507Y-43095362D01*
X123188927Y-42952113D01*
X123085872Y-42826556D01*
X122960303Y-42723517D01*
X122817044Y-42646955D01*
X122661602Y-42599813D01*
X122629671Y-42594109D01*
X122500050Y-42641050D01*
X122499950Y-42641050D01*
X122370329Y-42594109D01*
X122338398Y-42599813D01*
X122182956Y-42646955D01*
X122039697Y-42723517D01*
X121914128Y-42826556D01*
X121811073Y-42952113D01*
X121734493Y-43095362D01*
X121687331Y-43250799D01*
X121671400Y-43412450D01*
X116328600Y-43412450D01*
X116312669Y-43250799D01*
X116265507Y-43095362D01*
X116188927Y-42952113D01*
X116085872Y-42826556D01*
X115960303Y-42723517D01*
X115817044Y-42646955D01*
X115661602Y-42599813D01*
X115629671Y-42594109D01*
X115500050Y-42641050D01*
X115499950Y-42641050D01*
X115370329Y-42594109D01*
X115338398Y-42599813D01*
X115182956Y-42646955D01*
X115039697Y-42723517D01*
X114914128Y-42826556D01*
X114811073Y-42952113D01*
X114734493Y-43095362D01*
X114687331Y-43250799D01*
X114671400Y-43412450D01*
X112983787Y-43412450D01*
X112823685Y-43082387D01*
X112730435Y-42942827D01*
X112472054Y-42728017D01*
X111000071Y-44200000D01*
X110999929Y-44200000D01*
X109527946Y-42728017D01*
X109269565Y-42942827D01*
X109057553Y-43304574D01*
X108920188Y-43700732D01*
X108862748Y-44116077D01*
X103622023Y-44116077D01*
X103761030Y-43996934D01*
X104733255Y-43365563D01*
X105780443Y-42868322D01*
X106884191Y-42513947D01*
X108026419Y-42308428D01*
X109007092Y-42253600D01*
X110135374Y-42253600D01*
X109882387Y-42376315D01*
M02*
