G04 #@! TF.GenerationSoftware,KiCad,Pcbnew,(5.1.5-0-10_14)*
G04 #@! TF.CreationDate,2020-08-22T00:12:21-07:00*
G04 #@! TF.ProjectId,Sense_board,57726973-745f-4536-956e-73655f626f61,rev?*
G04 #@! TF.SameCoordinates,Original*
G04 #@! TF.FileFunction,Legend,Top*
G04 #@! TF.FilePolarity,Positive*
%FSLAX46Y46*%
G04 Gerber Fmt 4.6, Leading zero omitted, Abs format (unit mm)*
G04 Created by KiCad (PCBNEW (5.1.5-0-10_14)) date 2020-08-22 00:12:21*
%MOMM*%
%LPD*%
G04 APERTURE LIST*
%ADD10C,0.150000*%
%ADD11C,0.120000*%
G04 APERTURE END LIST*
D10*
X116800000Y-59425000D02*
X121200000Y-59425000D01*
X115225000Y-53900000D02*
X121200000Y-53900000D01*
X103600000Y-49850000D02*
X109575000Y-49850000D01*
X105125000Y-56750000D02*
X109575000Y-56750000D01*
D11*
X114210000Y-52787221D02*
X114210000Y-53112779D01*
X113190000Y-52787221D02*
X113190000Y-53112779D01*
X101610000Y-51662779D02*
X101610000Y-51337221D01*
X100590000Y-51662779D02*
X100590000Y-51337221D01*
X121187221Y-47940000D02*
X121512779Y-47940000D01*
X121187221Y-48960000D02*
X121512779Y-48960000D01*
X112610000Y-53687221D02*
X112610000Y-54012779D01*
X111590000Y-53687221D02*
X111590000Y-54012779D01*
X103110000Y-53287221D02*
X103110000Y-53612779D01*
X102090000Y-53287221D02*
X102090000Y-53612779D01*
X121562779Y-51210000D02*
X121237221Y-51210000D01*
X121562779Y-50190000D02*
X121237221Y-50190000D01*
X121562779Y-51690000D02*
X121237221Y-51690000D01*
X121562779Y-52710000D02*
X121237221Y-52710000D01*
X101762779Y-55790000D02*
X101437221Y-55790000D01*
X101762779Y-56810000D02*
X101437221Y-56810000D01*
X109210000Y-47912779D02*
X109210000Y-47587221D01*
X108190000Y-47912779D02*
X108190000Y-47587221D01*
X105437221Y-45360000D02*
X105762779Y-45360000D01*
X105437221Y-44340000D02*
X105762779Y-44340000D01*
X102790000Y-47912779D02*
X102790000Y-47587221D01*
X103810000Y-47912779D02*
X103810000Y-47587221D01*
X132510000Y-53187221D02*
X132510000Y-53512779D01*
X131490000Y-53187221D02*
X131490000Y-53512779D01*
X123190000Y-55937221D02*
X123190000Y-56262779D01*
X124210000Y-55937221D02*
X124210000Y-56262779D01*
X124740000Y-56987221D02*
X124740000Y-57312779D01*
X125760000Y-56987221D02*
X125760000Y-57312779D01*
X128687221Y-51460000D02*
X129012779Y-51460000D01*
X128687221Y-50440000D02*
X129012779Y-50440000D01*
X128687221Y-55640000D02*
X129012779Y-55640000D01*
X128687221Y-56660000D02*
X129012779Y-56660000D01*
X106887221Y-58690000D02*
X107212779Y-58690000D01*
X106887221Y-59710000D02*
X107212779Y-59710000D01*
X106887221Y-58160000D02*
X107212779Y-58160000D01*
X106887221Y-57140000D02*
X107212779Y-57140000D01*
X111790000Y-61737221D02*
X111790000Y-62062779D01*
X112810000Y-61737221D02*
X112810000Y-62062779D01*
X107550000Y-64450000D02*
X107850000Y-64450000D01*
X107850000Y-64450000D02*
X107850000Y-61150000D01*
X107850000Y-61150000D02*
X107550000Y-61150000D01*
X105350000Y-64450000D02*
X105050000Y-64450000D01*
X105050000Y-64450000D02*
X105050000Y-61150000D01*
X105050000Y-61150000D02*
X105350000Y-61150000D01*
X108450000Y-61150000D02*
X108750000Y-61150000D01*
X108450000Y-64450000D02*
X108450000Y-61150000D01*
X108750000Y-64450000D02*
X108450000Y-64450000D01*
X111250000Y-61150000D02*
X110950000Y-61150000D01*
X111250000Y-64450000D02*
X111250000Y-61150000D01*
X110950000Y-64450000D02*
X111250000Y-64450000D01*
X105100000Y-49060000D02*
X107550000Y-49060000D01*
X106900000Y-45840000D02*
X105100000Y-45840000D01*
X130150000Y-51940000D02*
X128350000Y-51940000D01*
X128350000Y-55160000D02*
X130800000Y-55160000D01*
X122900000Y-46762500D02*
X122450000Y-46762500D01*
X122900000Y-44912500D02*
X122900000Y-46762500D01*
X115100000Y-42362500D02*
X115100000Y-42612500D01*
X122900000Y-42362500D02*
X122900000Y-42612500D01*
X115100000Y-44912500D02*
X115100000Y-46762500D01*
X115100000Y-46762500D02*
X115550000Y-46762500D01*
X120700000Y-47312500D02*
X120250000Y-47312500D01*
X120700000Y-47312500D02*
X120700000Y-46862500D01*
X115200000Y-64650000D02*
X114400000Y-64650000D01*
X115200000Y-65950000D02*
X115200000Y-64650000D01*
X122800000Y-65950000D02*
X115200000Y-65950000D01*
X122800000Y-64650000D02*
X122800000Y-65950000D01*
X123600000Y-64650000D02*
X122800000Y-64650000D01*
X123600000Y-60700000D02*
X123600000Y-64650000D01*
X123200000Y-60700000D02*
X123600000Y-60700000D01*
X123200000Y-61100000D02*
X123200000Y-60700000D01*
X114800000Y-61100000D02*
X123200000Y-61100000D01*
X114800000Y-60700000D02*
X114800000Y-61100000D01*
X114400000Y-60700000D02*
X114800000Y-60700000D01*
X114400000Y-64650000D02*
X114400000Y-60700000D01*
X100800000Y-60035000D02*
X103085000Y-60035000D01*
X103085000Y-60035000D02*
X103085000Y-58565000D01*
X103085000Y-58565000D02*
X100800000Y-58565000D01*
X101762779Y-57290000D02*
X101437221Y-57290000D01*
X101762779Y-58310000D02*
X101437221Y-58310000D01*
M02*
