G04 #@! TF.GenerationSoftware,KiCad,Pcbnew,(5.1.5-0-10_14)*
G04 #@! TF.CreationDate,2020-08-22T00:12:21-07:00*
G04 #@! TF.ProjectId,Sense_board,57726973-745f-4536-956e-73655f626f61,rev?*
G04 #@! TF.SameCoordinates,Original*
G04 #@! TF.FileFunction,Legend,Bot*
G04 #@! TF.FilePolarity,Positive*
%FSLAX46Y46*%
G04 Gerber Fmt 4.6, Leading zero omitted, Abs format (unit mm)*
G04 Created by KiCad (PCBNEW (5.1.5-0-10_14)) date 2020-08-22 00:12:21*
%MOMM*%
%LPD*%
G04 APERTURE LIST*
%ADD10C,0.300000*%
%ADD11C,0.250000*%
%ADD12C,0.120000*%
G04 APERTURE END LIST*
D10*
X135347857Y-52728571D02*
X135347857Y-51228571D01*
X134847857Y-52300000D01*
X134347857Y-51228571D01*
X134347857Y-52728571D01*
X132990714Y-52728571D02*
X132990714Y-51942857D01*
X133062142Y-51800000D01*
X133205000Y-51728571D01*
X133490714Y-51728571D01*
X133633571Y-51800000D01*
X132990714Y-52657142D02*
X133133571Y-52728571D01*
X133490714Y-52728571D01*
X133633571Y-52657142D01*
X133705000Y-52514285D01*
X133705000Y-52371428D01*
X133633571Y-52228571D01*
X133490714Y-52157142D01*
X133133571Y-52157142D01*
X132990714Y-52085714D01*
X132490714Y-51728571D02*
X131919285Y-51728571D01*
X132276428Y-51228571D02*
X132276428Y-52514285D01*
X132205000Y-52657142D01*
X132062142Y-52728571D01*
X131919285Y-52728571D01*
X131633571Y-51728571D02*
X131062142Y-51728571D01*
X131419285Y-51228571D02*
X131419285Y-52514285D01*
X131347857Y-52657142D01*
X131205000Y-52728571D01*
X131062142Y-52728571D01*
X129419285Y-52728571D02*
X129419285Y-51228571D01*
X129419285Y-51942857D02*
X128562142Y-51942857D01*
X128562142Y-52728571D02*
X128562142Y-51228571D01*
X127633571Y-52728571D02*
X127776428Y-52657142D01*
X127847857Y-52585714D01*
X127919285Y-52442857D01*
X127919285Y-52014285D01*
X127847857Y-51871428D01*
X127776428Y-51800000D01*
X127633571Y-51728571D01*
X127419285Y-51728571D01*
X127276428Y-51800000D01*
X127205000Y-51871428D01*
X127133571Y-52014285D01*
X127133571Y-52442857D01*
X127205000Y-52585714D01*
X127276428Y-52657142D01*
X127419285Y-52728571D01*
X127633571Y-52728571D01*
X126276428Y-52728571D02*
X126419285Y-52657142D01*
X126490714Y-52514285D01*
X126490714Y-51228571D01*
X125490714Y-52728571D02*
X125633571Y-52657142D01*
X125705000Y-52514285D01*
X125705000Y-51228571D01*
X124276428Y-52728571D02*
X124276428Y-51942857D01*
X124347857Y-51800000D01*
X124490714Y-51728571D01*
X124776428Y-51728571D01*
X124919285Y-51800000D01*
X124276428Y-52657142D02*
X124419285Y-52728571D01*
X124776428Y-52728571D01*
X124919285Y-52657142D01*
X124990714Y-52514285D01*
X124990714Y-52371428D01*
X124919285Y-52228571D01*
X124776428Y-52157142D01*
X124419285Y-52157142D01*
X124276428Y-52085714D01*
X123562142Y-51728571D02*
X123562142Y-52728571D01*
X123562142Y-51871428D02*
X123490714Y-51800000D01*
X123347857Y-51728571D01*
X123133571Y-51728571D01*
X122990714Y-51800000D01*
X122919285Y-51942857D01*
X122919285Y-52728571D01*
X121562142Y-52728571D02*
X121562142Y-51228571D01*
X121562142Y-52657142D02*
X121705000Y-52728571D01*
X121990714Y-52728571D01*
X122133571Y-52657142D01*
X122205000Y-52585714D01*
X122276428Y-52442857D01*
X122276428Y-52014285D01*
X122205000Y-51871428D01*
X122133571Y-51800000D01*
X121990714Y-51728571D01*
X121705000Y-51728571D01*
X121562142Y-51800000D01*
X120919285Y-52657142D02*
X120776428Y-52728571D01*
X120490714Y-52728571D01*
X120347857Y-52657142D01*
X120276428Y-52514285D01*
X120276428Y-52442857D01*
X120347857Y-52300000D01*
X120490714Y-52228571D01*
X120705000Y-52228571D01*
X120847857Y-52157142D01*
X120919285Y-52014285D01*
X120919285Y-51942857D01*
X120847857Y-51800000D01*
X120705000Y-51728571D01*
X120490714Y-51728571D01*
X120347857Y-51800000D01*
X135419285Y-53921428D02*
X135347857Y-53850000D01*
X135205000Y-53778571D01*
X134847857Y-53778571D01*
X134705000Y-53850000D01*
X134633571Y-53921428D01*
X134562142Y-54064285D01*
X134562142Y-54207142D01*
X134633571Y-54421428D01*
X135490714Y-55278571D01*
X134562142Y-55278571D01*
X133633571Y-53778571D02*
X133490714Y-53778571D01*
X133347857Y-53850000D01*
X133276428Y-53921428D01*
X133205000Y-54064285D01*
X133133571Y-54350000D01*
X133133571Y-54707142D01*
X133205000Y-54992857D01*
X133276428Y-55135714D01*
X133347857Y-55207142D01*
X133490714Y-55278571D01*
X133633571Y-55278571D01*
X133776428Y-55207142D01*
X133847857Y-55135714D01*
X133919285Y-54992857D01*
X133990714Y-54707142D01*
X133990714Y-54350000D01*
X133919285Y-54064285D01*
X133847857Y-53921428D01*
X133776428Y-53850000D01*
X133633571Y-53778571D01*
X132562142Y-53921428D02*
X132490714Y-53850000D01*
X132347857Y-53778571D01*
X131990714Y-53778571D01*
X131847857Y-53850000D01*
X131776428Y-53921428D01*
X131705000Y-54064285D01*
X131705000Y-54207142D01*
X131776428Y-54421428D01*
X132633571Y-55278571D01*
X131705000Y-55278571D01*
X130776428Y-53778571D02*
X130633571Y-53778571D01*
X130490714Y-53850000D01*
X130419285Y-53921428D01*
X130347857Y-54064285D01*
X130276428Y-54350000D01*
X130276428Y-54707142D01*
X130347857Y-54992857D01*
X130419285Y-55135714D01*
X130490714Y-55207142D01*
X130633571Y-55278571D01*
X130776428Y-55278571D01*
X130919285Y-55207142D01*
X130990714Y-55135714D01*
X131062142Y-54992857D01*
X131133571Y-54707142D01*
X131133571Y-54350000D01*
X131062142Y-54064285D01*
X130990714Y-53921428D01*
X130919285Y-53850000D01*
X130776428Y-53778571D01*
X135347857Y-56828571D02*
X135347857Y-58328571D01*
X135347857Y-56900000D02*
X135205000Y-56828571D01*
X134919285Y-56828571D01*
X134776428Y-56900000D01*
X134705000Y-56971428D01*
X134633571Y-57114285D01*
X134633571Y-57542857D01*
X134705000Y-57685714D01*
X134776428Y-57757142D01*
X134919285Y-57828571D01*
X135205000Y-57828571D01*
X135347857Y-57757142D01*
X133990714Y-57828571D02*
X133990714Y-56828571D01*
X133990714Y-57114285D02*
X133919285Y-56971428D01*
X133847857Y-56900000D01*
X133705000Y-56828571D01*
X133562142Y-56828571D01*
X132847857Y-57828571D02*
X132990714Y-57757142D01*
X133062142Y-57685714D01*
X133133571Y-57542857D01*
X133133571Y-57114285D01*
X133062142Y-56971428D01*
X132990714Y-56900000D01*
X132847857Y-56828571D01*
X132633571Y-56828571D01*
X132490714Y-56900000D01*
X132419285Y-56971428D01*
X132347857Y-57114285D01*
X132347857Y-57542857D01*
X132419285Y-57685714D01*
X132490714Y-57757142D01*
X132633571Y-57828571D01*
X132847857Y-57828571D01*
X131705000Y-56828571D02*
X131705000Y-58114285D01*
X131776428Y-58257142D01*
X131919285Y-58328571D01*
X131990714Y-58328571D01*
X131705000Y-56328571D02*
X131776428Y-56400000D01*
X131705000Y-56471428D01*
X131633571Y-56400000D01*
X131705000Y-56328571D01*
X131705000Y-56471428D01*
X130419285Y-57757142D02*
X130562142Y-57828571D01*
X130847857Y-57828571D01*
X130990714Y-57757142D01*
X131062142Y-57614285D01*
X131062142Y-57042857D01*
X130990714Y-56900000D01*
X130847857Y-56828571D01*
X130562142Y-56828571D01*
X130419285Y-56900000D01*
X130347857Y-57042857D01*
X130347857Y-57185714D01*
X131062142Y-57328571D01*
X129062142Y-57757142D02*
X129205000Y-57828571D01*
X129490714Y-57828571D01*
X129633571Y-57757142D01*
X129705000Y-57685714D01*
X129776428Y-57542857D01*
X129776428Y-57114285D01*
X129705000Y-56971428D01*
X129633571Y-56900000D01*
X129490714Y-56828571D01*
X129205000Y-56828571D01*
X129062142Y-56900000D01*
X128633571Y-56828571D02*
X128062142Y-56828571D01*
X128419285Y-56328571D02*
X128419285Y-57614285D01*
X128347857Y-57757142D01*
X128205000Y-57828571D01*
X128062142Y-57828571D01*
X127633571Y-57757142D02*
X127490714Y-57828571D01*
X127205000Y-57828571D01*
X127062142Y-57757142D01*
X126990714Y-57614285D01*
X126990714Y-57542857D01*
X127062142Y-57400000D01*
X127205000Y-57328571D01*
X127419285Y-57328571D01*
X127562142Y-57257142D01*
X127633571Y-57114285D01*
X127633571Y-57042857D01*
X127562142Y-56900000D01*
X127419285Y-56828571D01*
X127205000Y-56828571D01*
X127062142Y-56900000D01*
X126347857Y-57685714D02*
X126276428Y-57757142D01*
X126347857Y-57828571D01*
X126419285Y-57757142D01*
X126347857Y-57685714D01*
X126347857Y-57828571D01*
X125633571Y-57828571D02*
X125633571Y-56828571D01*
X125633571Y-56971428D02*
X125562142Y-56900000D01*
X125419285Y-56828571D01*
X125205000Y-56828571D01*
X125062142Y-56900000D01*
X124990714Y-57042857D01*
X124990714Y-57828571D01*
X124990714Y-57042857D02*
X124919285Y-56900000D01*
X124776428Y-56828571D01*
X124562142Y-56828571D01*
X124419285Y-56900000D01*
X124347857Y-57042857D01*
X124347857Y-57828571D01*
X122990714Y-57828571D02*
X122990714Y-57042857D01*
X123062142Y-56900000D01*
X123205000Y-56828571D01*
X123490714Y-56828571D01*
X123633571Y-56900000D01*
X122990714Y-57757142D02*
X123133571Y-57828571D01*
X123490714Y-57828571D01*
X123633571Y-57757142D01*
X123705000Y-57614285D01*
X123705000Y-57471428D01*
X123633571Y-57328571D01*
X123490714Y-57257142D01*
X123133571Y-57257142D01*
X122990714Y-57185714D01*
X122490714Y-56828571D02*
X121919285Y-56828571D01*
X122276428Y-56328571D02*
X122276428Y-57614285D01*
X122205000Y-57757142D01*
X122062142Y-57828571D01*
X121919285Y-57828571D01*
X121633571Y-56828571D02*
X121062142Y-56828571D01*
X121419285Y-56328571D02*
X121419285Y-57614285D01*
X121347857Y-57757142D01*
X121205000Y-57828571D01*
X121062142Y-57828571D01*
X120562142Y-57828571D02*
X120562142Y-56328571D01*
X119919285Y-57828571D02*
X119919285Y-57042857D01*
X119990714Y-56900000D01*
X120133571Y-56828571D01*
X120347857Y-56828571D01*
X120490714Y-56900000D01*
X120562142Y-56971428D01*
X118990714Y-57828571D02*
X119133571Y-57757142D01*
X119205000Y-57685714D01*
X119276428Y-57542857D01*
X119276428Y-57114285D01*
X119205000Y-56971428D01*
X119133571Y-56900000D01*
X118990714Y-56828571D01*
X118776428Y-56828571D01*
X118633571Y-56900000D01*
X118562142Y-56971428D01*
X118490714Y-57114285D01*
X118490714Y-57542857D01*
X118562142Y-57685714D01*
X118633571Y-57757142D01*
X118776428Y-57828571D01*
X118990714Y-57828571D01*
X117633571Y-57828571D02*
X117776428Y-57757142D01*
X117847857Y-57614285D01*
X117847857Y-56328571D01*
X116847857Y-57828571D02*
X116990714Y-57757142D01*
X117062142Y-57614285D01*
X117062142Y-56328571D01*
X115633571Y-57828571D02*
X115633571Y-57042857D01*
X115705000Y-56900000D01*
X115847857Y-56828571D01*
X116133571Y-56828571D01*
X116276428Y-56900000D01*
X115633571Y-57757142D02*
X115776428Y-57828571D01*
X116133571Y-57828571D01*
X116276428Y-57757142D01*
X116347857Y-57614285D01*
X116347857Y-57471428D01*
X116276428Y-57328571D01*
X116133571Y-57257142D01*
X115776428Y-57257142D01*
X115633571Y-57185714D01*
X114919285Y-56828571D02*
X114919285Y-57828571D01*
X114919285Y-56971428D02*
X114847857Y-56900000D01*
X114705000Y-56828571D01*
X114490714Y-56828571D01*
X114347857Y-56900000D01*
X114276428Y-57042857D01*
X114276428Y-57828571D01*
X112919285Y-57828571D02*
X112919285Y-56328571D01*
X112919285Y-57757142D02*
X113062142Y-57828571D01*
X113347857Y-57828571D01*
X113490714Y-57757142D01*
X113562142Y-57685714D01*
X113633571Y-57542857D01*
X113633571Y-57114285D01*
X113562142Y-56971428D01*
X113490714Y-56900000D01*
X113347857Y-56828571D01*
X113062142Y-56828571D01*
X112919285Y-56900000D01*
X112276428Y-57757142D02*
X112133571Y-57828571D01*
X111847857Y-57828571D01*
X111705000Y-57757142D01*
X111633571Y-57614285D01*
X111633571Y-57542857D01*
X111705000Y-57400000D01*
X111847857Y-57328571D01*
X112062142Y-57328571D01*
X112205000Y-57257142D01*
X112276428Y-57114285D01*
X112276428Y-57042857D01*
X112205000Y-56900000D01*
X112062142Y-56828571D01*
X111847857Y-56828571D01*
X111705000Y-56900000D01*
X110990714Y-57685714D02*
X110919285Y-57757142D01*
X110990714Y-57828571D01*
X111062142Y-57757142D01*
X110990714Y-57685714D01*
X110990714Y-57828571D01*
X109633571Y-57757142D02*
X109776428Y-57828571D01*
X110062142Y-57828571D01*
X110205000Y-57757142D01*
X110276428Y-57685714D01*
X110347857Y-57542857D01*
X110347857Y-57114285D01*
X110276428Y-56971428D01*
X110205000Y-56900000D01*
X110062142Y-56828571D01*
X109776428Y-56828571D01*
X109633571Y-56900000D01*
X108776428Y-57828571D02*
X108919285Y-57757142D01*
X108990714Y-57685714D01*
X109062142Y-57542857D01*
X109062142Y-57114285D01*
X108990714Y-56971428D01*
X108919285Y-56900000D01*
X108776428Y-56828571D01*
X108562142Y-56828571D01*
X108419285Y-56900000D01*
X108347857Y-56971428D01*
X108276428Y-57114285D01*
X108276428Y-57542857D01*
X108347857Y-57685714D01*
X108419285Y-57757142D01*
X108562142Y-57828571D01*
X108776428Y-57828571D01*
X107633571Y-57828571D02*
X107633571Y-56828571D01*
X107633571Y-56971428D02*
X107562142Y-56900000D01*
X107419285Y-56828571D01*
X107205000Y-56828571D01*
X107062142Y-56900000D01*
X106990714Y-57042857D01*
X106990714Y-57828571D01*
X106990714Y-57042857D02*
X106919285Y-56900000D01*
X106776428Y-56828571D01*
X106562142Y-56828571D01*
X106419285Y-56900000D01*
X106347857Y-57042857D01*
X106347857Y-57828571D01*
D11*
X104461904Y-51900000D02*
X104557142Y-51852380D01*
X104700000Y-51852380D01*
X104842857Y-51900000D01*
X104938095Y-51995238D01*
X104985714Y-52090476D01*
X105033333Y-52280952D01*
X105033333Y-52423809D01*
X104985714Y-52614285D01*
X104938095Y-52709523D01*
X104842857Y-52804761D01*
X104700000Y-52852380D01*
X104604761Y-52852380D01*
X104461904Y-52804761D01*
X104414285Y-52757142D01*
X104414285Y-52423809D01*
X104604761Y-52423809D01*
X103985714Y-52852380D02*
X103985714Y-51852380D01*
X103414285Y-52852380D01*
X103414285Y-51852380D01*
X102938095Y-52852380D02*
X102938095Y-51852380D01*
X102700000Y-51852380D01*
X102557142Y-51900000D01*
X102461904Y-51995238D01*
X102414285Y-52090476D01*
X102366666Y-52280952D01*
X102366666Y-52423809D01*
X102414285Y-52614285D01*
X102461904Y-52709523D01*
X102557142Y-52804761D01*
X102700000Y-52852380D01*
X102938095Y-52852380D01*
X104938095Y-49852380D02*
X104319047Y-49852380D01*
X104652380Y-50233333D01*
X104509523Y-50233333D01*
X104414285Y-50280952D01*
X104366666Y-50328571D01*
X104319047Y-50423809D01*
X104319047Y-50661904D01*
X104366666Y-50757142D01*
X104414285Y-50804761D01*
X104509523Y-50852380D01*
X104795238Y-50852380D01*
X104890476Y-50804761D01*
X104938095Y-50757142D01*
X104033333Y-49852380D02*
X103700000Y-50852380D01*
X103366666Y-49852380D01*
X103128571Y-49852380D02*
X102509523Y-49852380D01*
X102842857Y-50233333D01*
X102700000Y-50233333D01*
X102604761Y-50280952D01*
X102557142Y-50328571D01*
X102509523Y-50423809D01*
X102509523Y-50661904D01*
X102557142Y-50757142D01*
X102604761Y-50804761D01*
X102700000Y-50852380D01*
X102985714Y-50852380D01*
X103080952Y-50804761D01*
X103128571Y-50757142D01*
X113661904Y-50804761D02*
X113519047Y-50852380D01*
X113280952Y-50852380D01*
X113185714Y-50804761D01*
X113138095Y-50757142D01*
X113090476Y-50661904D01*
X113090476Y-50566666D01*
X113138095Y-50471428D01*
X113185714Y-50423809D01*
X113280952Y-50376190D01*
X113471428Y-50328571D01*
X113566666Y-50280952D01*
X113614285Y-50233333D01*
X113661904Y-50138095D01*
X113661904Y-50042857D01*
X113614285Y-49947619D01*
X113566666Y-49900000D01*
X113471428Y-49852380D01*
X113233333Y-49852380D01*
X113090476Y-49900000D01*
X112757142Y-49852380D02*
X112519047Y-50852380D01*
X112328571Y-50138095D01*
X112138095Y-50852380D01*
X111900000Y-49852380D01*
X110947619Y-50757142D02*
X110995238Y-50804761D01*
X111138095Y-50852380D01*
X111233333Y-50852380D01*
X111376190Y-50804761D01*
X111471428Y-50709523D01*
X111519047Y-50614285D01*
X111566666Y-50423809D01*
X111566666Y-50280952D01*
X111519047Y-50090476D01*
X111471428Y-49995238D01*
X111376190Y-49900000D01*
X111233333Y-49852380D01*
X111138095Y-49852380D01*
X110995238Y-49900000D01*
X110947619Y-49947619D01*
X110042857Y-50852380D02*
X110519047Y-50852380D01*
X110519047Y-49852380D01*
X109709523Y-50852380D02*
X109709523Y-49852380D01*
X109138095Y-50852380D02*
X109566666Y-50280952D01*
X109138095Y-49852380D02*
X109709523Y-50423809D01*
X113519047Y-52804761D02*
X113376190Y-52852380D01*
X113138095Y-52852380D01*
X113042857Y-52804761D01*
X112995238Y-52757142D01*
X112947619Y-52661904D01*
X112947619Y-52566666D01*
X112995238Y-52471428D01*
X113042857Y-52423809D01*
X113138095Y-52376190D01*
X113328571Y-52328571D01*
X113423809Y-52280952D01*
X113471428Y-52233333D01*
X113519047Y-52138095D01*
X113519047Y-52042857D01*
X113471428Y-51947619D01*
X113423809Y-51900000D01*
X113328571Y-51852380D01*
X113090476Y-51852380D01*
X112947619Y-51900000D01*
X112614285Y-51852380D02*
X112376190Y-52852380D01*
X112185714Y-52138095D01*
X111995238Y-52852380D01*
X111757142Y-51852380D01*
X111376190Y-52852380D02*
X111376190Y-51852380D01*
X111138095Y-51852380D01*
X110995238Y-51900000D01*
X110900000Y-51995238D01*
X110852380Y-52090476D01*
X110804761Y-52280952D01*
X110804761Y-52423809D01*
X110852380Y-52614285D01*
X110900000Y-52709523D01*
X110995238Y-52804761D01*
X111138095Y-52852380D01*
X111376190Y-52852380D01*
X110376190Y-52852380D02*
X110376190Y-51852380D01*
X109709523Y-51852380D02*
X109519047Y-51852380D01*
X109423809Y-51900000D01*
X109328571Y-51995238D01*
X109280952Y-52185714D01*
X109280952Y-52519047D01*
X109328571Y-52709523D01*
X109423809Y-52804761D01*
X109519047Y-52852380D01*
X109709523Y-52852380D01*
X109804761Y-52804761D01*
X109900000Y-52709523D01*
X109947619Y-52519047D01*
X109947619Y-52185714D01*
X109900000Y-51995238D01*
X109804761Y-51900000D01*
X109709523Y-51852380D01*
D12*
X123600000Y-64650000D02*
X123600000Y-60700000D01*
X123600000Y-60700000D02*
X123200000Y-60700000D01*
X123200000Y-60700000D02*
X123200000Y-61100000D01*
X123200000Y-61100000D02*
X114800000Y-61100000D01*
X114800000Y-61100000D02*
X114800000Y-60700000D01*
X114800000Y-60700000D02*
X114400000Y-60700000D01*
X114400000Y-60700000D02*
X114400000Y-64650000D01*
X114400000Y-64650000D02*
X115200000Y-64650000D01*
X115200000Y-64650000D02*
X115200000Y-65950000D01*
X115200000Y-65950000D02*
X122800000Y-65950000D01*
X122800000Y-65950000D02*
X122800000Y-64650000D01*
X122800000Y-64650000D02*
X123600000Y-64650000D01*
X105400000Y-51600000D02*
X105400000Y-53000000D01*
X106800000Y-51600000D02*
X105400000Y-51600000D01*
X106800000Y-53000000D02*
X106800000Y-51600000D01*
X105400000Y-53000000D02*
X106800000Y-53000000D01*
X105400000Y-51000000D02*
X106800000Y-51000000D01*
X106800000Y-51000000D02*
X106800000Y-49600000D01*
X106800000Y-49600000D02*
X105400000Y-49600000D01*
X105400000Y-49600000D02*
X105400000Y-51000000D01*
X107400000Y-51600000D02*
X107400000Y-53000000D01*
X108800000Y-51600000D02*
X107400000Y-51600000D01*
X108800000Y-53000000D02*
X108800000Y-51600000D01*
X107400000Y-53000000D02*
X108800000Y-53000000D01*
X107400000Y-51000000D02*
X108800000Y-51000000D01*
X108800000Y-51000000D02*
X108800000Y-49600000D01*
X108800000Y-49600000D02*
X107400000Y-49600000D01*
X107400000Y-49600000D02*
X107400000Y-51000000D01*
M02*
