G04 #@! TF.GenerationSoftware,KiCad,Pcbnew,(5.1.5-0-10_14)*
G04 #@! TF.CreationDate,2020-08-22T00:23:10-07:00*
G04 #@! TF.ProjectId,RX_Flex,52585f46-6c65-4782-9e6b-696361645f70,rev?*
G04 #@! TF.SameCoordinates,Original*
G04 #@! TF.FileFunction,Legend,Top*
G04 #@! TF.FilePolarity,Positive*
%FSLAX46Y46*%
G04 Gerber Fmt 4.6, Leading zero omitted, Abs format (unit mm)*
G04 Created by KiCad (PCBNEW (5.1.5-0-10_14)) date 2020-08-22 00:23:10*
%MOMM*%
%LPD*%
G04 APERTURE LIST*
%ADD10C,0.120000*%
G04 APERTURE END LIST*
D10*
X88000000Y-69700000D02*
X88000000Y-65300000D01*
X88300000Y-70000000D02*
X89000000Y-70000000D01*
X88300000Y-65000000D02*
X89000000Y-65000000D01*
X89141421Y-70058579D02*
X89500000Y-70550000D01*
X89141421Y-64941421D02*
X89500000Y-64450000D01*
X89500000Y-70550000D02*
X90000000Y-70550000D01*
X89500000Y-64450000D02*
X90000000Y-64450000D01*
X90200000Y-70350000D02*
X90200000Y-70200000D01*
X90200000Y-64650000D02*
X90200000Y-64800000D01*
X90400000Y-70000000D02*
X91500000Y-70000000D01*
X91500000Y-70000000D02*
X91500000Y-65000000D01*
X91500000Y-65000000D02*
X90400000Y-65000000D01*
X90200000Y-70350000D02*
G75*
G02X90000000Y-70550000I-200000J0D01*
G01*
X90200000Y-70200000D02*
G75*
G02X90400000Y-70000000I200000J0D01*
G01*
X90400000Y-65000000D02*
G75*
G02X90200000Y-64800000I0J200000D01*
G01*
X90000000Y-64450000D02*
G75*
G02X90200000Y-64650000I0J-200000D01*
G01*
X89141421Y-64941421D02*
G75*
G02X89000000Y-65000000I-141421J141421D01*
G01*
X89141421Y-70058579D02*
G75*
G03X89000000Y-70000000I-141421J-141421D01*
G01*
X88300000Y-70000000D02*
G75*
G02X88000000Y-69700000I0J300000D01*
G01*
X88000000Y-65300000D02*
G75*
G02X88300000Y-65000000I300000J0D01*
G01*
M02*
