G04 #@! TF.GenerationSoftware,KiCad,Pcbnew,(5.1.5-0-10_14)*
G04 #@! TF.CreationDate,2020-08-22T00:23:10-07:00*
G04 #@! TF.ProjectId,RX_Flex,52585f46-6c65-4782-9e6b-696361645f70,rev?*
G04 #@! TF.SameCoordinates,Original*
G04 #@! TF.FileFunction,Copper,L2,Bot*
G04 #@! TF.FilePolarity,Positive*
%FSLAX46Y46*%
G04 Gerber Fmt 4.6, Leading zero omitted, Abs format (unit mm)*
G04 Created by KiCad (PCBNEW (5.1.5-0-10_14)) date 2020-08-22 00:23:10*
%MOMM*%
%LPD*%
G04 APERTURE LIST*
%ADD10R,6.000000X7.000000*%
%ADD11C,0.800000*%
%ADD12C,0.152400*%
G04 APERTURE END LIST*
D10*
X156650000Y-67500000D03*
X162850000Y-67500000D03*
X144150000Y-67500000D03*
X150350000Y-67500000D03*
X131650000Y-67500000D03*
X137850000Y-67500000D03*
X119150000Y-67500000D03*
X125350000Y-67500000D03*
D11*
X111500000Y-63500000D03*
X111500000Y-65000000D03*
X111500000Y-67500000D03*
X111500000Y-71500000D03*
D12*
X162800000Y-67500000D02*
X162800000Y-67450000D01*
X164750000Y-62500000D02*
X164503610Y-62253610D01*
X164503610Y-62253610D02*
X112746390Y-62253610D01*
X164750000Y-65500000D02*
X164750000Y-62500000D01*
X162800000Y-67450000D02*
X164750000Y-65500000D01*
X112746390Y-62253610D02*
X111500000Y-63500000D01*
X153246390Y-69496390D02*
X151250000Y-67500000D01*
X162800000Y-67550000D02*
X164750000Y-69500000D01*
X151250000Y-67500000D02*
X150300000Y-67500000D01*
X162800000Y-67500000D02*
X162800000Y-67550000D01*
X153246390Y-72746390D02*
X153246390Y-69496390D01*
X164750000Y-69500000D02*
X164750000Y-72500000D01*
X164750000Y-72500000D02*
X164503610Y-72746390D01*
X164503610Y-72746390D02*
X153246390Y-72746390D01*
X162800000Y-67500000D02*
X163750000Y-67500000D01*
X163750000Y-67500000D02*
X165746390Y-69496390D01*
X111500000Y-64833670D02*
X111500000Y-65000000D01*
X113775250Y-62558420D02*
X111500000Y-64833670D01*
X156700000Y-67500000D02*
X155750000Y-67500000D01*
X155750000Y-67500000D02*
X153691580Y-65441580D01*
X153691580Y-65441580D02*
X153691580Y-62558420D01*
X144250000Y-62558420D02*
X153691580Y-62558420D01*
X144200000Y-67500000D02*
X143250000Y-67500000D01*
X143250000Y-67500000D02*
X141191580Y-65441580D01*
X141191580Y-62558420D02*
X113775250Y-62558420D01*
X141191580Y-65441580D02*
X141191580Y-62558420D01*
X144250000Y-62558420D02*
X141191580Y-62558420D01*
X119200000Y-67500000D02*
X111500000Y-67500000D01*
X130750000Y-67500000D02*
X128886770Y-65636770D01*
X131700000Y-67500000D02*
X130750000Y-67500000D01*
X118250000Y-67500000D02*
X116250000Y-65500000D01*
X119200000Y-67500000D02*
X118250000Y-67500000D01*
X116250000Y-65500000D02*
X116250000Y-62863230D01*
X128886770Y-65636770D02*
X128886770Y-62863230D01*
X116250000Y-62863230D02*
X119250000Y-62863230D01*
X128886770Y-62863230D02*
X119250000Y-62863230D01*
X137800000Y-67500000D02*
X138750000Y-67500000D01*
X138750000Y-67500000D02*
X140750000Y-69500000D01*
X125253610Y-72746390D02*
X114246390Y-72746390D01*
X114246390Y-72746390D02*
X113246390Y-72746390D01*
X112746390Y-72746390D02*
X113246390Y-72746390D01*
X111500000Y-71500000D02*
X112746390Y-72746390D01*
X125300000Y-67500000D02*
X126250000Y-67500000D01*
X126250000Y-67500000D02*
X128253610Y-69503610D01*
X128253610Y-72746390D02*
X125253610Y-72746390D01*
X140503610Y-72746390D02*
X137246390Y-72746390D01*
X140750000Y-72500000D02*
X140503610Y-72746390D01*
X137246390Y-72746390D02*
X128253610Y-72746390D01*
X128253610Y-69503610D02*
X128253610Y-72746390D01*
X140750000Y-69500000D02*
X140750000Y-72500000D01*
M02*
